<svg xmlns="http://www.w3.org/2000/svg" xmlns:xlink="http://www.w3.org/1999/xlink" width="159.147" height="41.818" viewBox="0 0 159.147 41.818"><defs><clipPath id="a"><rect width="159.147" height="41.818" fill="none"/></clipPath></defs><g transform="translate(0 0)"><g clip-path="url(#a)"><text transform="translate(0 29.361)" fill="#252057" font-size="35" font-family="Orbitron-Regular, Orbitron"><tspan x="0" y="0">BLUE</tspan></text></g></g><path d="M348.626,20.6l-.009-5.43,11.341,8.158.009,5.43Z" transform="translate(-223.516 -9.725)" fill="#252057"/><path d="M348.437,61.419l.009,5.43,11.415-8.2-.009-5.429Z" transform="translate(-223.402 -34.123)" fill="#252057"/><path d="M380.236,20.6l-.009-5.43,11.341,8.158.009,5.43Z" transform="translate(-243.784 -9.725)" fill="#252057"/><path d="M380.048,61.419l.009,5.43,11.415-8.2-.009-5.429Z" transform="translate(-243.669 -34.123)" fill="#252057"/><path d="M411.846,20.839,423.187,29l-.01-5.43L411.836,15.41Z" transform="translate(-264.05 -9.88)" fill="#252057"/><path d="M411.658,61.66l.009,5.43,11.415-8.2-.01-5.43Z" transform="translate(-263.936 -34.277)" fill="#252057"/></svg>