<svg id="blue-logo" xmlns="http://www.w3.org/2000/svg" xmlns:xlink="http://www.w3.org/1999/xlink" width="334.197" height="87.814" viewBox="0 0 334.197 87.814">
  <defs>
    <clipPath id="clip-path">
      <rect id="Rectangle_91" data-name="Rectangle 91" width="334.196" height="87.814" fill="none"/>
    </clipPath>
  </defs>
  <g id="Group_173" data-name="Group 173" transform="translate(0 0)">
    <g id="Group_172" data-name="Group 172" clip-path="url(#clip-path)">
      <path id="Path_1250" data-name="Path 1250" d="M4.189,0V-51.12h40.4a8.388,8.388,0,0,1,4.3,1.136A8.4,8.4,0,0,1,51.972-46.9a8.388,8.388,0,0,1,1.136,4.3v10.863a7.749,7.749,0,0,1-.249,1.952,9.2,9.2,0,0,1-.674,1.811,30.468,30.468,0,0,1,2.343,4.047,8.271,8.271,0,0,1,.781,3.479V-8.52a8.388,8.388,0,0,1-1.136,4.3,8.4,8.4,0,0,1-3.089,3.089A8.388,8.388,0,0,1,46.789,0Zm8.52-5.751h34.08a2.664,2.664,0,0,0,1.953-.817,2.664,2.664,0,0,0,.817-1.952V-20.448a2.664,2.664,0,0,0-.817-1.952,2.664,2.664,0,0,0-1.953-.816H12.709a2.664,2.664,0,0,0-1.953.816,2.664,2.664,0,0,0-.817,1.952V-8.52a2.664,2.664,0,0,0,.817,1.952A2.664,2.664,0,0,0,12.709-5.751Zm0-23.217H44.588a2.549,2.549,0,0,0,1.917-.817,2.726,2.726,0,0,0,.781-1.952V-42.6a2.726,2.726,0,0,0-.781-1.952,2.55,2.55,0,0,0-1.917-.816H12.709a2.664,2.664,0,0,0-1.953.816A2.664,2.664,0,0,0,9.94-42.6v10.863a2.664,2.664,0,0,0,.817,1.952A2.664,2.664,0,0,0,12.709-28.968ZM63.119,0V-51.191H68.87v45.44h45.369V0Zm63.616,0a8.388,8.388,0,0,1-4.3-1.136,8.4,8.4,0,0,1-3.089-3.089,8.388,8.388,0,0,1-1.136-4.3v-42.6h5.751v42.6a2.664,2.664,0,0,0,.817,1.952,2.664,2.664,0,0,0,1.952.817h34.08a2.664,2.664,0,0,0,1.952-.817,2.664,2.664,0,0,0,.816-1.952v-42.6h5.751v42.6a8.388,8.388,0,0,1-1.136,4.3,8.4,8.4,0,0,1-3.089,3.089A8.388,8.388,0,0,1,160.815,0Zm50.552,0V-51.12h46.647v5.751h-40.9v16.9h32.873v5.822H183.038v16.9h40.9V0Z" transform="translate(0 60.159)" fill="#252057"/>
    </g>
  </g>
  <path id="Path_412" data-name="Path 412" d="M348.636,26.571l-.02-11.4L372.432,32.3l.02,11.4Z" transform="translate(-85.916 -3.738)" fill="#252057"/>
  <path id="Path_413" data-name="Path 413" d="M348.437,70.436l.02,11.4,23.97-17.216-.02-11.4Z" transform="translate(-85.871 -13.116)" fill="#252057"/>
  <path id="Path_414" data-name="Path 414" d="M380.246,26.571l-.019-11.4L404.042,32.3l.02,11.4Z" transform="translate(-93.706 -3.738)" fill="#252057"/>
  <path id="Path_415" data-name="Path 415" d="M380.048,70.436l.02,11.4,23.971-17.216-.02-11.4Z" transform="translate(-93.662 -13.116)" fill="#252057"/>
  <path id="Path_416" data-name="Path 416" d="M411.857,26.812l23.815,17.132-.02-11.4L411.836,15.41Z" transform="translate(-101.496 -3.798)" fill="#252057"/>
  <path id="Path_417" data-name="Path 417" d="M411.658,70.677l.02,11.4,23.971-17.216-.02-11.4Z" transform="translate(-101.452 -13.175)" fill="#252057"/>
</svg>
