<svg xmlns="http://www.w3.org/2000/svg" xmlns:xlink="http://www.w3.org/1999/xlink" width="700" height="933.337" viewBox="0 0 700 933.337">
  <defs>
    <clipPath id="clip-path">
      <rect id="Rectangle_142" data-name="Rectangle 142" width="700" height="933.337" fill="none"/>
    </clipPath>
  </defs>
  <g id="byo-pattern" opacity="0.33">
    <g id="Group_280" data-name="Group 280" clip-path="url(#clip-path)">
      <path id="Path_1033" data-name="Path 1033" d="M0,0V0" fill="#008db2"/>
      <path id="Path_1034" data-name="Path 1034" d="M142.27,466.67a25.59,25.59,0,0,0-25.6-25.916V466.67Z" fill="#008db2"/>
      <path id="Path_1035" data-name="Path 1035" d="M116.667,350Z" fill="#008db2"/>
      <path id="Path_1036" data-name="Path 1036" d="M144.332,438.714a38.977,38.977,0,0,1,11.445,27.957h24.365a63.477,63.477,0,0,0-63.47-63.477h0v24.074a38.989,38.989,0,0,1,27.665,11.446" fill="#008db2"/>
      <path id="Path_1037" data-name="Path 1037" d="M180.142,466.67H155.777a38.969,38.969,0,0,1-11.445,27.343l-.02.02-.228-.228c.074-.073.152-.141.226-.215a39,39,0,0,1-27.643,11.431V529.71h0a63.26,63.26,0,0,0,45.02-18.74l.217.216a63.248,63.248,0,0,0,18.235-44.513v0" fill="#008db2"/>
      <path id="Path_1038" data-name="Path 1038" d="M142.27,466.67h-25.6v24.857c.478,0,.956-.011,1.434-.037.3-.02.61-.04.91-.07.24-.02.48-.05.73-.08s.49-.06.74-.09c.69-.11,1.38-.24,2.06-.4l.82-.21c.02-.01.05-.01.07-.02.31-.08.61-.17.92-.27.05-.01.09-.03.14-.04.22-.07.44-.15.66-.22.51-.18,1.01-.37,1.51-.59q.54-.225,1.08-.48c.33-.16.67-.33,1-.51.18-.09.35-.19.53-.29.27-.15.54-.31.8-.47.13-.08.25-.15.37-.24.23-.14.45-.28.67-.44.17-.11.33-.22.5-.35.19-.13.37-.27.56-.41s.36-.28.54-.42c.21-.17.42-.34.63-.53.49-.41.97-.86,1.43-1.32l.01-.01,9.55,9.54L135,484.247a25.527,25.527,0,0,0,7.273-17.577" fill="#008db2"/>
      <path id="Path_1039" data-name="Path 1039" d="M123.726,583.337H233.333V466.67h0v0a116.308,116.308,0,0,1-34.031,82.35l-.223-.226a116.244,116.244,0,0,1-82.408,34.1h0v.219h0c2.369,0,4.72.079,7.054.218" fill="#008db2"/>
      <path id="Path_1040" data-name="Path 1040" d="M89.01,438.28l.01-.01.228.228a38.988,38.988,0,0,1,27.419-11.231V403.194a63.136,63.136,0,0,0-44.736,18.3l-.145-.146a63.26,63.26,0,0,0-18.6,44.88c0,.148.01.293.011.44H77.584A38.982,38.982,0,0,1,89.01,438.28" fill="#008db2"/>
      <path id="Path_1041" data-name="Path 1041" d="M0,466.23v.44H.006c0-.147-.006-.293-.006-.44" fill="#008db2"/>
      <path id="Path_1042" data-name="Path 1042" d="M34.546,383.816A116.286,116.286,0,0,1,116.667,350H0V466.23a116.29,116.29,0,0,1,34.32-82.64Z" fill="#008db2"/>
      <path id="Path_1043" data-name="Path 1043" d="M116.667,440.754a25.523,25.523,0,0,0-18.1,7.5l-.02.02-.217-.218c.046-.047.089-.1.135-.146l.08-.08.02-.02-.02.02-.08.08c-.32.32-.63.66-.93,1q-.435.48-.84.99c-.13.16-.25.31-.36.47-.16.19-.31.39-.45.59s-.28.4-.41.6a5.912,5.912,0,0,0-.35.52,4.868,4.868,0,0,0-.32.52,8.421,8.421,0,0,0-.45.76,3.624,3.624,0,0,0-.24.43c-.12.21-.23.42-.33.64-.11.2-.2.4-.3.6-.17.37-.34.75-.5,1.13q-.255.645-.48,1.29c-.08.21-.16.44-.22.66-.01.05-.03.09-.04.14a26.335,26.335,0,0,0-1,4.71c-.01.04-.01.08-.02.12-.02.27-.05.55-.07.82a.86.86,0,0,0-.01.16,25.549,25.549,0,0,0-.059,2.61h25.576Z" fill="#008db2"/>
      <path id="Path_1044" data-name="Path 1044" d="M116.667,296.6V271.906a39.085,39.085,0,0,1-39.088-38.569H53.2A63.475,63.475,0,0,0,116.667,296.6" fill="#008db2"/>
      <path id="Path_1045" data-name="Path 1045" d="M116.667,349.785A116.668,116.668,0,0,1,0,233.337H0V350H116.667Z" fill="#008db2"/>
      <path id="Path_1046" data-name="Path 1046" d="M91.086,233.337a25.583,25.583,0,0,0,25.58,25.075V233.337Z" fill="#008db2"/>
      <path id="Path_1047" data-name="Path 1047" d="M116.667,529.71V505.021A39.082,39.082,0,0,1,77.584,466.67H53.2a63.473,63.473,0,0,0,63.466,63.04" fill="#008db2"/>
      <path id="Path_1048" data-name="Path 1048" d="M91.091,466.67a25.583,25.583,0,0,0,25.576,24.857V466.67Z" fill="#008db2"/>
      <path id="Path_1049" data-name="Path 1049" d="M34.546,150.7a116.286,116.286,0,0,1,82.121-33.812v-.219H0V233.115a116.29,116.29,0,0,1,34.32-82.64Z" fill="#008db2"/>
      <path id="Path_1050" data-name="Path 1050" d="M89.01,205.165l.01-.01.228.228a38.988,38.988,0,0,1,27.419-11.231V170.079a63.136,63.136,0,0,0-44.736,18.3l-.145-.146a63.26,63.26,0,0,0-18.6,44.88c0,.074.005.147.006.222H77.579A38.975,38.975,0,0,1,89.01,205.165" fill="#008db2"/>
      <path id="Path_1051" data-name="Path 1051" d="M116.667,207.639a25.523,25.523,0,0,0-18.1,7.5l-.02.02-.217-.218c.046-.047.089-.1.135-.146l.08-.08.02-.02-.02.02-.08.08c-.32.32-.63.66-.93,1q-.435.48-.84.99c-.13.16-.25.31-.36.47-.16.19-.31.39-.45.59s-.28.4-.41.6a5.91,5.91,0,0,0-.35.52,4.868,4.868,0,0,0-.32.52,8.419,8.419,0,0,0-.45.76,3.622,3.622,0,0,0-.24.43c-.12.21-.23.42-.33.64-.11.2-.2.4-.3.6-.17.37-.34.75-.5,1.13q-.255.645-.48,1.29c-.08.21-.16.44-.22.66-.01.05-.03.09-.04.14a26.336,26.336,0,0,0-1,4.71c-.01.04-.01.08-.02.12-.02.27-.05.55-.07.82a.86.86,0,0,0-.01.16q-.088,1.2-.063,2.392h25.58Z" fill="#008db2"/>
      <path id="Path_1052" data-name="Path 1052" d="M0,233.115v.222H0c0-.074,0-.148,0-.222" fill="#008db2"/>
      <path id="Path_1053" data-name="Path 1053" d="M565.138,447.91c-.32.32-.63.66-.93,1q-.435.48-.84.99c-.13.16-.25.31-.36.47-.16.19-.31.39-.45.59s-.28.4-.41.6a5.923,5.923,0,0,0-.35.52,4.861,4.861,0,0,0-.32.52,8.414,8.414,0,0,0-.45.76,3.613,3.613,0,0,0-.24.43c-.12.21-.23.42-.33.64-.11.2-.2.4-.3.6-.17.37-.34.75-.5,1.13q-.255.645-.48,1.29c-.08.21-.16.44-.22.66-.01.05-.03.09-.04.14a26.327,26.327,0,0,0-1,4.71c-.01.04-.01.08-.02.12-.02.27-.05.55-.07.82a.86.86,0,0,0-.01.16,25.546,25.546,0,0,0-.059,2.61h25.574V440.754a25.519,25.519,0,0,0-18.093,7.5l-.02.019-.218-.217c.047-.048.089-.1.136-.146l.08-.08.02-.02-.02.02-.08.08" fill="#008db2"/>
      <path id="Path_1054" data-name="Path 1054" d="M538.455,421.35a63.257,63.257,0,0,0-18.6,44.88c0,.148.01.293.011.44h24.383a38.974,38.974,0,0,1,11.426-28.39l.01-.01.228.228a38.983,38.983,0,0,1,27.417-11.23V403.194A63.133,63.133,0,0,0,538.6,421.5Z" fill="#008db2"/>
      <path id="Path_1055" data-name="Path 1055" d="M142.274,233.337H116.666v25.075c.478,0,.956-.01,1.434-.037.3-.02.61-.04.91-.07.24-.02.48-.05.73-.08s.49-.06.74-.09c.69-.11,1.38-.24,2.06-.4l.82-.21c.02-.01.05-.01.07-.02.31-.08.61-.17.92-.27.05-.01.09-.03.14-.04.22-.07.44-.15.66-.22.51-.18,1.01-.37,1.51-.59q.54-.225,1.08-.48c.33-.16.67-.33,1-.51.18-.09.35-.19.53-.29.27-.15.54-.31.8-.47.13-.08.25-.15.37-.24.23-.14.45-.28.67-.44.17-.11.33-.22.5-.35.19-.13.37-.27.56-.41s.36-.28.54-.42c.21-.17.42-.34.63-.53.49-.41.97-.86,1.43-1.32l.01-.01,9.55,9.54L135,251.132a25.533,25.533,0,0,0,7.277-17.795" fill="#008db2"/>
      <path id="Path_1056" data-name="Path 1056" d="M180.136,233.337H155.782a38.979,38.979,0,0,1-11.45,27.562l-.02.02-.229-.229c.075-.073.153-.141.227-.215a39,39,0,0,1-27.643,11.431V296.6h0a63.26,63.26,0,0,0,45.02-18.74l.217.217a63.256,63.256,0,0,0,18.235-44.513c0-.075-.006-.148-.006-.222" fill="#008db2"/>
      <path id="Path_1057" data-name="Path 1057" d="M116.667,63.48V38.791A38.985,38.985,0,0,1,89.02,27.34,38.973,38.973,0,0,1,77.574,0H53.19A63.479,63.479,0,0,0,116.667,63.48" fill="#008db2"/>
      <path id="Path_1058" data-name="Path 1058" d="M91.087,0a25.51,25.51,0,0,0,1.294,7.777,25.439,25.439,0,0,0,6.19,10.02,25.524,25.524,0,0,0,18.1,7.5V0Z" fill="#008db2"/>
      <path id="Path_1059" data-name="Path 1059" d="M116.667,116.67A116.671,116.671,0,0,1,0,0V116.67Z" fill="#008db2"/>
      <path id="Path_1060" data-name="Path 1060" d="M555.688,493.57a38.962,38.962,0,0,1-11.436-26.9H519.869a63.473,63.473,0,0,0,63.464,63.04V505.021a38.983,38.983,0,0,1-27.645-11.451" fill="#008db2"/>
      <path id="Path_1061" data-name="Path 1061" d="M557.759,466.67a25.583,25.583,0,0,0,25.574,24.857V466.67Z" fill="#008db2"/>
      <path id="Path_1062" data-name="Path 1062" d="M466.674,466.67h-.007V583.337H576.288c2.331-.139,4.679-.219,7.045-.219V582.9A116.668,116.668,0,0,1,466.674,466.67" fill="#008db2"/>
      <path id="Path_1063" data-name="Path 1063" d="M555.688,260.455a38.966,38.966,0,0,1-11.441-27.118H519.864A63.475,63.475,0,0,0,583.333,296.6V271.906a38.983,38.983,0,0,1-27.645-11.451" fill="#008db2"/>
      <path id="Path_1064" data-name="Path 1064" d="M557.755,233.337a25.583,25.583,0,0,0,25.579,25.075V233.337Z" fill="#008db2"/>
      <path id="Path_1065" data-name="Path 1065" d="M466.667,233.337h0c0-.074,0-.148,0-.222a116.29,116.29,0,0,1,34.32-82.64l.225.226a116.29,116.29,0,0,1,82.12-33.812v-.219H466.667Z" fill="#008db2"/>
      <path id="Path_1066" data-name="Path 1066" d="M519.864,233.337h24.383a38.979,38.979,0,0,1,11.431-28.172l.01-.01.229.228a38.976,38.976,0,0,1,27.416-11.23V170.079a63.137,63.137,0,0,0-44.734,18.3l-.144-.146a63.258,63.258,0,0,0-18.6,44.88c0,.075.006.148.006.222" fill="#008db2"/>
      <path id="Path_1067" data-name="Path 1067" d="M565.138,214.795c-.32.32-.63.66-.93,1q-.435.48-.84.99c-.13.16-.25.31-.36.47-.16.19-.31.39-.45.59s-.28.4-.41.6a5.92,5.92,0,0,0-.35.52,4.861,4.861,0,0,0-.32.52,8.412,8.412,0,0,0-.45.76,3.611,3.611,0,0,0-.24.43c-.12.21-.23.42-.33.64-.11.2-.2.4-.3.6-.17.37-.34.75-.5,1.13q-.255.645-.48,1.29c-.08.21-.16.44-.22.66-.01.05-.03.09-.04.14a26.327,26.327,0,0,0-1,4.71c-.01.04-.01.08-.02.12-.02.27-.05.55-.07.82a.859.859,0,0,0-.01.16c-.059.8-.079,1.595-.064,2.392h25.579v-25.7a25.519,25.519,0,0,0-18.093,7.5l-.02.019-.218-.217c.047-.048.089-.1.136-.146l.08-.08.02-.02-.02.02-.08.08" fill="#008db2"/>
      <path id="Path_1068" data-name="Path 1068" d="M555.688,27.34A38.97,38.97,0,0,1,544.242,0H519.858A63.48,63.48,0,0,0,583.333,63.48V38.791A38.983,38.983,0,0,1,555.688,27.34" fill="#008db2"/>
      <path id="Path_1069" data-name="Path 1069" d="M557.755,0a25.511,25.511,0,0,0,1.294,7.777,25.45,25.45,0,0,0,6.19,10.02,25.521,25.521,0,0,0,18.094,7.5V0Z" fill="#008db2"/>
      <path id="Path_1070" data-name="Path 1070" d="M466.668,0h0V116.671H583.333A116.67,116.67,0,0,1,466.668,0" fill="#008db2"/>
      <path id="Path_1071" data-name="Path 1071" d="M351.434,258.375c.3-.02.61-.04.91-.07.24-.02.48-.05.73-.08s.49-.06.74-.09c.69-.11,1.38-.24,2.06-.4l.82-.21c.02-.01.05-.01.07-.02.31-.08.61-.17.92-.27.05-.01.09-.03.14-.04.22-.07.44-.15.66-.22.51-.18,1.01-.37,1.51-.59q.54-.225,1.08-.48c.33-.16.67-.33,1-.51.18-.09.35-.19.53-.29.27-.15.54-.31.8-.47.13-.08.25-.15.37-.24.23-.14.45-.28.67-.44.17-.11.33-.22.5-.35.19-.13.37-.27.56-.41s.36-.28.54-.42c.21-.17.42-.34.63-.53.49-.41.97-.86,1.43-1.32l.01-.01,9.55,9.54-9.333-9.323a25.528,25.528,0,0,0,7.277-17.795H350v25.075c.478,0,.956-.01,1.434-.037" fill="#008db2"/>
      <path id="Path_1072" data-name="Path 1072" d="M377.666,260.9l-.02.02-.228-.228c.074-.074.152-.141.226-.215A39.009,39.009,0,0,1,350,271.907V296.6h0a63.26,63.26,0,0,0,45.02-18.74l.217.216a63.248,63.248,0,0,0,18.235-44.513c0-.074-.005-.147-.006-.222H389.116a38.975,38.975,0,0,1-11.45,27.562" fill="#008db2"/>
      <path id="Path_1073" data-name="Path 1073" d="M322.354,493.57a38.962,38.962,0,0,1-11.436-26.9H286.535A63.472,63.472,0,0,0,350,529.71V505.021a38.985,38.985,0,0,1-27.646-11.451" fill="#008db2"/>
      <path id="Path_1074" data-name="Path 1074" d="M324.425,466.67A25.583,25.583,0,0,0,350,491.527V466.67Z" fill="#008db2"/>
      <path id="Path_1075" data-name="Path 1075" d="M350,583.119V582.9A116.666,116.666,0,0,1,233.34,466.671h-.007V583.337h109.62c2.332-.139,4.68-.218,7.047-.218" fill="#008db2"/>
      <path id="Path_1076" data-name="Path 1076" d="M350,207.639a25.525,25.525,0,0,0-18.094,7.5l-.02.02-.217-.218c.046-.047.088-.1.135-.146l.08-.08.02-.02-.02.02-.08.08c-.32.32-.63.66-.93,1q-.435.48-.84.99c-.13.16-.25.31-.36.47-.16.19-.31.39-.45.59s-.28.4-.41.6a5.913,5.913,0,0,0-.35.52,4.867,4.867,0,0,0-.32.52,8.419,8.419,0,0,0-.45.76,3.619,3.619,0,0,0-.24.43c-.12.21-.23.42-.33.64-.11.2-.2.4-.3.6-.17.37-.34.75-.5,1.13q-.255.645-.48,1.29c-.08.21-.16.44-.22.66-.01.05-.03.09-.04.14a26.332,26.332,0,0,0-1,4.71c-.01.04-.01.08-.02.12-.02.27-.05.55-.07.82a.862.862,0,0,0-.01.16q-.089,1.2-.063,2.392H350Z" fill="#008db2"/>
      <path id="Path_1077" data-name="Path 1077" d="M233.334,233.115a116.29,116.29,0,0,1,34.32-82.64l.226.226A116.279,116.279,0,0,1,350,116.889v-.219H233.333V233.337h0c0-.074,0-.148,0-.222" fill="#008db2"/>
      <path id="Path_1078" data-name="Path 1078" d="M286.53,233.337h24.383a38.979,38.979,0,0,1,11.431-28.172l.01-.01.229.228A38.98,38.98,0,0,1,350,194.153V170.079a63.135,63.135,0,0,0-44.735,18.3l-.144-.146a63.258,63.258,0,0,0-18.6,44.88c0,.075.006.148.006.222" fill="#008db2"/>
      <path id="Path_1079" data-name="Path 1079" d="M324.421,233.337A25.583,25.583,0,0,0,350,258.412V233.337Z" fill="#008db2"/>
      <path id="Path_1080" data-name="Path 1080" d="M322.354,260.455a38.966,38.966,0,0,1-11.441-27.118H286.53A63.475,63.475,0,0,0,350,296.6V271.906a38.985,38.985,0,0,1-27.646-11.451" fill="#008db2"/>
      <path id="Path_1081" data-name="Path 1081" d="M305.121,421.35a63.257,63.257,0,0,0-18.6,44.88c0,.148.01.293.011.44h24.383a38.974,38.974,0,0,1,11.426-28.39l.01-.01.228.228A38.981,38.981,0,0,1,350,427.268V403.194a63.134,63.134,0,0,0-44.735,18.3Z" fill="#008db2"/>
      <path id="Path_1082" data-name="Path 1082" d="M350,440.754a25.525,25.525,0,0,0-18.094,7.5l-.02.02-.217-.218c.046-.047.088-.1.135-.146l.08-.08.02-.02-.02.02-.08.08c-.32.32-.63.66-.93,1q-.435.48-.84.99c-.13.16-.25.31-.36.47-.16.19-.31.39-.45.59s-.28.4-.41.6a5.915,5.915,0,0,0-.35.52,4.867,4.867,0,0,0-.32.52,8.421,8.421,0,0,0-.45.76,3.622,3.622,0,0,0-.24.43c-.12.21-.23.42-.33.64-.11.2-.2.4-.3.6-.17.37-.34.75-.5,1.13q-.255.645-.48,1.29c-.08.21-.16.44-.22.66-.01.05-.03.09-.04.14a26.332,26.332,0,0,0-1,4.71c-.01.04-.01.08-.02.12-.02.27-.05.55-.07.82a.862.862,0,0,0-.01.16,25.553,25.553,0,0,0-.059,2.61H350Z" fill="#008db2"/>
      <path id="Path_1083" data-name="Path 1083" d="M142.274,233.337a25.6,25.6,0,0,0-25.608-25.7v25.7Z" fill="#008db2"/>
      <path id="Path_1084" data-name="Path 1084" d="M233.329,233.337h0V116.67H116.667v.219h0A116.666,116.666,0,0,1,233.329,233.337" fill="#008db2"/>
      <path id="Path_1085" data-name="Path 1085" d="M144.332,205.6a38.977,38.977,0,0,1,11.45,27.738h24.354a63.473,63.473,0,0,0-63.464-63.258h0v24.074A38.989,38.989,0,0,1,144.332,205.6" fill="#008db2"/>
      <path id="Path_1086" data-name="Path 1086" d="M583.333,25.3c.479,0,.957-.01,1.435-.037.3-.02.61-.04.91-.07.24-.02.48-.05.73-.08s.49-.06.74-.09c.69-.11,1.38-.24,2.06-.4l.82-.21c.02-.01.05-.01.07-.02.31-.08.61-.17.92-.27.05-.01.09-.03.14-.04.22-.07.44-.15.66-.22.51-.18,1.01-.37,1.51-.59q.54-.225,1.08-.48c.33-.16.67-.33,1-.51.18-.09.35-.19.53-.29.27-.15.54-.31.8-.47.13-.08.25-.15.37-.24.23-.14.45-.28.67-.44.17-.11.33-.22.5-.35.19-.13.37-.27.56-.41s.36-.28.54-.42c.21-.17.42-.34.63-.53.49-.41.97-.86,1.43-1.32l.01-.01L611,27.34l-9.333-9.323A25.538,25.538,0,0,0,608.946,0H583.333Z" fill="#008db2"/>
      <path id="Path_1087" data-name="Path 1087" d="M665.747,82.568a116.243,116.243,0,0,1-82.408,34.1H700V.444a116.311,116.311,0,0,1-34.03,82.35Z" fill="#008db2"/>
      <path id="Path_1088" data-name="Path 1088" d="M700,.444V0h-.006c0,.147.006.293.006.44" fill="#008db2"/>
      <path id="Path_1089" data-name="Path 1089" d="M611,27.784l-.02.02-.228-.228c.074-.074.152-.141.226-.215a39.006,39.006,0,0,1-27.645,11.431V63.48h.005a63.26,63.26,0,0,0,45.02-18.74l.217.216A63.248,63.248,0,0,0,646.81.444c0-.148-.01-.293-.011-.44h-24.35A38.975,38.975,0,0,1,611,27.784" fill="#008db2"/>
      <path id="Path_1090" data-name="Path 1090" d="M583.333,116.67h0Z" fill="#008db2"/>
      <path id="Path_1091" data-name="Path 1091" d="M583.333,116.67v.219h.007A116.666,116.666,0,0,1,700,233.337h0V116.67H583.333Z" fill="#008db2"/>
      <path id="Path_1092" data-name="Path 1092" d="M583.34,170.079h-.007v24.074a39.086,39.086,0,0,1,39.117,39.184H646.8a63.473,63.473,0,0,0-63.464-63.258" fill="#008db2"/>
      <path id="Path_1093" data-name="Path 1093" d="M608.943,233.337a25.595,25.595,0,0,0-25.609-25.7v25.7Z" fill="#008db2"/>
      <path id="Path_1094" data-name="Path 1094" d="M583.333,258.412c.479,0,.957-.01,1.435-.037.3-.02.61-.04.91-.07.24-.02.48-.05.73-.08s.49-.06.74-.09c.69-.11,1.38-.24,2.06-.4l.82-.21c.02-.01.05-.01.07-.02.31-.08.61-.17.92-.27.05-.01.09-.03.14-.04.22-.07.44-.15.66-.22.51-.18,1.01-.37,1.51-.59q.54-.225,1.08-.48c.33-.16.67-.33,1-.51.18-.09.35-.19.53-.29.27-.15.54-.31.8-.47.13-.08.25-.15.37-.24.23-.14.45-.28.67-.44.17-.11.33-.22.5-.35.19-.13.37-.27.56-.41s.36-.28.54-.42c.21-.17.42-.34.63-.53.49-.41.97-.86,1.43-1.32l.01-.01,9.55,9.54-9.333-9.323a25.528,25.528,0,0,0,7.277-17.795H583.333Z" fill="#008db2"/>
      <path id="Path_1095" data-name="Path 1095" d="M665.747,315.683a116.243,116.243,0,0,1-82.408,34.1h-.005V350H700V233.559a116.311,116.311,0,0,1-34.03,82.35Z" fill="#008db2"/>
      <path id="Path_1096" data-name="Path 1096" d="M700,233.559v-.222h0c0,.074,0,.148,0,.222" fill="#008db2"/>
      <path id="Path_1097" data-name="Path 1097" d="M611,260.9l-.02.02-.228-.228c.074-.074.152-.141.226-.215a39.006,39.006,0,0,1-27.645,11.431V296.6h.005a63.26,63.26,0,0,0,45.02-18.74l.217.216a63.248,63.248,0,0,0,18.235-44.513c0-.074-.005-.147-.006-.222H622.45A38.975,38.975,0,0,1,611,260.9" fill="#008db2"/>
      <path id="Path_1098" data-name="Path 1098" d="M608.939,466.67a25.59,25.59,0,0,0-25.605-25.916V466.67Z" fill="#008db2"/>
      <path id="Path_1099" data-name="Path 1099" d="M583.34,350h0" fill="#008db2"/>
      <path id="Path_1100" data-name="Path 1100" d="M700,466.67h0V350H583.34A116.669,116.669,0,0,1,700,466.67" fill="#008db2"/>
      <path id="Path_1101" data-name="Path 1101" d="M583.34,403.194h-.007v24.074a39.08,39.08,0,0,1,39.112,39.4H646.81a63.477,63.477,0,0,0-63.47-63.477" fill="#008db2"/>
      <path id="Path_1102" data-name="Path 1102" d="M611,494.014l-.02.02-.228-.228c.074-.074.152-.141.226-.215a39.006,39.006,0,0,1-27.645,11.431V529.71h.005a63.26,63.26,0,0,0,45.02-18.74l.217.216a63.248,63.248,0,0,0,18.235-44.513v0H622.445A38.969,38.969,0,0,1,611,494.014" fill="#008db2"/>
      <path id="Path_1103" data-name="Path 1103" d="M583.333,491.527c.479,0,.957-.01,1.435-.037.3-.02.61-.04.91-.07.24-.02.48-.05.73-.08s.49-.06.74-.09c.69-.11,1.38-.24,2.06-.4l.82-.21c.02-.01.05-.01.07-.02.31-.08.61-.17.92-.27.05-.01.09-.03.14-.04.22-.07.44-.15.66-.22.51-.18,1.01-.37,1.51-.59q.54-.225,1.08-.48c.33-.16.67-.33,1-.51.18-.09.35-.19.53-.29.27-.15.54-.31.8-.47.13-.08.25-.15.37-.24.23-.14.45-.28.67-.44.17-.11.33-.22.5-.35.19-.13.37-.27.56-.41s.36-.28.54-.42c.21-.17.42-.34.63-.53.49-.41.97-.86,1.43-1.32l.01-.01,9.55,9.54-9.333-9.323a25.522,25.522,0,0,0,7.273-17.577h-25.6Z" fill="#008db2"/>
      <path id="Path_1104" data-name="Path 1104" d="M700,466.674v0" fill="#008db2"/>
      <path id="Path_1105" data-name="Path 1105" d="M180.131,0h-24.35a38.975,38.975,0,0,1-11.449,27.78l-.02.02-.228-.228c.074-.074.152-.141.226-.215a39.005,39.005,0,0,1-27.643,11.431V63.481h0a63.26,63.26,0,0,0,45.02-18.74l.217.216A63.248,63.248,0,0,0,180.142.444c0-.148-.01-.293-.011-.44" fill="#008db2"/>
      <path id="Path_1106" data-name="Path 1106" d="M142.278,0H116.666V25.3c.478,0,.956-.011,1.434-.037.3-.02.61-.04.91-.07.24-.02.48-.05.73-.08s.49-.06.74-.09c.69-.11,1.38-.24,2.06-.4l.82-.21c.02-.01.05-.01.07-.02.31-.08.61-.17.92-.27.05-.01.09-.03.14-.04.22-.07.44-.15.66-.22.51-.18,1.01-.37,1.51-.59q.54-.225,1.08-.48c.33-.16.67-.33,1-.51.18-.09.35-.19.53-.29.27-.15.54-.31.8-.47.13-.08.25-.15.37-.24.23-.14.45-.28.67-.44.17-.11.33-.22.5-.35.19-.13.37-.27.56-.41s.36-.28.54-.42c.21-.17.42-.34.63-.53.49-.41.97-.86,1.43-1.32l.01-.01,9.55,9.54L135,18.017A25.534,25.534,0,0,0,142.278,0" fill="#008db2"/>
      <path id="Path_1107" data-name="Path 1107" d="M116.667,116.67h0" fill="#008db2"/>
      <path id="Path_1108" data-name="Path 1108" d="M199.3,82.794l-.223-.226a116.243,116.243,0,0,1-82.409,34.1H233.334V0h-.008c0,.147.006.293.006.44a116.311,116.311,0,0,1-34.03,82.35" fill="#008db2"/>
      <path id="Path_1109" data-name="Path 1109" d="M377.666,205.6a38.977,38.977,0,0,1,11.45,27.738H413.47a63.473,63.473,0,0,0-63.464-63.258H350v24.074A38.991,38.991,0,0,1,377.666,205.6" fill="#008db2"/>
      <path id="Path_1110" data-name="Path 1110" d="M350,116.67v.219h.006A116.666,116.666,0,0,1,466.663,233.337h0V116.67H350Z" fill="#008db2"/>
      <path id="Path_1111" data-name="Path 1111" d="M375.608,233.337A25.6,25.6,0,0,0,350,207.639v25.7Z" fill="#008db2"/>
      <path id="Path_1112" data-name="Path 1112" d="M377.666,438.714a38.977,38.977,0,0,1,11.445,27.957h24.365a63.477,63.477,0,0,0-63.47-63.477H350v24.074a38.991,38.991,0,0,1,27.666,11.446" fill="#008db2"/>
      <path id="Path_1113" data-name="Path 1113" d="M350.006,350h0" fill="#008db2"/>
      <path id="Path_1114" data-name="Path 1114" d="M375.6,466.67A25.59,25.59,0,0,0,350,440.754V466.67Z" fill="#008db2"/>
      <path id="Path_1115" data-name="Path 1115" d="M322.354,27.34A38.97,38.97,0,0,1,310.908,0H286.524A63.479,63.479,0,0,0,350,63.48V38.791A38.985,38.985,0,0,1,322.354,27.34" fill="#008db2"/>
      <path id="Path_1116" data-name="Path 1116" d="M324.421,0a25.511,25.511,0,0,0,1.294,7.777A25.451,25.451,0,0,0,331.9,17.8,25.523,25.523,0,0,0,350,25.3V0Z" fill="#008db2"/>
      <path id="Path_1117" data-name="Path 1117" d="M350,116.67h0A116.67,116.67,0,0,1,233.334,0h0V116.67Z" fill="#008db2"/>
      <path id="Path_1118" data-name="Path 1118" d="M466.666,466.674a116.311,116.311,0,0,1-34.03,82.35l-.223-.226A116.243,116.243,0,0,1,350,582.9h0v.218h.006c2.369,0,4.72.079,7.054.218H466.667V466.671h0v0" fill="#008db2"/>
      <path id="Path_1119" data-name="Path 1119" d="M377.666,494.014l-.02.02-.228-.228c.074-.074.152-.141.226-.215A39.009,39.009,0,0,1,350,505.022V529.71h0a63.26,63.26,0,0,0,45.02-18.74l.217.216a63.248,63.248,0,0,0,18.235-44.513v0H389.111a38.969,38.969,0,0,1-11.445,27.343" fill="#008db2"/>
      <path id="Path_1120" data-name="Path 1120" d="M351.434,491.49c.3-.02.61-.04.91-.07.24-.02.48-.05.73-.08s.49-.06.74-.09c.69-.11,1.38-.24,2.06-.4l.82-.21c.02-.01.05-.01.07-.02.31-.08.61-.17.92-.27.05-.01.09-.03.14-.04.22-.07.44-.15.66-.22.51-.18,1.01-.37,1.51-.59q.54-.225,1.08-.48c.33-.16.67-.33,1-.51.18-.09.35-.19.53-.29.27-.15.54-.31.8-.47.13-.08.25-.15.37-.24.23-.14.45-.28.67-.44.17-.11.33-.22.5-.35.19-.13.37-.27.56-.41s.36-.28.54-.42c.21-.17.42-.34.63-.53.49-.41.97-.86,1.43-1.32l.01-.01,9.55,9.54-9.333-9.323A25.523,25.523,0,0,0,375.6,466.67H350v24.857c.478,0,.956-.01,1.434-.037" fill="#008db2"/>
      <path id="Path_1121" data-name="Path 1121" d="M432.636,82.794l-.223-.226A116.243,116.243,0,0,1,350,116.671H466.667V0h-.007c0,.147.006.293.006.44a116.311,116.311,0,0,1-34.03,82.35" fill="#008db2"/>
      <path id="Path_1122" data-name="Path 1122" d="M350,116.67h0" fill="#008db2"/>
      <path id="Path_1123" data-name="Path 1123" d="M395.024,44.74l.217.217A63.257,63.257,0,0,0,413.476.443c0-.147-.01-.292-.011-.44h-24.35a38.979,38.979,0,0,1-11.449,27.78l-.02.02-.229-.228c.075-.073.153-.141.227-.215A39,39,0,0,1,350,38.791V63.48h0a63.26,63.26,0,0,0,45.02-18.74" fill="#008db2"/>
      <path id="Path_1124" data-name="Path 1124" d="M350,25.3c.478,0,.956-.01,1.434-.037.3-.02.61-.04.91-.07.24-.02.48-.05.73-.08s.49-.06.74-.09c.69-.11,1.38-.24,2.06-.4l.82-.21c.02-.01.05-.01.07-.02.31-.08.61-.17.92-.27.05-.01.09-.03.14-.04.22-.07.44-.15.66-.22.51-.18,1.01-.37,1.51-.59q.54-.225,1.08-.48c.33-.16.67-.33,1-.51.18-.09.35-.19.53-.29.27-.15.54-.31.8-.47.13-.08.25-.15.37-.24.23-.14.45-.28.67-.44.17-.11.33-.22.5-.35.19-.13.37-.27.56-.41s.36-.28.54-.42c.21-.17.42-.34.63-.53.49-.41.97-.86,1.43-1.32l.01-.01,9.55,9.54-9.333-9.323A25.534,25.534,0,0,0,375.612,0H350Z" fill="#008db2"/>
      <path id="Path_1125" data-name="Path 1125" d="M350,816.234v-.219A116.666,116.666,0,0,1,233.342,700h-.009V816.671H339.945c3.315-.284,6.667-.437,10.055-.437" fill="#008db2"/>
      <path id="Path_1126" data-name="Path 1126" d="M377.666,904.943A38.982,38.982,0,0,1,389.1,933.336h24.364c0-.145.011-.288.011-.433a63.477,63.477,0,0,0-63.47-63.48H350V893.5a38.991,38.991,0,0,1,27.666,11.446" fill="#008db2"/>
      <path id="Path_1127" data-name="Path 1127" d="M466.666,932.9c0,.145,0,.289,0,.434h.006V816.67h-106.6A116.675,116.675,0,0,1,466.666,932.9" fill="#008db2"/>
      <path id="Path_1128" data-name="Path 1128" d="M375.6,933.337A25.592,25.592,0,0,0,350,906.984v26.353Z" fill="#008db2"/>
      <path id="Path_1129" data-name="Path 1129" d="M466.679,933.337c0-.293-.011-.584-.011-.877a116.29,116.29,0,0,1,34.32-82.64l.225.226a116.28,116.28,0,0,1,72.066-33.376H466.666V933.337Z" fill="#008db2"/>
      <path id="Path_1130" data-name="Path 1130" d="M466.677,700h-.01V816.671H573.279c3.315-.284,6.667-.437,10.055-.437v-.219A116.665,116.665,0,0,1,466.677,700" fill="#008db2"/>
      <path id="Path_1131" data-name="Path 1131" d="M233.345,933.337c0-.293-.011-.584-.011-.877a116.29,116.29,0,0,1,34.32-82.64l.225.226a116.28,116.28,0,0,1,72.066-33.376H233.333V933.337Z" fill="#008db2"/>
      <path id="Path_1132" data-name="Path 1132" d="M700,700v-.215c0,.072,0,.143,0,.215Z" fill="#008db2"/>
      <path id="Path_1133" data-name="Path 1133" d="M665.97,782.138l-.223-.226a116.243,116.243,0,0,1-82.409,34.1h-.005v.218h.007c3.391,0,6.746.153,10.063.437H700V700h0a116.308,116.308,0,0,1-34.027,82.135" fill="#008db2"/>
      <path id="Path_1134" data-name="Path 1134" d="M233.334,699.345a116.29,116.29,0,0,1,34.32-82.64l.226.226a116.264,116.264,0,0,1,75.073-33.594H233.333V700h.009c0-.22-.008-.439-.008-.659" fill="#008db2"/>
      <path id="Path_1135" data-name="Path 1135" d="M608.931,933.337a25.593,25.593,0,0,0-25.6-26.353v26.353Z" fill="#008db2"/>
      <path id="Path_1136" data-name="Path 1136" d="M700,932.9V816.67H593.4A116.675,116.675,0,0,1,700,932.9" fill="#008db2"/>
      <path id="Path_1137" data-name="Path 1137" d="M700,933.337V932.9c0,.145-.005.289-.005.434Z" fill="#008db2"/>
      <path id="Path_1138" data-name="Path 1138" d="M611,904.943a38.982,38.982,0,0,1,11.435,28.393H646.8c0-.145.011-.288.011-.433a63.477,63.477,0,0,0-63.47-63.48h-.007V893.5A39,39,0,0,1,611,904.943" fill="#008db2"/>
      <path id="Path_1139" data-name="Path 1139" d="M126.735,816.67h106.6V700h-.005A116.308,116.308,0,0,1,199.3,782.138l-.223-.226a116.243,116.243,0,0,1-82.409,34.1h0v.218h0c3.391,0,6.746.153,10.063.437" fill="#008db2"/>
      <path id="Path_1140" data-name="Path 1140" d="M123.726,583.337A116.669,116.669,0,0,1,233.332,699.789c0,.071,0,.143,0,.215h0V583.337Z" fill="#008db2"/>
      <path id="Path_1141" data-name="Path 1141" d="M142.262,933.337a25.593,25.593,0,0,0-25.6-26.353v26.353Z" fill="#008db2"/>
      <path id="Path_1142" data-name="Path 1142" d="M144.332,904.943a38.982,38.982,0,0,1,11.435,28.393h24.364c0-.145.011-.288.011-.433a63.477,63.477,0,0,0-63.47-63.48h0V893.5a38.989,38.989,0,0,1,27.665,11.446" fill="#008db2"/>
      <path id="Path_1143" data-name="Path 1143" d="M233.333,816.67h-106.6A116.674,116.674,0,0,1,233.331,932.9c0,.145,0,.289,0,.434h.007Z" fill="#008db2"/>
      <path id="Path_1144" data-name="Path 1144" d="M466.666,699.788c0,.072,0,.143,0,.215h0V583.336H357.06A116.67,116.67,0,0,1,466.666,699.788" fill="#008db2"/>
      <path id="Path_1145" data-name="Path 1145" d="M466.677,700c0-.22-.008-.438-.008-.659a116.29,116.29,0,0,1,34.32-82.64l.225.226a116.271,116.271,0,0,1,75.074-33.594H466.667V700Z" fill="#008db2"/>
      <path id="Path_1146" data-name="Path 1146" d="M432.636,782.138l-.223-.226A116.243,116.243,0,0,1,350,816.015h0v.218h.006c3.391,0,6.746.153,10.063.437h106.6V700h0a116.308,116.308,0,0,1-34.027,82.135" fill="#008db2"/>
      <path id="Path_1147" data-name="Path 1147" d="M0,699.345V700H.008c0-.22-.008-.439-.008-.659" fill="#008db2"/>
      <path id="Path_1148" data-name="Path 1148" d="M180.142.444a63.248,63.248,0,0,1-18.235,44.513L199.3,82.351c-.073.073-.148.144-.221.217l.223.226A116.311,116.311,0,0,0,233.332.444c0-.147-.005-.293-.006-.44h-53.2c0,.147.011.292.011.44" fill="#ff813e"/>
      <path id="Path_1149" data-name="Path 1149" d="M135,18.017l9.333,9.323-.02.02c-.074.074-.152.142-.227.215l.229.229.02-.02A38.981,38.981,0,0,0,155.781,0h-13.5A25.538,25.538,0,0,1,135,18.017" fill="#ff813e"/>
      <path id="Path_1150" data-name="Path 1150" d="M161.907,44.957l37.172,37.611c.073-.073.148-.144.221-.218Z" fill="#4bb0d9"/>
      <path id="Path_1151" data-name="Path 1151" d="M98.57,17.8A25.462,25.462,0,0,1,92.38,7.78,25.5,25.5,0,0,1,91.086,0H77.574A38.97,38.97,0,0,0,89.02,27.34a38.983,38.983,0,0,0,27.647,11.451V25.3a25.526,25.526,0,0,1-18.1-7.5" fill="#eb5c19"/>
      <path id="Path_1152" data-name="Path 1152" d="M144.33,27.34l-9.55-9.54-.01.01c-.46.46-.94.91-1.43,1.32-.21.19-.42.36-.63.53-.18.14-.36.29-.54.42s-.37.28-.56.41c-.17.13-.33.24-.5.35-.22.16-.44.3-.67.44-.12.09-.24.16-.37.24-.26.16-.53.32-.8.47-.18.1-.35.2-.53.29-.33.18-.67.35-1,.51q-.54.255-1.08.48c-.5.22-1,.41-1.51.59-.22.07-.44.15-.66.22-.05.01-.09.03-.14.04-.31.1-.61.19-.92.27-.02.01-.05.01-.07.02l-.82.21c-.68.16-1.37.29-2.06.4-.25.03-.49.07-.74.09s-.49.06-.73.08c-.3.03-.61.05-.91.07-.477.027-.955.037-1.433.037V38.791A39,39,0,0,0,144.31,27.36Z" fill="#eb5c19"/>
      <path id="Path_1153" data-name="Path 1153" d="M413.476.444a63.248,63.248,0,0,1-18.235,44.513l37.393,37.394c-.073.073-.148.144-.221.217l.223.226A116.311,116.311,0,0,0,466.666.444c0-.147,0-.293-.006-.44h-53.2c0,.147.011.292.011.44" fill="#ff813e"/>
      <path id="Path_1154" data-name="Path 1154" d="M368.331,18.017l9.333,9.323-.02.02c-.074.074-.152.142-.227.215l.229.229.02-.02A38.981,38.981,0,0,0,389.115,0h-13.5a25.538,25.538,0,0,1-7.281,18.013" fill="#ff813e"/>
      <path id="Path_1155" data-name="Path 1155" d="M432.634,82.35,395.241,44.957l37.171,37.61c.074-.073.149-.144.222-.217" fill="#4bb0d9"/>
      <path id="Path_1156" data-name="Path 1156" d="M331.9,17.8a25.462,25.462,0,0,1-6.19-10.02A25.5,25.5,0,0,1,324.42,0H310.908A38.97,38.97,0,0,0,322.354,27.34,38.985,38.985,0,0,0,350,38.791V25.3a25.524,25.524,0,0,1-18.1-7.5" fill="#eb5c19"/>
      <path id="Path_1157" data-name="Path 1157" d="M368.114,17.8l-.01.01c-.46.46-.94.91-1.43,1.32-.21.19-.42.36-.63.53-.18.14-.36.29-.54.42s-.37.28-.56.41c-.17.13-.33.24-.5.35-.22.16-.44.3-.67.44-.12.09-.24.16-.37.24-.26.16-.53.32-.8.47-.18.1-.35.2-.53.29-.33.18-.67.35-1,.51q-.54.255-1.08.48c-.5.22-1,.41-1.51.59-.22.07-.44.15-.66.22-.05.01-.09.03-.14.04-.31.1-.61.19-.92.27-.02.01-.05.01-.07.02l-.82.21c-.68.16-1.37.29-2.06.4-.25.03-.49.07-.74.09s-.49.06-.73.08c-.3.03-.61.05-.91.07-.478.027-.956.037-1.434.037V38.791A39,39,0,0,0,377.644,27.36l.02-.02Z" fill="#eb5c19"/>
      <path id="Path_1158" data-name="Path 1158" d="M646.8,0c0,.147.011.292.011.44a63.248,63.248,0,0,1-18.235,44.513l37.393,37.394c-.073.073-.148.144-.221.217l.223.226A116.311,116.311,0,0,0,700,.444c0-.147-.005-.293-.005-.44Z" fill="#ff813e"/>
      <path id="Path_1159" data-name="Path 1159" d="M601.666,18.017,611,27.34l-.02.02c-.074.074-.152.142-.227.215l.229.229.02-.02A38.981,38.981,0,0,0,622.45,0h-13.5a25.538,25.538,0,0,1-7.281,18.013" fill="#ff813e"/>
      <path id="Path_1160" data-name="Path 1160" d="M665.968,82.35,628.575,44.957l37.171,37.61c.074-.073.149-.144.222-.217" fill="#4bb0d9"/>
      <path id="Path_1161" data-name="Path 1161" d="M565.238,17.8a25.463,25.463,0,0,1-6.19-10.02A25.5,25.5,0,0,1,557.754,0H544.242A38.97,38.97,0,0,0,555.688,27.34a38.983,38.983,0,0,0,27.645,11.451V25.3a25.523,25.523,0,0,1-18.1-7.5" fill="#eb5c19"/>
      <path id="Path_1162" data-name="Path 1162" d="M601.448,17.8l-.01.01c-.46.46-.94.91-1.43,1.32-.21.19-.42.36-.63.53-.18.14-.36.29-.54.42s-.37.28-.56.41c-.17.13-.33.24-.5.35-.22.16-.44.3-.67.44-.12.09-.24.16-.37.24-.26.16-.53.32-.8.47-.18.1-.35.2-.53.29-.33.18-.67.35-1,.51q-.54.255-1.08.48c-.5.22-1,.41-1.51.59-.22.07-.44.15-.66.22-.05.01-.09.03-.14.04-.31.1-.61.19-.92.27-.02.01-.05.01-.07.02l-.82.21c-.68.16-1.37.29-2.06.4-.25.03-.49.07-.74.09s-.49.06-.73.08c-.3.03-.61.05-.91.07-.478.027-.957.037-1.435.037V38.791A39,39,0,0,0,610.978,27.36l.02-.02Z" fill="#eb5c19"/>
      <path id="Path_1163" data-name="Path 1163" d="M98.57,214.7h0l-.02.02-.08.08c-.047.047-.089.1-.136.146l.218.217.02-.02a25.522,25.522,0,0,1,18.1-7.5V194.152a38.99,38.99,0,0,0-27.419,11.231Z" fill="#ff813e"/>
      <path id="Path_1164" data-name="Path 1164" d="M135,251.132l9.333,9.323-.02.02c-.074.074-.152.142-.227.215l.229.229.02-.02a38.979,38.979,0,0,0,11.45-27.562H142.274A25.533,25.533,0,0,1,135,251.132" fill="#ff813e"/>
      <path id="Path_1165" data-name="Path 1165" d="M134.782,215.139a25.518,25.518,0,0,1,7.493,18.2h13.507a39.086,39.086,0,0,0-39.115-39.184v13.486a25.525,25.525,0,0,1,18.115,7.5" fill="#ff813e"/>
      <path id="Path_1166" data-name="Path 1166" d="M53.2,233.337H0A116.668,116.668,0,0,0,116.667,349.785V296.6A63.475,63.475,0,0,1,53.2,233.337" fill="#4bb0d9"/>
      <path id="Path_1167" data-name="Path 1167" d="M53.2,233.337c0-.074-.006-.147-.006-.222a63.258,63.258,0,0,1,18.6-44.88L34.546,150.7c-.074.073-.15.144-.224.218l0-.444.226.226-.226-.226A116.29,116.29,0,0,0,0,233.115c0,.074,0,.148,0,.222Z" fill="#4bb0d9"/>
      <path id="Path_1168" data-name="Path 1168" d="M199.078,315.683l-37.172-37.611-.216-.216a63.26,63.26,0,0,1-45.02,18.74h0v53.19h0a116.243,116.243,0,0,0,82.408-34.1" fill="#4bb0d9"/>
      <path id="Path_1169" data-name="Path 1169" d="M34.546,150.7h0l37.241,37.534c.049-.049.094-.1.143-.15Z" fill="#4bb0d9"/>
      <path id="Path_1170" data-name="Path 1170" d="M34.322,150.919l.224-.218-.226-.225Z" fill="#4bb0d9"/>
      <path id="Path_1171" data-name="Path 1171" d="M98.57,250.915a25.51,25.51,0,0,1-7.484-17.578H77.579a39.085,39.085,0,0,0,39.088,38.569V258.412a25.526,25.526,0,0,1-18.1-7.5" fill="#eb5c19"/>
      <path id="Path_1172" data-name="Path 1172" d="M91.15,230.945a.86.86,0,0,1,.01-.16c.02-.27.05-.55.07-.82.01-.04.01-.08.02-.12a26.336,26.336,0,0,1,1-4.71c.01-.05.03-.09.04-.14.06-.22.14-.45.22-.66q.225-.645.48-1.29c.16-.38.33-.76.5-1.13.1-.2.19-.4.3-.6.1-.22.21-.43.33-.64a3.622,3.622,0,0,1,.24-.43,8.419,8.419,0,0,1,.45-.76,4.868,4.868,0,0,1,.32-.52,5.91,5.91,0,0,1,.35-.52c.13-.2.27-.4.41-.6s.29-.4.45-.59c.11-.16.23-.31.36-.47q.405-.51.84-.99c.3-.34.61-.68.93-1l.08-.08.02-.02-9.322-9.312-.228-.228-.01.01a38.975,38.975,0,0,0-11.431,28.172H91.086q-.022-1.2.064-2.392" fill="#eb5c19"/>
      <path id="Path_1173" data-name="Path 1173" d="M144.33,260.455l-9.55-9.54-.01.01c-.46.46-.94.91-1.43,1.32-.21.19-.42.36-.63.53-.18.14-.36.29-.54.42s-.37.28-.56.41c-.17.13-.33.24-.5.35-.22.16-.44.3-.67.44-.12.09-.24.16-.37.24-.26.16-.53.32-.8.47-.18.1-.35.2-.53.29-.33.18-.67.35-1,.51q-.54.255-1.08.48c-.5.22-1,.41-1.51.59-.22.07-.44.15-.66.22-.05.01-.09.03-.14.04-.31.1-.61.19-.92.27-.02.01-.05.01-.07.02l-.82.21c-.68.16-1.37.29-2.06.4-.25.03-.49.07-.74.09s-.49.06-.73.08c-.3.03-.61.05-.91.07-.477.027-.955.037-1.433.037v13.494a39,39,0,0,0,27.643-11.431Z" fill="#eb5c19"/>
      <path id="Path_1174" data-name="Path 1174" d="M98.57,214.7h0l-9.322-9.312Z" fill="#eb5c19"/>
      <path id="Path_1175" data-name="Path 1175" d="M368.331,251.132l9.333,9.323-.02.02c-.074.074-.152.142-.227.215l.229.229.02-.02a38.979,38.979,0,0,0,11.45-27.562H375.608a25.532,25.532,0,0,1-7.277,17.795" fill="#ff813e"/>
      <path id="Path_1176" data-name="Path 1176" d="M331.9,214.7h0l-.02.02-.08.08c-.047.047-.089.1-.136.146l.218.217.02-.02a25.52,25.52,0,0,1,18.094-7.5V194.152a38.986,38.986,0,0,0-27.418,11.231Z" fill="#ff813e"/>
      <path id="Path_1177" data-name="Path 1177" d="M368.116,215.139a25.518,25.518,0,0,1,7.493,18.2h13.507A39.086,39.086,0,0,0,350,194.153v13.486a25.523,25.523,0,0,1,18.116,7.5" fill="#ff813e"/>
      <path id="Path_1178" data-name="Path 1178" d="M395.024,277.855A63.26,63.26,0,0,1,350,296.6h0v53.19h0a116.243,116.243,0,0,0,82.408-34.1l-37.171-37.61Z" fill="#4bb0d9"/>
      <path id="Path_1179" data-name="Path 1179" d="M286.524,233.115a63.26,63.26,0,0,1,18.6-44.88L267.88,150.7c-.074.073-.151.144-.224.217l0-.443.226.226-.226-.226a116.29,116.29,0,0,0-34.32,82.64c0,.074,0,.148,0,.222H286.53c0-.075-.006-.148-.006-.222" fill="#4bb0d9"/>
      <path id="Path_1180" data-name="Path 1180" d="M286.53,233.337H233.337A116.668,116.668,0,0,0,350,349.785V296.6a63.475,63.475,0,0,1-63.47-63.258" fill="#4bb0d9"/>
      <path id="Path_1181" data-name="Path 1181" d="M305.121,188.235c.049-.049.1-.1.144-.15L267.88,150.7Z" fill="#4bb0d9"/>
      <path id="Path_1182" data-name="Path 1182" d="M267.656,150.919l.224-.218-.226-.225Z" fill="#4bb0d9"/>
      <path id="Path_1183" data-name="Path 1183" d="M368.114,250.915l-.01.01c-.46.46-.94.91-1.43,1.32-.21.19-.42.36-.63.53-.18.14-.36.29-.54.42s-.37.28-.56.41c-.17.13-.33.24-.5.35-.22.16-.44.3-.67.44-.12.09-.24.16-.37.24-.26.16-.53.32-.8.47-.18.1-.35.2-.53.29-.33.18-.67.35-1,.51q-.54.255-1.08.48c-.5.22-1,.41-1.51.59-.22.07-.44.15-.66.22-.05.01-.09.03-.14.04-.31.1-.61.19-.92.27-.02.01-.05.01-.07.02l-.82.21c-.68.16-1.37.29-2.06.4-.25.03-.49.07-.74.09s-.49.06-.73.08c-.3.03-.61.05-.91.07-.478.027-.956.037-1.434.037v13.494a39,39,0,0,0,27.644-11.431l.02-.02Z" fill="#eb5c19"/>
      <path id="Path_1184" data-name="Path 1184" d="M324.484,230.945a.862.862,0,0,1,.01-.16c.02-.27.05-.55.07-.82.01-.04.01-.08.02-.12a26.332,26.332,0,0,1,1-4.71c.01-.05.03-.09.04-.14.06-.22.14-.45.22-.66q.225-.645.48-1.29c.16-.38.33-.76.5-1.13.1-.2.19-.4.3-.6.1-.22.21-.43.33-.64a3.619,3.619,0,0,1,.24-.43,8.419,8.419,0,0,1,.45-.76,4.867,4.867,0,0,1,.32-.52,5.913,5.913,0,0,1,.35-.52c.13-.2.27-.4.41-.6s.29-.4.45-.59c.11-.16.23-.31.36-.47q.4-.51.84-.99c.3-.34.61-.68.93-1l.08-.08.02-.02-9.322-9.312-.228-.228-.01.01a38.975,38.975,0,0,0-11.431,28.172H324.42q-.023-1.2.064-2.392" fill="#eb5c19"/>
      <path id="Path_1185" data-name="Path 1185" d="M350,271.906V258.412a25.557,25.557,0,0,1-25.579-25.075H310.913A39.085,39.085,0,0,0,350,271.906" fill="#eb5c19"/>
      <path id="Path_1186" data-name="Path 1186" d="M331.9,214.7h0l-9.322-9.312Z" fill="#eb5c19"/>
      <path id="Path_1187" data-name="Path 1187" d="M565.238,214.7h0l-.02.02-.08.08c-.047.047-.089.1-.136.146l.218.217.02-.02a25.522,25.522,0,0,1,18.093-7.5V194.152a38.985,38.985,0,0,0-27.417,11.231Z" fill="#ff813e"/>
      <path id="Path_1188" data-name="Path 1188" d="M601.45,215.139a25.518,25.518,0,0,1,7.493,18.2H622.45a39.086,39.086,0,0,0-39.117-39.184v13.486a25.524,25.524,0,0,1,18.117,7.5" fill="#ff813e"/>
      <path id="Path_1189" data-name="Path 1189" d="M601.666,251.132,611,260.455l-.02.02c-.074.074-.152.142-.227.215l.229.229.02-.02a38.979,38.979,0,0,0,11.45-27.562H608.943a25.533,25.533,0,0,1-7.277,17.795" fill="#ff813e"/>
      <path id="Path_1190" data-name="Path 1190" d="M519.864,233.337H466.671A116.669,116.669,0,0,0,583.333,349.785V296.6a63.475,63.475,0,0,1-63.469-63.258" fill="#4bb0d9"/>
      <path id="Path_1191" data-name="Path 1191" d="M519.858,233.115a63.26,63.26,0,0,1,18.6-44.88L501.214,150.7c-.074.073-.151.144-.224.217l0-.443.226.226-.226-.226a116.29,116.29,0,0,0-34.32,82.64c0,.074,0,.148,0,.222h53.193c0-.075-.006-.148-.006-.222" fill="#4bb0d9"/>
      <path id="Path_1192" data-name="Path 1192" d="M583.338,296.6h-.005v53.19h.005a116.243,116.243,0,0,0,82.408-34.1l-37.171-37.61-.217-.217a63.26,63.26,0,0,1-45.02,18.74" fill="#4bb0d9"/>
      <path id="Path_1193" data-name="Path 1193" d="M538.455,188.235c.049-.049.095-.1.144-.15L501.214,150.7Z" fill="#4bb0d9"/>
      <path id="Path_1194" data-name="Path 1194" d="M665.968,315.465l-37.393-37.393,37.171,37.61c.074-.073.149-.144.222-.217" fill="#4bb0d9"/>
      <path id="Path_1195" data-name="Path 1195" d="M500.99,150.919c.074-.073.15-.145.224-.218l-.226-.225Z" fill="#4bb0d9"/>
      <path id="Path_1196" data-name="Path 1196" d="M565.238,250.915a25.509,25.509,0,0,1-7.484-17.578H544.247a39.085,39.085,0,0,0,39.086,38.569V258.412a25.523,25.523,0,0,1-18.1-7.5" fill="#eb5c19"/>
      <path id="Path_1197" data-name="Path 1197" d="M557.818,230.945a.859.859,0,0,1,.01-.16c.02-.27.05-.55.07-.82.01-.04.01-.08.02-.12a26.327,26.327,0,0,1,1-4.71c.01-.05.03-.09.04-.14.06-.22.14-.45.22-.66q.225-.645.48-1.29c.16-.38.33-.76.5-1.13.1-.2.19-.4.3-.6.1-.22.21-.43.33-.64a3.611,3.611,0,0,1,.24-.43,8.412,8.412,0,0,1,.45-.76,4.861,4.861,0,0,1,.32-.52,5.92,5.92,0,0,1,.35-.52c.13-.2.27-.4.41-.6s.29-.4.45-.59c.11-.16.23-.31.36-.47q.405-.51.84-.99c.3-.34.61-.68.93-1l.08-.08.02-.02-9.322-9.312-.228-.228-.01.01a38.975,38.975,0,0,0-11.431,28.172h13.507q-.023-1.2.064-2.392" fill="#eb5c19"/>
      <path id="Path_1198" data-name="Path 1198" d="M601.448,250.915l-.01.01c-.46.46-.94.91-1.43,1.32-.21.19-.42.36-.63.53-.18.14-.36.29-.54.42s-.37.28-.56.41c-.17.13-.33.24-.5.35-.22.16-.44.3-.67.44-.12.09-.24.16-.37.24-.26.16-.53.32-.8.47-.18.1-.35.2-.53.29-.33.18-.67.35-1,.51q-.54.255-1.08.48c-.5.22-1,.41-1.51.59-.22.07-.44.15-.66.22-.05.01-.09.03-.14.04-.31.1-.61.19-.92.27-.02.01-.05.01-.07.02l-.82.21c-.68.16-1.37.29-2.06.4-.25.03-.49.07-.74.09s-.49.06-.73.08c-.3.03-.61.05-.91.07-.478.027-.957.037-1.435.037v13.494a39,39,0,0,0,27.645-11.431l.02-.02Z" fill="#eb5c19"/>
      <path id="Path_1199" data-name="Path 1199" d="M565.238,214.7h0l-9.322-9.312Z" fill="#eb5c19"/>
      <path id="Path_1200" data-name="Path 1200" d="M134.782,448.254a25.519,25.519,0,0,1,7.489,18.417h13.506a39.08,39.08,0,0,0-39.11-39.4v13.486a25.525,25.525,0,0,1,18.115,7.5" fill="#ff813e"/>
      <path id="Path_1201" data-name="Path 1201" d="M135,484.247l9.333,9.323-.02.02c-.074.074-.152.142-.227.215l.229.229.02-.02a38.98,38.98,0,0,0,11.445-27.344H142.27A25.523,25.523,0,0,1,135,484.247" fill="#ff813e"/>
      <path id="Path_1202" data-name="Path 1202" d="M98.57,447.81h0l-.02.02-.08.08c-.047.047-.089.1-.136.146l.218.217.02-.02a25.522,25.522,0,0,1,18.1-7.5V427.267A38.99,38.99,0,0,0,89.248,438.5Z" fill="#ff813e"/>
      <path id="Path_1203" data-name="Path 1203" d="M199.078,548.8l-37.172-37.611-.216-.216a63.26,63.26,0,0,1-45.02,18.74h0V582.9h0a116.243,116.243,0,0,0,82.408-34.1" fill="#4bb0d9"/>
      <path id="Path_1204" data-name="Path 1204" d="M53.2,466.67c0-.147-.011-.293-.011-.44a63.26,63.26,0,0,1,18.6-44.88L34.545,383.815c-.074.074-.15.145-.223.218l0-.443.225.225-.225-.225A116.29,116.29,0,0,0,0,466.23c0,.147,0,.293,0,.44Z" fill="#4bb0d9"/>
      <path id="Path_1205" data-name="Path 1205" d="M53.2,466.67H0A116.668,116.668,0,0,0,116.667,582.9V529.71A63.473,63.473,0,0,1,53.2,466.67" fill="#4bb0d9"/>
      <path id="Path_1206" data-name="Path 1206" d="M161.907,511.187,199.079,548.8c.073-.073.148-.144.221-.218Z" fill="#4bb0d9"/>
      <path id="Path_1207" data-name="Path 1207" d="M34.546,383.816h0L71.787,421.35c.049-.049.094-.1.143-.15Z" fill="#4bb0d9"/>
      <path id="Path_1208" data-name="Path 1208" d="M34.322,384.034l.224-.218-.226-.225Z" fill="#4bb0d9"/>
      <path id="Path_1209" data-name="Path 1209" d="M144.33,493.57l-9.55-9.54-.01.01c-.46.46-.94.91-1.43,1.32-.21.19-.42.36-.63.53-.18.14-.36.29-.54.42s-.37.28-.56.41c-.17.13-.33.24-.5.35-.22.16-.44.3-.67.44-.12.09-.24.16-.37.24-.26.16-.53.32-.8.47-.18.1-.35.2-.53.29-.33.18-.67.35-1,.51q-.54.255-1.08.48c-.5.22-1,.41-1.51.59-.22.07-.44.15-.66.22-.05.01-.09.03-.14.04-.31.1-.61.19-.92.27-.02.01-.05.01-.07.02l-.82.21c-.68.16-1.37.29-2.06.4-.25.03-.49.07-.74.09s-.49.06-.73.08c-.3.03-.61.05-.91.07-.477.027-.955.037-1.433.037v13.494A39,39,0,0,0,144.31,493.59Z" fill="#eb5c19"/>
      <path id="Path_1210" data-name="Path 1210" d="M91.15,464.06a.86.86,0,0,1,.01-.16c.02-.27.05-.55.07-.82.01-.04.01-.08.02-.12a26.335,26.335,0,0,1,1-4.71c.01-.05.03-.09.04-.14.06-.22.14-.45.22-.66q.225-.645.48-1.29c.16-.38.33-.76.5-1.13.1-.2.19-.4.3-.6.1-.22.21-.43.33-.64a3.624,3.624,0,0,1,.24-.43,8.421,8.421,0,0,1,.45-.76,4.868,4.868,0,0,1,.32-.52,5.912,5.912,0,0,1,.35-.52c.13-.2.27-.4.41-.6s.29-.4.45-.59c.11-.16.23-.31.36-.47q.405-.51.84-.99c.3-.34.61-.68.93-1l.08-.08.02-.02L89.248,438.5l-.228-.228-.01.01a38.982,38.982,0,0,0-11.426,28.39H91.091a25.542,25.542,0,0,1,.059-2.61" fill="#eb5c19"/>
      <path id="Path_1211" data-name="Path 1211" d="M98.57,484.03a25.51,25.51,0,0,1-7.479-17.36H77.584a39.082,39.082,0,0,0,39.083,38.351V491.527a25.526,25.526,0,0,1-18.1-7.5" fill="#eb5c19"/>
      <path id="Path_1212" data-name="Path 1212" d="M98.57,447.81h0L89.248,438.5Z" fill="#eb5c19"/>
      <path id="Path_1213" data-name="Path 1213" d="M331.9,447.81h0l-.02.02-.08.08c-.047.047-.089.1-.136.146l.218.217.02-.02a25.52,25.52,0,0,1,18.094-7.5V427.267A38.986,38.986,0,0,0,322.582,438.5Z" fill="#ff813e"/>
      <path id="Path_1214" data-name="Path 1214" d="M368.116,448.254a25.519,25.519,0,0,1,7.489,18.417h13.506A39.08,39.08,0,0,0,350,427.268v13.486a25.523,25.523,0,0,1,18.116,7.5" fill="#ff813e"/>
      <path id="Path_1215" data-name="Path 1215" d="M368.331,484.247l9.333,9.323-.02.02c-.074.074-.152.142-.227.215l.229.229.02-.02a38.98,38.98,0,0,0,11.445-27.344H375.6a25.523,25.523,0,0,1-7.273,17.577" fill="#ff813e"/>
      <path id="Path_1216" data-name="Path 1216" d="M267.656,384.034l.224-.218-.226-.225Z" fill="#4bb0d9"/>
      <path id="Path_1217" data-name="Path 1217" d="M350,505.021V491.527a25.561,25.561,0,0,1-25.575-24.857H310.918A39.082,39.082,0,0,0,350,505.021" fill="#eb5c19"/>
      <path id="Path_1218" data-name="Path 1218" d="M324.484,464.06a.862.862,0,0,1,.01-.16c.02-.27.05-.55.07-.82.01-.04.01-.08.02-.12a26.332,26.332,0,0,1,1-4.71c.01-.05.03-.09.04-.14.06-.22.14-.45.22-.66q.225-.645.48-1.29c.16-.38.33-.76.5-1.13.1-.2.19-.4.3-.6.1-.22.21-.43.33-.64a3.622,3.622,0,0,1,.24-.43,8.421,8.421,0,0,1,.45-.76,4.867,4.867,0,0,1,.32-.52,5.915,5.915,0,0,1,.35-.52c.13-.2.27-.4.41-.6s.29-.4.45-.59c.11-.16.23-.31.36-.47q.4-.51.84-.99c.3-.34.61-.68.93-1l.08-.08.02-.02-9.322-9.312-.228-.228-.01.01a38.982,38.982,0,0,0-11.426,28.39h13.507a25.546,25.546,0,0,1,.059-2.61" fill="#eb5c19"/>
      <path id="Path_1219" data-name="Path 1219" d="M368.114,484.03l-.01.01c-.46.46-.94.91-1.43,1.32-.21.19-.42.36-.63.53-.18.14-.36.29-.54.42s-.37.28-.56.41c-.17.13-.33.24-.5.35-.22.16-.44.3-.67.44-.12.09-.24.16-.37.24-.26.16-.53.32-.8.47-.18.1-.35.2-.53.29-.33.18-.67.35-1,.51q-.54.255-1.08.48c-.5.22-1,.41-1.51.59-.22.07-.44.15-.66.22-.05.01-.09.03-.14.04-.31.1-.61.19-.92.27-.02.01-.05.01-.07.02l-.82.21c-.68.16-1.37.29-2.06.4-.25.03-.49.07-.74.09s-.49.06-.73.08c-.3.03-.61.05-.91.07-.478.027-.956.037-1.434.037v13.494a39,39,0,0,0,27.644-11.431l.02-.02Z" fill="#eb5c19"/>
      <path id="Path_1220" data-name="Path 1220" d="M331.9,447.81h0l-9.322-9.312Z" fill="#eb5c19"/>
      <path id="Path_1221" data-name="Path 1221" d="M565.238,447.81h0l-.02.02-.08.08c-.047.047-.089.1-.136.146l.218.217.02-.02a25.522,25.522,0,0,1,18.093-7.5V427.267A38.985,38.985,0,0,0,555.916,438.5Z" fill="#ff813e"/>
      <path id="Path_1222" data-name="Path 1222" d="M601.45,448.254a25.519,25.519,0,0,1,7.489,18.417h13.506a39.08,39.08,0,0,0-39.112-39.4v13.486a25.524,25.524,0,0,1,18.117,7.5" fill="#ff813e"/>
      <path id="Path_1223" data-name="Path 1223" d="M601.666,484.247,611,493.57l-.02.02c-.074.074-.152.142-.227.215l.229.229.02-.02a38.98,38.98,0,0,0,11.445-27.344H608.939a25.523,25.523,0,0,1-7.273,17.577" fill="#ff813e"/>
      <path id="Path_1224" data-name="Path 1224" d="M500.99,384.034c.074-.073.15-.145.224-.218l-.226-.225Z" fill="#4bb0d9"/>
      <path id="Path_1225" data-name="Path 1225" d="M557.818,464.06a.86.86,0,0,1,.01-.16c.02-.27.05-.55.07-.82.01-.04.01-.08.02-.12a26.327,26.327,0,0,1,1-4.71c.01-.05.03-.09.04-.14.06-.22.14-.45.22-.66q.225-.645.48-1.29c.16-.38.33-.76.5-1.13.1-.2.19-.4.3-.6.1-.22.21-.43.33-.64a3.613,3.613,0,0,1,.24-.43,8.414,8.414,0,0,1,.45-.76,4.861,4.861,0,0,1,.32-.52,5.923,5.923,0,0,1,.35-.52c.13-.2.27-.4.41-.6s.29-.4.45-.59c.11-.16.23-.31.36-.47q.405-.51.84-.99c.3-.34.61-.68.93-1l.08-.08.02-.02-9.322-9.312-.228-.228-.01.01a38.982,38.982,0,0,0-11.426,28.39h13.507a25.546,25.546,0,0,1,.059-2.61" fill="#eb5c19"/>
      <path id="Path_1226" data-name="Path 1226" d="M565.238,484.03a25.51,25.51,0,0,1-7.479-17.36H544.252a39.082,39.082,0,0,0,39.081,38.351V491.527a25.524,25.524,0,0,1-18.1-7.5" fill="#eb5c19"/>
      <path id="Path_1227" data-name="Path 1227" d="M601.448,484.03l-.01.01c-.46.46-.94.91-1.43,1.32-.21.19-.42.36-.63.53-.18.14-.36.29-.54.42s-.37.28-.56.41c-.17.13-.33.24-.5.35-.22.16-.44.3-.67.44-.12.09-.24.16-.37.24-.26.16-.53.32-.8.47-.18.1-.35.2-.53.29-.33.18-.67.35-1,.51q-.54.255-1.08.48c-.5.22-1,.41-1.51.59-.22.07-.44.15-.66.22-.05.01-.09.03-.14.04-.31.1-.61.19-.92.27-.02.01-.05.01-.07.02l-.82.21c-.68.16-1.37.29-2.06.4-.25.03-.49.07-.74.09s-.49.06-.73.08c-.3.03-.61.05-.91.07-.478.027-.957.037-1.435.037v13.494a39,39,0,0,0,27.645-11.431l.02-.02Z" fill="#eb5c19"/>
      <path id="Path_1228" data-name="Path 1228" d="M565.238,447.81h0l-9.322-9.312Z" fill="#eb5c19"/>
      <path id="Path_1229" data-name="Path 1229" d="M123.726,583.337c-2.334-.139-4.685-.218-7.054-.218h0v.218Z" fill="#ff813e"/>
      <line id="Line_1" data-name="Line 1" y1="0.218" transform="translate(116.667 583.119)" fill="#ff813e"/>
      <path id="Path_1230" data-name="Path 1230" d="M135.577,639.172a63.644,63.644,0,0,1,41.781,41.961A26.37,26.37,0,0,0,202.472,700h1.058c17.258,0,29.96-16.525,25.107-33.086A117.332,117.332,0,0,0,150.52,588.3a26.313,26.313,0,0,0-33.854,25.238v.37a26.568,26.568,0,0,0,18.911,25.262" fill="#ff813e"/>
      <path id="Path_1231" data-name="Path 1231" d="M34.322,617.149l.224-.218-.226-.225Z" fill="#4bb0d9"/>
      <path id="Path_1232" data-name="Path 1232" d="M350,583.337v-.218c-2.367,0-4.715.079-7.047.218Z" fill="#ff813e"/>
      <path id="Path_1233" data-name="Path 1233" d="M357.06,583.337c-2.334-.139-4.685-.218-7.054-.218H350v.218Z" fill="#ff813e"/>
      <path id="Path_1234" data-name="Path 1234" d="M289.313,719.551c11.351,35.8,56.878,54.937,90.36,37.3a26.985,26.985,0,0,1,31.751,4.576c12.654,12.654,9.909,34.569-6.146,42.473-65.333,32.161-147.118-1.617-167.243-68.82a26.789,26.789,0,0,1,51.278-15.53" fill="#ff813e"/>
      <path id="Path_1235" data-name="Path 1235" d="M267.656,617.149l.224-.218-.226-.225Z" fill="#4bb0d9"/>
      <path id="Path_1236" data-name="Path 1236" d="M583.333,583.337v-.218c-2.366,0-4.714.079-7.046.218Z" fill="#ff813e"/>
      <path id="Path_1237" data-name="Path 1237" d="M590.394,583.337c-2.334-.139-4.685-.218-7.054-.218h-.007v.218Z" fill="#ff813e"/>
      <path id="Path_1238" data-name="Path 1238" d="M479.723,754.08a115.961,115.961,0,0,1-13.053-47.026v-14.11a116.676,116.676,0,0,1,116.45-109.61c.07,0,.14.01.21.01a116.09,116.09,0,0,1,53.885,13.268,26.6,26.6,0,0,1-24.634,47.157,63.2,63.2,0,0,0-29.251-7.235c-.07,0-.14-.01-.21-.01a63.477,63.477,0,0,0-63.48,63.47V700a63.636,63.636,0,0,0,7.207,29.592,26.553,26.553,0,0,1-47.124,24.484" fill="#ff813e"/>
      <path id="Path_1239" data-name="Path 1239" d="M500.99,617.149c.074-.073.15-.145.224-.218l-.226-.225Z" fill="#4bb0d9"/>
      <path id="Path_1240" data-name="Path 1240" d="M126.735,816.67c-3.317-.284-6.672-.437-10.063-.437h0v.437Z" fill="#ff813e"/>
      <path id="Path_1241" data-name="Path 1241" d="M116.667,816.234c-3.388,0-6.741.153-10.056.437h10.056Z" fill="#ff813e"/>
      <path id="Path_1242" data-name="Path 1242" d="M34.322,850.263l.224-.218-.226-.225Z" fill="#ff813e"/>
      <path id="Path_1243" data-name="Path 1243" d="M267.656,850.263l.224-.218-.226-.225Z" fill="#4bb0d9"/>
      <path id="Path_1244" data-name="Path 1244" d="M583.333,816.67v-.437c-3.388,0-6.74.154-10.054.437Z" fill="#ff813e"/>
      <path id="Path_1245" data-name="Path 1245" d="M593.4,816.67c-3.317-.284-6.672-.437-10.063-.437h-.007v.437Z" fill="#ff813e"/>
      <path id="Path_1246" data-name="Path 1246" d="M500.99,850.263l.224-.218-.226-.225Z" fill="#4bb0d9"/>
      <path id="Path_1247" data-name="Path 1247" d="M142.272,700A25.605,25.605,0,1,1,116.667,674.4,25.605,25.605,0,0,1,142.272,700" fill="#008db2"/>
      <path id="Path_1248" data-name="Path 1248" d="M375.611,700a25.6,25.6,0,1,1-25.6-25.605A25.605,25.605,0,0,1,375.611,700" fill="#008db2"/>
      <path id="Path_1249" data-name="Path 1249" d="M608.95,700A25.605,25.605,0,1,1,583.345,674.4,25.605,25.605,0,0,1,608.95,700" fill="#008db2"/>
    </g>
  </g>
</svg>
