<svg xmlns="http://www.w3.org/2000/svg" xmlns:xlink="http://www.w3.org/1999/xlink" width="104.72" height="104.72" viewBox="0 0 104.72 104.72"><defs><clipPath id="a"><rect width="104.72" height="104.72" fill="none"/></clipPath><clipPath id="b"><path d="M3.911,52.238A47.869,47.869,0,1,0,51.78,4.369,47.869,47.869,0,0,0,3.911,52.238" transform="translate(-3.911 -4.369)" fill="none"/></clipPath></defs><g clip-path="url(#a)"><path d="M106.19,55.507A51.139,51.139,0,1,1,55.05,4.368,51.14,51.14,0,0,1,106.19,55.507" transform="translate(-2.848 -3.181)" fill="#a7a7a7"/></g><g transform="translate(3.911 4.369)"><g clip-path="url(#b)"><path d="M0,0V98.023H98.023Z" transform="translate(-0.995 -1.111)" fill="#9e9e9e"/></g></g><g clip-path="url(#a)"><path d="M145.327,117.962A27.825,27.825,0,1,1,117.5,90.137a27.825,27.825,0,0,1,27.825,27.825" transform="translate(-65.301 -65.635)" fill="#fff"/><path d="M134.015,133.962a17.141,17.141,0,1,0,24.241,0,17.141,17.141,0,0,0-24.241,0m20.058,20.058a11.225,11.225,0,1,1,0-15.875,11.225,11.225,0,0,1,0,15.875" transform="translate(-93.929 -93.891)" fill="#a7a7a7"/><path d="M154.072,167.468A11.225,11.225,0,0,1,138.2,151.593l-4.183-4.183a17.141,17.141,0,0,0,24.241,24.241Z" transform="translate(-93.929 -107.339)" fill="#838383"/><path d="M129.017,81.334a15.388,15.388,0,0,1,0-21.761,15.387,15.387,0,0,1,0,21.761" transform="translate(-90.664 -43.379)" fill="#9e9e9e"/><path d="M129.016,59.572a15.388,15.388,0,0,0,0,21.761Z" transform="translate(-90.663 -43.378)" fill="#787878"/></g></svg>