<svg xmlns="http://www.w3.org/2000/svg" xmlns:xlink="http://www.w3.org/1999/xlink" width="117.576" height="117.531" viewBox="0 0 117.576 117.531"><defs><clipPath id="a"><rect width="117.576" height="117.532" fill="none"/></clipPath></defs><g clip-path="url(#a)"><path d="M104.456,31.41,73.6.544,42.463,31.716V42.564L73.114,11.913a.68.68,0,0,1,.962-.007l.007.007,6.41,6.4L99.015,36.84Z" transform="translate(-21.231 -0.272)" fill="#fff"/><path d="M73.907,26.2,43.075,57.051,74.191,88.184h10.87L54.41,57.533a.679.679,0,0,1-.007-.962l.007-.007,6.4-6.41L79.348,31.632Z" transform="translate(-21.537 -13.098)" fill="#fff"/><path d="M110.168,31.631l-5.441-5.436Z" transform="translate(-52.364 -13.097)" fill="#fff"/><path d="M68.658,76.745,99.507,107.6,130.68,76.456V65.586L100.023,96.243a.663.663,0,0,1-.482.2.673.673,0,0,1-.487-.2l-6.4-6.411L74.093,71.31Z" transform="translate(-34.329 -32.793)" fill="#fff"/><path d="M119.2,61.993l30.849-30.855L118.926,0H108.049l30.656,30.651a.686.686,0,0,1,0,.97L113.768,56.558Z" transform="translate(-54.025)" fill="#fff"/><path d="M13.257,201.009h-9.8V177.25a3.134,3.134,0,0,0-1.015-2.108A3.118,3.118,0,0,0,0,174.28v30.255H16.777a4.065,4.065,0,0,0-1.134-2.551,3.921,3.921,0,0,0-2.385-.975" transform="translate(0 -87.134)" fill="#fff"/><path d="M55.733,185.218A12.675,12.675,0,0,0,46,181.171a12.932,12.932,0,0,0-9.5,3.934,13.172,13.172,0,0,0-3.882,9.55,12.976,12.976,0,0,0,3.848,9.493,12.5,12.5,0,0,0,9.278,3.967A13.582,13.582,0,0,0,56.028,203.8v4.211h3.457V194.847a12.758,12.758,0,0,0-3.752-9.63M54.94,200a9.528,9.528,0,0,1-3.729,3.69,10.249,10.249,0,0,1-5.1,1.366,10.661,10.661,0,0,1-8.83-5.038,11.181,11.181,0,0,1-1.456-5.373,10.021,10.021,0,0,1,1.394-5.067,10.451,10.451,0,0,1,3.837-3.877,9.4,9.4,0,0,1,4.965-1.185A10.2,10.2,0,0,1,56.26,194.677v.085A10.542,10.542,0,0,1,54.94,200" transform="translate(-16.309 -90.585)" fill="#fff"/><path d="M100.024,181.535v-7.277h-3.4v7.26H92.44v3.219h4.149v19.837a1.335,1.335,0,0,0,.34,0h3.083v-3.208a2.324,2.324,0,0,0,0-.6V184.755h4.166V181.53h-4.155Z" transform="translate(-46.22 -87.129)" fill="#fff"/><path d="M136.19,177.715a13.308,13.308,0,0,0-5.815,1.19,14.118,14.118,0,0,0-4.891,3.633l.04-8.281h-3.072v16.907a12.326,12.326,0,0,0,1.9,6.9,13.76,13.76,0,0,0,11.732,6.54,12.645,12.645,0,0,0,9.335-3.928,13.036,13.036,0,0,0,3.877-9.482,13.6,13.6,0,0,0-13.1-13.484m8.6,18.539a10.573,10.573,0,0,1-3.9,3.848,9.916,9.916,0,0,1-5.072,1.355,10.022,10.022,0,0,1-7.368-3.01,9.442,9.442,0,0,1-2.97-7.272,8.972,8.972,0,0,1,2.318-6.353,10.1,10.1,0,0,1,8.048-3.764,10.354,10.354,0,0,1,7.243,3.083,10.644,10.644,0,0,1,1.672,12.112Z" transform="translate(-61.224 -87.129)" fill="#fff"/><path d="M206.319,201.649a3.166,3.166,0,0,0-1.27.527,10.729,10.729,0,0,1-7.759,2.88,11.289,11.289,0,0,1-5.56-1.366,9.952,9.952,0,0,1-3.9-3.832A10.371,10.371,0,0,1,186.4,194.6a9.836,9.836,0,0,1,3.089-7.311,10.7,10.7,0,0,1,7.771-3.01A11.494,11.494,0,0,1,204.806,187a3.289,3.289,0,0,0,1.661.822,3.547,3.547,0,0,0,2.641-.674,11.027,11.027,0,0,0-2.794-3.18,13.719,13.719,0,0,0-4.013-2.017,15.514,15.514,0,0,0-4.908-.783,15.044,15.044,0,0,0-7.317,1.791,13.185,13.185,0,0,0-5.141,4.977,13.4,13.4,0,0,0-1.871,6.9,12.549,12.549,0,0,0,4,9.369,13.825,13.825,0,0,0,10.066,3.854,15.762,15.762,0,0,0,7.051-1.519,12.4,12.4,0,0,0,4.925-4.29,3.642,3.642,0,0,0-2.788-.606" transform="translate(-91.532 -90.585)" fill="#fff"/></g></svg>