<svg xmlns="http://www.w3.org/2000/svg" width="91.924" height="91.924" viewBox="0 0 91.924 91.924"><g transform="translate(-1091.538 -477.796)"><g transform="translate(1137.5 477.796) rotate(45)"><g style="isolation:isolate"><g fill="none" style="isolation:isolate"><path d="M0,32.5A32.5,32.5,0,1,1,32.5,65,32.5,32.5,0,0,1,0,32.5Z" stroke="none"/><path d="M 32.49993896484375 1 C 28.24702835083008 1 24.12186813354492 1.832710266113281 20.23904037475586 3.475009918212891 C 16.4881706237793 5.061489105224609 13.11932754516602 7.332889556884766 10.22610855102539 10.22610855102539 C 7.332889556884766 13.11932754516602 5.061489105224609 16.4881706237793 3.475009918212891 20.23904037475586 C 1.832710266113281 24.12186813354492 1 28.24702835083008 1 32.49993896484375 C 1 36.7528076171875 1.832710266113281 40.87794876098633 3.475009918212891 44.76076889038086 C 5.061489105224609 48.51163864135742 7.332889556884766 51.88047790527344 10.22610855102539 54.77370834350586 C 13.11933898925781 57.66693878173828 16.4881706237793 59.93835830688477 20.23904037475586 61.52484893798828 C 24.12186813354492 63.16716003417969 28.24703979492188 63.9998779296875 32.49993896484375 63.9998779296875 C 36.7528076171875 63.9998779296875 40.87794876098633 63.16716003417969 44.76076889038086 61.52484893798828 C 48.51162719726562 59.93834686279297 51.88047027587891 57.66693878173828 54.77370834350586 54.77370834350586 C 57.66693878173828 51.88047027587891 59.93834686279297 48.51162719726562 61.52484893798828 44.76076889038086 C 63.16716003417969 40.87794876098633 63.9998779296875 36.7528076171875 63.9998779296875 32.49993896484375 C 63.9998779296875 28.24703979492188 63.16716003417969 24.12186813354492 61.52484893798828 20.23904037475586 C 59.93835830688477 16.4881706237793 57.66693878173828 13.11933898925781 54.77370834350586 10.22610855102539 C 51.88047790527344 7.332889556884766 48.51163864135742 5.061489105224609 44.76076889038086 3.475009918212891 C 40.87794876098633 1.832710266113281 36.7528076171875 1 32.49993896484375 1 M 32.49993896484375 0 C 50.44902038574219 0 64.9998779296875 14.55069732666016 64.9998779296875 32.49993896484375 C 64.9998779296875 50.44902038574219 50.44902038574219 64.9998779296875 32.49993896484375 64.9998779296875 C 14.55069732666016 64.9998779296875 0 50.44902038574219 0 32.49993896484375 C 0 14.55069732666016 14.55069732666016 0 32.49993896484375 0 Z" stroke="none" fill="rgba(0,0,0,0.24)"/></g><g transform="translate(25.626 17.439) rotate(45)" style="isolation:isolate"><g style="isolation:isolate"><path d="M28.98,6.454,24.8,10.638l.94.94,5.789-5.789L25.736,0,24.8.94,28.98,5.124H0v1.33Z" stroke="none"/><path d="M 25.73575210571289 11.57834053039551 L 24.79559135437012 10.63818073272705 L 28.97972106933594 6.454050540924072 L 1.171875055661076e-06 6.454050540924072 L 1.171875055661076e-06 5.124290943145752 L 28.97972106933594 5.124290943145752 L 24.79559135437012 0.9401507377624512 L 25.73575210571289 7.420348993036896e-07 L 31.52490043640137 5.789150714874268 L 25.73575210571289 11.57834053039551 Z" stroke="none" fill="rgba(0,0,0,0.24)"/></g></g></g></g><circle cx="41" cy="41" r="41" transform="translate(1096 483.258)" fill="none"/></g></svg>