<svg id="Layer_2" data-name="Layer 2" xmlns="http://www.w3.org/2000/svg" width="21.325" height="21.325" viewBox="0 0 21.325 21.325">
  <path id="Trazado_62" data-name="Trazado 62" d="M11.913,22.575A10.663,10.663,0,1,1,22.575,11.913,10.663,10.663,0,0,1,11.913,22.575Zm0-19.837a9.175,9.175,0,1,0,9.175,9.175,9.175,9.175,0,0,0-9.175-9.175Z" transform="translate(-1.25 -1.25)" fill="#fff"/>
  <path id="Trazado_63" data-name="Trazado 63" d="M11.961,22.575c-3.06,0-4.711-5.494-4.711-10.663S8.9,1.25,11.961,1.25s4.711,5.494,4.711,10.663S15.021,22.575,11.961,22.575Zm0-19.837c-1.522,0-3.224,3.924-3.224,9.175s1.7,9.175,3.224,9.175,3.224-3.924,3.224-9.175S13.483,2.738,11.961,2.738Z" transform="translate(-1.299 -1.25)" fill="#fff"/>
  <path id="Trazado_64" data-name="Trazado 64" d="M11.937,7.719a12.835,12.835,0,0,1-3.527-.5A11.822,11.822,0,0,1,4.641,5.37a.744.744,0,1,1,.885-1.19A10.367,10.367,0,0,0,8.822,5.8a11.38,11.38,0,0,0,6.234,0,10.359,10.359,0,0,0,3.293-1.619.744.744,0,1,1,.885,1.2,11.815,11.815,0,0,1-3.769,1.853,12.835,12.835,0,0,1-3.527.495Z" transform="translate(-1.275 -1.272)" fill="#fff"/>
  <path id="Trazado_65" data-name="Trazado 65" d="M18.79,19.94a.743.743,0,0,1-.441-.146,10.367,10.367,0,0,0-3.3-1.62,11.38,11.38,0,0,0-6.234,0,10.359,10.359,0,0,0-3.293,1.619.744.744,0,1,1-.885-1.2A11.815,11.815,0,0,1,8.41,16.745a12.869,12.869,0,0,1,7.057,0A11.822,11.822,0,0,1,19.237,18.6a.743.743,0,0,1-.443,1.341Z" transform="translate(-1.275 -1.372)" fill="#fff"/>
  <path id="Trazado_66" data-name="Trazado 66" d="M21.831,12.738H1.994a.744.744,0,1,1,0-1.488H21.831a.744.744,0,1,1,0,1.488Z" transform="translate(-1.25 -1.331)" fill="#fff"/>
</svg>
