<svg id="email" xmlns="http://www.w3.org/2000/svg" width="21.325" height="21.325" viewBox="0 0 21.325 21.325">
  <path id="Trazado_60" data-name="Trazado 60" d="M18.784,6.016V2.583H14.2L10.662,0,7.127,2.583H2.541V6.016L0,7.891V21.326H21.325V7.891ZM8.33,15.6l-7.08,4.027V9.56Zm1.248.728h2.169l6.591,3.749H2.987ZM13,15.6l7.08-6.04V19.627Zm6.7-7.359-.912.778V7.569ZM10.662,1.548,12.08,2.583H9.245Zm6.872,2.285v6.252l-5.853,4.993H9.643L3.79,10.085V3.833ZM2.541,9.019l-.912-.778.912-.672Z" transform="translate(0 -0.001)" fill="#fff"/>
  <path id="Trazado_61" data-name="Trazado 61" d="M155.374,130.746a4.362,4.362,0,0,0,1.458-.249l-.416-1.178a3.124,3.124,0,1,1,2.082-2.946.625.625,0,1,1-1.25,0V124.5h-1.874a1.874,1.874,0,1,0,1.249,3.27,1.873,1.873,0,0,0,3.124-1.4,4.373,4.373,0,1,0-4.373,4.373Zm0-3.749a.625.625,0,0,1,0-1.25H156v.625A.625.625,0,0,1,155.374,127Z" transform="translate(-144.712 -116.918)" fill="#fff"/>
</svg>
