<svg xmlns="http://www.w3.org/2000/svg" width="22.365" height="20.425" viewBox="0 0 22.365 20.425">
  <g id="Grupo_11" data-name="Grupo 11" transform="translate(0)">
    <path id="Trazado_25" data-name="Trazado 25" d="M57.483,26.77c0-.1.013-.2.013-.3q0-7.041,0-14.082v-.3H61.8V14.02l.075.048a.9.9,0,0,1,.075-.14,4.916,4.916,0,0,1,4.1-2.015,13.75,13.75,0,0,1,2.043.1,4.946,4.946,0,0,1,3.985,4.2,6.875,6.875,0,0,1,.044.753q0,4.9,0,9.806h-4.32c0-.043.006-.086.006-.129q0-3.9,0-7.794a3.457,3.457,0,0,0-.093-.747,2.809,2.809,0,0,0-2.8-2.258,3.12,3.12,0,0,0-3.1,3.178q0,3.735,0,7.47c0,.093-.007.186-.01.28Z" transform="translate(-49.762 -6.345)" fill="#fff"/>
    <path id="Trazado_26" data-name="Trazado 26" d="M46.139,26.882c0-.094,0-.187,0-.281q0-7.05,0-14.1v-.3H50.5c0,.08.012.156.012.233q0,7.126,0,14.252c0,.065-.007.129-.011.194Z" transform="translate(-45.682 -6.457)" fill="#fff"/>
    <path id="Trazado_27" data-name="Trazado 27" d="M48.328,0c.151.04.3.075.452.12a2.641,2.641,0,0,1-.444,5.157,2.578,2.578,0,0,1-2.852-2.094,1.454,1.454,0,0,0-.05-.159V2.289c.017-.053.037-.105.05-.16A2.574,2.574,0,0,1,47.478.064L47.724,0Z" transform="translate(-45.434 0)" fill="#fff"/>
  </g>
</svg>
