<svg xmlns="http://www.w3.org/2000/svg" width="95.748" height="95.548" viewBox="0 0 95.748 95.548"><g transform="translate(-122.504 -6.588)"><path d="M0,21.748H0A15.924,15.924,0,0,0,15.924,37.672a15.925,15.925,0,1,1,0,31.85A15.925,15.925,0,1,0,31.85,85.446a15.924,15.924,0,0,1,31.848,0,15.926,15.926,0,0,0,15.926,15.926h.2a15.925,15.925,0,1,0,0-31.85h-.2a15.925,15.925,0,1,1,0-31.85h.2a15.924,15.924,0,1,0,0-31.848h-.2A15.924,15.924,0,0,0,63.7,21.748a15.924,15.924,0,1,1-31.848,0,15.925,15.925,0,0,0-31.85,0" transform="translate(122.504 0.764)" fill="#fff"/></g></svg>