<svg xmlns="http://www.w3.org/2000/svg" xmlns:xlink="http://www.w3.org/1999/xlink" width="624.926" height="803.197" viewBox="0 0 624.926 803.197">
  <defs>
    <clipPath id="clip-path">
      <rect id="Rectangle_80" data-name="Rectangle 80" width="624.926" height="803.197" fill="none"/>
    </clipPath>
  </defs>
  <g id="purple-pattern" clip-path="url(#clip-path)">
    <path id="Path_384" data-name="Path 384" d="M1950.907,83.763h0a44.3,44.3,0,0,0,44.343,44.257,44.257,44.257,0,1,1,0,88.514,44.257,44.257,0,1,0,44.342,44.257,44.343,44.343,0,0,1,88.685,0,44.3,44.3,0,0,0,44.343,44.257h.557a44.257,44.257,0,1,0,0-88.514h-.557a44.257,44.257,0,1,1,0-88.514h.557a44.258,44.258,0,1,0,0-88.515h-.557a44.3,44.3,0,0,0-44.343,44.257,44.343,44.343,0,0,1-88.685,0,44.343,44.343,0,0,0-88.685,0Z" transform="translate(-1326.155 -29.594)" fill="none" stroke="#9672ff" stroke-miterlimit="10" stroke-width="5"/>
    <path id="Path_385" data-name="Path 385" d="M1235.342,558.651h0a44.3,44.3,0,0,0,44.343,44.257,44.257,44.257,0,1,1,0,88.514,44.257,44.257,0,1,0,44.342,44.257,44.343,44.343,0,0,1,88.686,0,44.3,44.3,0,0,0,44.342,44.257h.557a44.257,44.257,0,1,0,0-88.514h-.557a44.257,44.257,0,1,1,0-88.514h.557a44.258,44.258,0,1,0,0-88.515h-.557a44.3,44.3,0,0,0-44.342,44.258,44.343,44.343,0,0,1-88.686,0,44.343,44.343,0,0,0-88.685,0Z" transform="translate(-1142.308 -152.285)" fill="none" stroke="#8bffc0" stroke-miterlimit="10" stroke-width="5"/>
    <path id="Path_386" data-name="Path 386" d="M1831.735,83.78h0a44.3,44.3,0,0,0,44.343,44.257,44.257,44.257,0,1,1,0,88.514,44.257,44.257,0,1,0,44.342,44.257,44.343,44.343,0,0,1,88.686,0,44.3,44.3,0,0,0,44.342,44.257h.557a44.257,44.257,0,1,0,0-88.514h-.557a44.257,44.257,0,1,1,0-88.514h.557a44.258,44.258,0,1,0,0-88.515h-.557a44.3,44.3,0,0,0-44.342,44.257,44.343,44.343,0,0,1-88.686,0,44.343,44.343,0,0,0-88.685,0Z" transform="translate(-1295.536 -29.598)" fill="none" stroke="#8bffc0" stroke-miterlimit="10" stroke-width="5"/>
    <path id="Path_387" data-name="Path 387" d="M1713.487,558.651h0a44.3,44.3,0,0,0,44.343,44.257,44.257,44.257,0,1,1,0,88.514,44.257,44.257,0,1,0,44.342,44.257,44.343,44.343,0,0,1,88.685,0,44.3,44.3,0,0,0,44.343,44.257h.557a44.257,44.257,0,1,0,0-88.514h-.557a44.257,44.257,0,1,1,0-88.514h.557a44.258,44.258,0,1,0,0-88.515h-.557a44.3,44.3,0,0,0-44.343,44.258,44.343,44.343,0,0,1-88.685,0,44.343,44.343,0,0,0-88.685,0Z" transform="translate(-1265.156 -152.285)" fill="none" stroke="#9672ff" stroke-miterlimit="10" stroke-width="5"/>
    <path id="Path_388" data-name="Path 388" d="M1116.544,314.677h0c0,24.854,19.853,45,44.343,45s44.342,20.147,44.342,45-19.853,45-44.342,45-44.343,20.147-44.343,45,19.853,45,44.343,45,44.342-20.148,44.342-45,19.853-45,44.343-45,44.343,20.147,44.343,45,19.853,45,44.342,45h.557c24.49,0,44.342-20.148,44.342-45s-19.853-45-44.342-45h-.557c-24.49,0-44.342-20.148-44.342-45s19.853-45,44.342-45h.557c24.49,0,44.342-20.147,44.342-45s-19.853-45-44.342-45h-.557c-24.49,0-44.342,20.148-44.342,45s-19.854,45-44.343,45-44.343-20.147-44.343-45-19.853-45-44.342-45S1116.544,289.824,1116.544,314.677Z" transform="translate(-1111.786 -89.06)" fill="none" stroke="#9672ff" stroke-miterlimit="10" stroke-width="5.042"/>
    <path id="Path_389" data-name="Path 389" d="M1832.31,321.463h0a44.3,44.3,0,0,0,44.343,44.257,44.257,44.257,0,1,1,0,88.514A44.257,44.257,0,1,0,1921,498.492a44.343,44.343,0,0,1,88.686,0,44.3,44.3,0,0,0,44.342,44.257h.557a44.257,44.257,0,1,0,0-88.514h-.557a44.257,44.257,0,1,1,0-88.514h.557a44.258,44.258,0,1,0,0-88.515h-.557a44.3,44.3,0,0,0-44.342,44.257,44.343,44.343,0,0,1-88.686,0,44.343,44.343,0,0,0-88.685,0Z" transform="translate(-1295.684 -91.006)" fill="none" stroke="#9672ff" stroke-miterlimit="10" stroke-width="5"/>
    <path id="Path_390" data-name="Path 390" d="M1474.789,678h0a44.3,44.3,0,0,0,44.343,44.257,44.3,44.3,0,0,1,44.342,44.257v88.192a44.3,44.3,0,0,1-44.342,44.257,44.3,44.3,0,0,0-44.343,44.257v.323a44.343,44.343,0,0,0,88.685,0v-.323a44.3,44.3,0,0,1,44.343-44.257,44.3,44.3,0,0,0,44.343-44.257V766.514a44.3,44.3,0,0,0-44.343-44.257A44.3,44.3,0,0,1,1563.474,678a44.343,44.343,0,0,0-88.685,0Z" transform="translate(-1203.828 -183.12)" fill="none" stroke="#9672ff" stroke-miterlimit="10" stroke-width="5"/>
    <path id="Path_391" data-name="Path 391" d="M1756.234,215.342h0a44.3,44.3,0,0,0,44.343-44.257,44.3,44.3,0,0,1,44.342-44.257h88.363a44.3,44.3,0,0,1,44.342,44.257,44.3,44.3,0,0,0,44.342,44.257h.324a44.257,44.257,0,1,0,0-88.514h-.324a44.3,44.3,0,0,1-44.342-44.257,44.3,44.3,0,0,0-44.342-44.257h-88.363a44.3,44.3,0,0,0-44.342,44.257,44.3,44.3,0,0,1-44.343,44.257,44.257,44.257,0,1,0,0,88.514Z" transform="translate(-1264.745 -29.286)" fill="none" stroke="#9672ff" stroke-miterlimit="10" stroke-width="5"/>
    <path id="Path_392" data-name="Path 392" d="M1116.461,73.909h0a44.3,44.3,0,0,0,44.343,44.257,44.3,44.3,0,0,1,44.342,44.257v88.192a44.3,44.3,0,0,1-44.342,44.257,44.3,44.3,0,0,0-44.343,44.257v.323a44.343,44.343,0,0,0,88.685,0v-.323a44.3,44.3,0,0,1,44.343-44.257,44.3,44.3,0,0,0,44.343-44.257V162.424a44.3,44.3,0,0,0-44.343-44.257,44.3,44.3,0,0,1-44.343-44.257,44.343,44.343,0,0,0-88.685,0Z" transform="translate(-1111.765 -27.048)" fill="none" stroke="#9672ff" stroke-miterlimit="10" stroke-width="5"/>
    <path id="Path_393" data-name="Path 393" d="M1594.665,409.159v176.06a43.96,43.96,0,0,0,44,43.918h.289a43.96,43.96,0,0,0,44-43.918V409.3a43.96,43.96,0,0,1,44-43.918h.289a43.96,43.96,0,0,0,44-43.917v-.578a43.96,43.96,0,0,0-44-43.918h-.289a43.96,43.96,0,0,0-44,43.918v.434a43.96,43.96,0,0,1-44.147,43.917A43.96,43.96,0,0,0,1594.665,409.159Z" transform="translate(-1234.627 -90.946)" fill="none" stroke="#9672ff" stroke-miterlimit="10" stroke-width="5"/>
    <path id="Path_394" data-name="Path 394" d="M1473.143,167.984v176.06a43.961,43.961,0,0,0,44,43.918h.289a43.96,43.96,0,0,0,44-43.918V168.129a43.96,43.96,0,0,1,44-43.918h.289a43.96,43.96,0,0,0,44-43.917v-.578a43.96,43.96,0,0,0-44-43.919h-.289a43.96,43.96,0,0,0-44,43.919v.433a43.96,43.96,0,0,1-44.147,43.917A43.96,43.96,0,0,0,1473.143,167.984Z" transform="translate(-1203.405 -28.636)" fill="none" stroke="#9672ff" stroke-miterlimit="10" stroke-width="5"/>
    <path id="Path_395" data-name="Path 395" d="M1967.3,929.866h176.4a43.96,43.96,0,0,0,44-43.916v-.289a43.96,43.96,0,0,0-44-43.917H1967.449a43.96,43.96,0,0,1-44-43.918v-.288a43.96,43.96,0,0,0-44-43.918h-.58a43.96,43.96,0,0,0-44,43.918v.288a43.96,43.96,0,0,0,44,43.918h.435a43.96,43.96,0,0,1,44,44.062A43.959,43.959,0,0,0,1967.3,929.866Z" transform="translate(-1296.34 -214.092)" fill="none" stroke="#8bffc0" stroke-miterlimit="10" stroke-width="5"/>
    <path id="Path_396" data-name="Path 396" d="M1713.487,439.077h0a44.3,44.3,0,0,0,44.343,44.257,44.257,44.257,0,1,1,0,88.514,44.257,44.257,0,1,0,44.342,44.257,44.343,44.343,0,0,1,88.685,0,44.3,44.3,0,0,0,44.343,44.257h.557a44.257,44.257,0,1,0,0-88.514h-.557a44.257,44.257,0,1,1,0-88.514h.557a44.257,44.257,0,1,0,0-88.515h-.557a44.3,44.3,0,0,0-44.343,44.257,44.343,44.343,0,0,1-88.685,0,44.343,44.343,0,0,0-88.685,0Z" transform="translate(-1265.156 -121.392)" fill="none" stroke="#8bffc0" stroke-miterlimit="10" stroke-width="5"/>
    <path id="Path_397" data-name="Path 397" d="M1518.541,34.137h.484a44.265,44.265,0,0,1,44.307,44.221v.484a44.264,44.264,0,0,0,44.307,44.221h.484a44.265,44.265,0,0,1,44.307,44.222v.774a44.265,44.265,0,0,1-44.307,44.222h-.484a44.263,44.263,0,0,0-44.307,44.221v2.032a44.264,44.264,0,0,0,44.307,44.221h.484a44.265,44.265,0,0,1,44.307,44.222v.151a44.265,44.265,0,0,1-44.307,44.222,44.265,44.265,0,0,0-44.307,44.221v1.5a44.265,44.265,0,0,1-44.307,44.222h-.968a44.264,44.264,0,0,1-44.307-44.222V78.358A44.264,44.264,0,0,1,1518.541,34.137Z" transform="translate(-1203.686 -28.207)" fill="none" stroke="#8bffc0" stroke-miterlimit="10" stroke-width="5"/>
    <path id="Path_398" data-name="Path 398" d="M1577.069,34.361h-1.36a43.154,43.154,0,0,0-43.2,43.112v3.169a43.154,43.154,0,0,1-43.2,43.112h-1.36a43.155,43.155,0,0,0-43.2,43.113V254a43.154,43.154,0,0,1-43.2,43.112,43.154,43.154,0,0,0-43.2,43.112v1.357a43.2,43.2,0,0,0,86.391,0V340.22a43.155,43.155,0,0,1,43.2-43.112h1.36a43.154,43.154,0,0,0,43.2-43.112V166.868a43.154,43.154,0,0,1,43.2-43.113h1.36a43.154,43.154,0,0,0,43.2-43.112V77.473A43.154,43.154,0,0,0,1577.069,34.361Z" transform="translate(-1173.917 -28.265)" fill="none" stroke="#8bffc0" stroke-miterlimit="10" stroke-width="5"/>
    <path id="Path_399" data-name="Path 399" d="M1336.933,34.361h-1.36a43.154,43.154,0,0,0-43.2,43.112v3.169a43.154,43.154,0,0,1-43.2,43.112h-1.36a43.155,43.155,0,0,0-43.2,43.113V254a43.155,43.155,0,0,1-43.2,43.112,43.154,43.154,0,0,0-43.2,43.112v1.357a43.2,43.2,0,0,0,86.392,0V340.22a43.154,43.154,0,0,1,43.2-43.112h1.36a43.154,43.154,0,0,0,43.2-43.112V166.868a43.155,43.155,0,0,1,43.2-43.113h1.36a43.154,43.154,0,0,0,43.2-43.112V77.473A43.154,43.154,0,0,0,1336.933,34.361Z" transform="translate(-1112.22 -28.265)" fill="none" stroke="#8bffc0" stroke-miterlimit="10" stroke-width="5"/>
  </g>
</svg>
