<svg id="red-pattern" xmlns="http://www.w3.org/2000/svg" xmlns:xlink="http://www.w3.org/1999/xlink" width="538.89" height="844.294" viewBox="0 0 538.89 844.294">
  <defs>
    <clipPath id="clip-path">
      <rect id="Rectangle_115" data-name="Rectangle 115" width="538.89" height="844.294" fill="none"/>
    </clipPath>
    <clipPath id="clip-path-2">
      <rect id="Rectangle_114" data-name="Rectangle 114" width="538.89" height="713.275" fill="none"/>
    </clipPath>
    <clipPath id="clip-path-3">
      <rect id="Rectangle_113" data-name="Rectangle 113" width="518.836" height="844.294" fill="none"/>
    </clipPath>
  </defs>
  <g id="Group_243" data-name="Group 243" clip-path="url(#clip-path)">
    <g id="Group_242" data-name="Group 242" transform="translate(0 67.317)">
      <g id="Group_241" data-name="Group 241" clip-path="url(#clip-path-2)">
        <g id="Group_240" data-name="Group 240" transform="translate(3.665 -67.317)" opacity="0.22">
          <g id="Group_239" data-name="Group 239">
            <g id="Group_238" data-name="Group 238" clip-path="url(#clip-path-3)">
              <path id="Path_514" data-name="Path 514" d="M6.132,27.418,6.084,0,63.348,41.194,63.4,68.61Z" transform="translate(-5.76 -0.001)" fill="#fff"/>
              <path id="Path_515" data-name="Path 515" d="M5.59,146.564l.048,27.416,57.636-41.394-.048-27.416Z" transform="translate(-5.59 -36.222)" fill="#fff"/>
              <path id="Path_516" data-name="Path 516" d="M93.5,27.418,93.449,0l57.264,41.192.048,27.416Z" transform="translate(-35.85 -0.001)" fill="#fff"/>
              <path id="Path_517" data-name="Path 517" d="M92.955,146.564,93,173.98l57.636-41.394-.048-27.416Z" transform="translate(-35.68 -36.222)" fill="#fff"/>
              <path id="Path_518" data-name="Path 518" d="M180.862,28.085,180.814.669l57.264,41.192.048,27.416Z" transform="translate(-65.94 -0.23)" fill="#fff"/>
              <path id="Path_519" data-name="Path 519" d="M180.32,147.231l.048,27.416L238,133.253l-.048-27.416Z" transform="translate(-65.77 -36.452)" fill="#fff"/>
              <path id="Path_520" data-name="Path 520" d="M269.248,27.418,269.2,0l57.264,41.192.048,27.416Z" transform="translate(-96.381 -0.001)" fill="#fff"/>
              <path id="Path_521" data-name="Path 521" d="M268.706,146.564l.048,27.416,57.636-41.394-.048-27.416Z" transform="translate(-96.211 -36.222)" fill="#fff"/>
              <path id="Path_522" data-name="Path 522" d="M356.613,27.418,356.565,0l57.264,41.192.048,27.416Z" transform="translate(-126.471 -0.001)" fill="#fff"/>
              <path id="Path_523" data-name="Path 523" d="M356.071,146.564l.048,27.416,57.636-41.394-.048-27.416Z" transform="translate(-126.301 -36.222)" fill="#fff"/>
              <path id="Path_524" data-name="Path 524" d="M443.978,28.085,443.93.669l57.264,41.192.048,27.416Z" transform="translate(-156.561 -0.23)" fill="#fff"/>
              <path id="Path_525" data-name="Path 525" d="M443.436,147.231l.048,27.416,57.636-41.394-.048-27.416Z" transform="translate(-156.391 -36.452)" fill="#fff"/>
              <path id="Path_526" data-name="Path 526" d="M532.363,27.418,532.315,0l57.264,41.192.048,27.416Z" transform="translate(-187.003 -0.001)" fill="#fff"/>
              <path id="Path_527" data-name="Path 527" d="M531.822,146.564l.048,27.416,57.636-41.394-.048-27.416Z" transform="translate(-186.833 -36.222)" fill="#fff"/>
              <path id="Path_528" data-name="Path 528" d="M619.728,27.418,619.68,0l57.264,41.192.048,27.416Z" transform="translate(-217.093 -0.001)" fill="#fff"/>
              <path id="Path_529" data-name="Path 529" d="M619.187,146.564l.048,27.416,57.636-41.394-.048-27.416Z" transform="translate(-216.922 -36.222)" fill="#fff"/>
              <path id="Path_530" data-name="Path 530" d="M707.093,28.085,707.046.669,764.31,41.861l.048,27.416Z" transform="translate(-247.182 -0.23)" fill="#fff"/>
              <path id="Path_531" data-name="Path 531" d="M706.552,147.231l.048,27.416,57.636-41.394-.048-27.416Z" transform="translate(-247.012 -36.452)" fill="#fff"/>
              <path id="Path_532" data-name="Path 532" d="M763.89,362.911l.048,27.416-57.264-41.192-.048-27.416Z" transform="translate(-247.038 -110.805)" fill="#fff"/>
              <path id="Path_533" data-name="Path 533" d="M764.236,243.659l-.048-27.416-57.636,41.394.048,27.416Z" transform="translate(-247.012 -74.478)" fill="#fff"/>
              <path id="Path_534" data-name="Path 534" d="M676.525,362.911l.048,27.416-57.264-41.192-.048-27.416Z" transform="translate(-216.948 -110.805)" fill="#fff"/>
              <path id="Path_535" data-name="Path 535" d="M676.871,243.659l-.048-27.416-57.636,41.394.048,27.416Z" transform="translate(-216.923 -74.478)" fill="#fff"/>
              <path id="Path_536" data-name="Path 536" d="M589.16,362.244l.048,27.416-57.264-41.192-.048-27.416Z" transform="translate(-186.858 -110.575)" fill="#fff"/>
              <path id="Path_537" data-name="Path 537" d="M589.506,242.993l-.048-27.416L531.822,256.97l.048,27.416Z" transform="translate(-186.833 -74.248)" fill="#fff"/>
              <path id="Path_538" data-name="Path 538" d="M500.774,362.911l.048,27.416-57.264-41.192-.048-27.416Z" transform="translate(-156.417 -110.805)" fill="#fff"/>
              <path id="Path_539" data-name="Path 539" d="M501.12,243.659l-.048-27.416-57.636,41.394.048,27.416Z" transform="translate(-156.391 -74.478)" fill="#fff"/>
              <path id="Path_540" data-name="Path 540" d="M413.409,362.911l.048,27.416-57.264-41.192-.048-27.416Z" transform="translate(-126.327 -110.805)" fill="#fff"/>
              <path id="Path_541" data-name="Path 541" d="M413.755,243.659l-.048-27.416-57.636,41.394.048,27.416Z" transform="translate(-126.301 -74.478)" fill="#fff"/>
              <path id="Path_542" data-name="Path 542" d="M326.044,362.244l.048,27.416-57.264-41.192-.048-27.416Z" transform="translate(-96.237 -110.575)" fill="#fff"/>
              <path id="Path_543" data-name="Path 543" d="M326.39,242.993l-.048-27.416L268.706,256.97l.048,27.416Z" transform="translate(-96.211 -74.248)" fill="#fff"/>
              <path id="Path_544" data-name="Path 544" d="M237.658,362.911l.048,27.416-57.264-41.192-.048-27.416Z" transform="translate(-65.795 -110.805)" fill="#fff"/>
              <path id="Path_545" data-name="Path 545" d="M238,243.659l-.048-27.416L180.32,257.637l.048,27.416Z" transform="translate(-65.77 -74.478)" fill="#fff"/>
              <path id="Path_546" data-name="Path 546" d="M150.293,362.911l.048,27.416L93.077,349.135l-.048-27.416Z" transform="translate(-35.705 -110.805)" fill="#fff"/>
              <path id="Path_547" data-name="Path 547" d="M150.639,243.659l-.048-27.416L92.955,257.637,93,285.053Z" transform="translate(-35.68 -74.478)" fill="#fff"/>
              <path id="Path_548" data-name="Path 548" d="M62.928,362.244l.048,27.416L5.712,348.468l-.048-27.416Z" transform="translate(-5.616 -110.575)" fill="#fff"/>
              <path id="Path_549" data-name="Path 549" d="M63.274,242.993l-.048-27.416L5.59,256.97l.048,27.416Z" transform="translate(-5.59 -74.248)" fill="#fff"/>
              <path id="Path_550" data-name="Path 550" d="M6.132,455.288l-.048-27.416,57.264,41.192.048,27.416Z" transform="translate(-5.76 -147.366)" fill="#fff"/>
              <path id="Path_551" data-name="Path 551" d="M5.59,574.435l.048,27.416,57.636-41.394-.048-27.416Z" transform="translate(-5.59 -183.588)" fill="#fff"/>
              <path id="Path_552" data-name="Path 552" d="M93.5,455.288l-.048-27.416,57.264,41.192.048,27.416Z" transform="translate(-35.85 -147.366)" fill="#fff"/>
              <path id="Path_553" data-name="Path 553" d="M92.955,574.435,93,601.851l57.636-41.394-.048-27.416Z" transform="translate(-35.68 -183.588)" fill="#fff"/>
              <path id="Path_554" data-name="Path 554" d="M180.862,455.955l-.048-27.416,57.264,41.192.048,27.416Z" transform="translate(-65.94 -147.596)" fill="#fff"/>
              <path id="Path_555" data-name="Path 555" d="M180.32,575.1l.048,27.416L238,561.124l-.048-27.416Z" transform="translate(-65.77 -183.818)" fill="#fff"/>
              <path id="Path_556" data-name="Path 556" d="M269.248,455.288l-.048-27.416,57.264,41.192.048,27.416Z" transform="translate(-96.381 -147.366)" fill="#fff"/>
              <path id="Path_557" data-name="Path 557" d="M268.706,574.435l.048,27.416,57.636-41.394-.048-27.416Z" transform="translate(-96.211 -183.588)" fill="#fff"/>
              <path id="Path_558" data-name="Path 558" d="M356.613,455.288l-.048-27.416,57.264,41.192.048,27.416Z" transform="translate(-126.471 -147.366)" fill="#fff"/>
              <path id="Path_559" data-name="Path 559" d="M356.071,574.435l.048,27.416,57.636-41.394-.048-27.416Z" transform="translate(-126.301 -183.588)" fill="#fff"/>
              <path id="Path_560" data-name="Path 560" d="M443.978,455.955l-.048-27.416,57.264,41.192.048,27.416Z" transform="translate(-156.561 -147.596)" fill="#fff"/>
              <path id="Path_561" data-name="Path 561" d="M443.436,575.1l.048,27.416,57.636-41.394-.048-27.416Z" transform="translate(-156.391 -183.818)" fill="#fff"/>
              <path id="Path_562" data-name="Path 562" d="M532.363,455.288l-.048-27.416,57.264,41.192.048,27.416Z" transform="translate(-187.003 -147.366)" fill="#fff"/>
              <path id="Path_563" data-name="Path 563" d="M531.822,574.435l.048,27.416,57.636-41.394-.048-27.416Z" transform="translate(-186.833 -183.588)" fill="#fff"/>
              <path id="Path_564" data-name="Path 564" d="M619.728,455.288l-.048-27.416,57.264,41.192.048,27.416Z" transform="translate(-217.093 -147.366)" fill="#fff"/>
              <path id="Path_565" data-name="Path 565" d="M619.187,574.435l.048,27.416,57.636-41.394-.048-27.416Z" transform="translate(-216.922 -183.588)" fill="#fff"/>
              <path id="Path_566" data-name="Path 566" d="M707.093,455.955l-.048-27.416,57.264,41.192.048,27.416Z" transform="translate(-247.182 -147.596)" fill="#fff"/>
              <path id="Path_567" data-name="Path 567" d="M706.552,575.1l.048,27.416,57.636-41.394-.048-27.416Z" transform="translate(-247.012 -183.818)" fill="#fff"/>
              <path id="Path_568" data-name="Path 568" d="M763.89,790.782l.048,27.416-57.264-41.192-.048-27.416Z" transform="translate(-247.038 -258.171)" fill="#fff"/>
              <path id="Path_569" data-name="Path 569" d="M764.236,671.53l-.048-27.416-57.636,41.394.048,27.416Z" transform="translate(-247.012 -221.843)" fill="#fff"/>
              <path id="Path_570" data-name="Path 570" d="M676.525,790.782l.048,27.416-57.264-41.192-.048-27.416Z" transform="translate(-216.948 -258.171)" fill="#fff"/>
              <path id="Path_571" data-name="Path 571" d="M676.871,671.53l-.048-27.416-57.636,41.394.048,27.416Z" transform="translate(-216.923 -221.843)" fill="#fff"/>
              <path id="Path_572" data-name="Path 572" d="M589.16,790.115l.048,27.416-57.264-41.192-.048-27.416Z" transform="translate(-186.858 -257.941)" fill="#fff"/>
              <path id="Path_573" data-name="Path 573" d="M589.506,670.863l-.048-27.416-57.636,41.394.048,27.416Z" transform="translate(-186.833 -221.614)" fill="#fff"/>
              <path id="Path_574" data-name="Path 574" d="M500.774,790.782l.048,27.416-57.264-41.192-.048-27.416Z" transform="translate(-156.417 -258.171)" fill="#fff"/>
              <path id="Path_575" data-name="Path 575" d="M501.12,671.53l-.048-27.416-57.636,41.394.048,27.416Z" transform="translate(-156.391 -221.843)" fill="#fff"/>
              <path id="Path_576" data-name="Path 576" d="M413.409,790.782l.048,27.416-57.264-41.192-.048-27.416Z" transform="translate(-126.327 -258.171)" fill="#fff"/>
              <path id="Path_577" data-name="Path 577" d="M413.755,671.53l-.048-27.416-57.636,41.394.048,27.416Z" transform="translate(-126.301 -221.843)" fill="#fff"/>
              <path id="Path_578" data-name="Path 578" d="M326.044,790.115l.048,27.416-57.264-41.192-.048-27.416Z" transform="translate(-96.237 -257.941)" fill="#fff"/>
              <path id="Path_579" data-name="Path 579" d="M326.39,670.863l-.048-27.416-57.636,41.394.048,27.416Z" transform="translate(-96.211 -221.614)" fill="#fff"/>
              <path id="Path_580" data-name="Path 580" d="M237.658,790.782l.048,27.416-57.264-41.192-.048-27.416Z" transform="translate(-65.795 -258.171)" fill="#fff"/>
              <path id="Path_581" data-name="Path 581" d="M238,671.53l-.048-27.416L180.32,685.508l.048,27.416Z" transform="translate(-65.77 -221.843)" fill="#fff"/>
              <path id="Path_582" data-name="Path 582" d="M150.293,790.782l.048,27.416L93.077,777.006l-.048-27.416Z" transform="translate(-35.705 -258.171)" fill="#fff"/>
              <path id="Path_583" data-name="Path 583" d="M150.639,671.53l-.048-27.416L92.955,685.508,93,712.924Z" transform="translate(-35.68 -221.843)" fill="#fff"/>
              <path id="Path_584" data-name="Path 584" d="M62.928,790.115l.048,27.416L5.712,776.339l-.048-27.416Z" transform="translate(-5.616 -257.941)" fill="#fff"/>
              <path id="Path_585" data-name="Path 585" d="M63.274,670.863l-.048-27.416L5.59,684.841l.048,27.416Z" transform="translate(-5.59 -221.614)" fill="#fff"/>
              <path id="Path_586" data-name="Path 586" d="M8.591,888.9l-.048-27.416,57.264,41.192.048,27.416Z" transform="translate(-6.607 -296.708)" fill="#fff"/>
              <path id="Path_587" data-name="Path 587" d="M8.049,1008.043l.048,27.416,57.636-41.393-.048-27.416Z" transform="translate(-6.437 -332.93)" fill="#fff"/>
              <path id="Path_588" data-name="Path 588" d="M95.956,888.9l-.048-27.416,57.264,41.192.048,27.416Z" transform="translate(-36.697 -296.708)" fill="#fff"/>
              <path id="Path_589" data-name="Path 589" d="M95.414,1008.043l.048,27.416L153.1,994.065l-.048-27.416Z" transform="translate(-36.527 -332.93)" fill="#fff"/>
              <path id="Path_590" data-name="Path 590" d="M183.321,889.564l-.048-27.416,57.264,41.192.048,27.416Z" transform="translate(-66.787 -296.938)" fill="#fff"/>
              <path id="Path_591" data-name="Path 591" d="M182.779,1008.71l.048,27.416,57.636-41.394-.048-27.416Z" transform="translate(-66.617 -333.159)" fill="#fff"/>
              <path id="Path_592" data-name="Path 592" d="M271.707,888.9l-.048-27.416,57.264,41.192.048,27.416Z" transform="translate(-97.228 -296.708)" fill="#fff"/>
              <path id="Path_593" data-name="Path 593" d="M271.165,1008.043l.048,27.416,57.636-41.393-.048-27.416Z" transform="translate(-97.058 -332.93)" fill="#fff"/>
              <path id="Path_594" data-name="Path 594" d="M359.072,888.9l-.048-27.416,57.264,41.192.048,27.416Z" transform="translate(-127.318 -296.708)" fill="#fff"/>
              <path id="Path_595" data-name="Path 595" d="M358.53,1008.043l.048,27.416,57.636-41.393-.048-27.416Z" transform="translate(-127.148 -332.93)" fill="#fff"/>
              <path id="Path_596" data-name="Path 596" d="M446.437,889.564l-.048-27.416,57.264,41.192.048,27.416Z" transform="translate(-157.408 -296.938)" fill="#fff"/>
              <path id="Path_597" data-name="Path 597" d="M445.895,1008.71l.048,27.416,57.636-41.394-.048-27.416Z" transform="translate(-157.238 -333.159)" fill="#fff"/>
              <path id="Path_598" data-name="Path 598" d="M534.822,888.9l-.048-27.416,57.264,41.192.049,27.416Z" transform="translate(-187.85 -296.708)" fill="#fff"/>
              <path id="Path_599" data-name="Path 599" d="M534.281,1008.043l.048,27.416,57.636-41.393-.048-27.416Z" transform="translate(-187.679 -332.93)" fill="#fff"/>
              <path id="Path_600" data-name="Path 600" d="M622.187,888.9l-.048-27.416L679.4,902.673l.048,27.416Z" transform="translate(-217.939 -296.708)" fill="#fff"/>
              <path id="Path_601" data-name="Path 601" d="M621.646,1008.043l.048,27.416,57.636-41.393-.048-27.416Z" transform="translate(-217.769 -332.93)" fill="#fff"/>
              <path id="Path_602" data-name="Path 602" d="M709.552,889.564l-.048-27.416,57.264,41.192.048,27.416Z" transform="translate(-248.029 -296.938)" fill="#fff"/>
              <path id="Path_603" data-name="Path 603" d="M709.011,1008.71l.048,27.416,57.636-41.394-.048-27.416Z" transform="translate(-247.859 -333.159)" fill="#fff"/>
              <path id="Path_604" data-name="Path 604" d="M766.349,1224.39l.048,27.416-57.264-41.192-.048-27.416Z" transform="translate(-247.885 -407.512)" fill="#fff"/>
              <path id="Path_605" data-name="Path 605" d="M766.7,1105.138l-.048-27.416-57.636,41.394.048,27.416Z" transform="translate(-247.859 -371.185)" fill="#fff"/>
              <path id="Path_606" data-name="Path 606" d="M678.984,1224.39l.048,27.416-57.264-41.192-.048-27.416Z" transform="translate(-217.795 -407.512)" fill="#fff"/>
              <path id="Path_607" data-name="Path 607" d="M679.33,1105.138l-.048-27.416-57.636,41.394.048,27.416Z" transform="translate(-217.77 -371.185)" fill="#fff"/>
              <path id="Path_608" data-name="Path 608" d="M591.619,1223.723l.048,27.416L534.4,1209.947l-.048-27.416Z" transform="translate(-187.705 -407.283)" fill="#fff"/>
              <path id="Path_609" data-name="Path 609" d="M591.965,1104.471l-.048-27.416-57.636,41.394.048,27.416Z" transform="translate(-187.68 -370.955)" fill="#fff"/>
              <path id="Path_610" data-name="Path 610" d="M503.233,1224.39l.048,27.416-57.264-41.192-.048-27.416Z" transform="translate(-157.264 -407.512)" fill="#fff"/>
              <path id="Path_611" data-name="Path 611" d="M503.579,1105.138l-.048-27.416L445.9,1119.116l.048,27.416Z" transform="translate(-157.238 -371.185)" fill="#fff"/>
              <path id="Path_612" data-name="Path 612" d="M415.868,1224.39l.048,27.416-57.264-41.192L358.6,1183.2Z" transform="translate(-127.174 -407.512)" fill="#fff"/>
              <path id="Path_613" data-name="Path 613" d="M416.214,1105.138l-.048-27.416-57.636,41.394.048,27.416Z" transform="translate(-127.148 -371.185)" fill="#fff"/>
              <path id="Path_614" data-name="Path 614" d="M328.5,1223.723l.048,27.416-57.264-41.192-.048-27.416Z" transform="translate(-97.084 -407.283)" fill="#fff"/>
              <path id="Path_615" data-name="Path 615" d="M328.849,1104.471l-.048-27.416-57.636,41.394.048,27.416Z" transform="translate(-97.058 -370.955)" fill="#fff"/>
              <path id="Path_616" data-name="Path 616" d="M240.117,1224.39l.048,27.416L182.9,1210.614l-.048-27.416Z" transform="translate(-66.642 -407.512)" fill="#fff"/>
              <path id="Path_617" data-name="Path 617" d="M240.463,1105.138l-.048-27.416-57.636,41.394.048,27.416Z" transform="translate(-66.617 -371.185)" fill="#fff"/>
              <path id="Path_618" data-name="Path 618" d="M152.752,1224.39l.048,27.416-57.264-41.192-.048-27.416Z" transform="translate(-36.552 -407.512)" fill="#fff"/>
              <path id="Path_619" data-name="Path 619" d="M153.1,1105.138l-.048-27.416-57.636,41.394.048,27.416Z" transform="translate(-36.527 -371.185)" fill="#fff"/>
              <path id="Path_620" data-name="Path 620" d="M65.387,1223.723l.048,27.416L8.171,1209.947l-.048-27.416Z" transform="translate(-6.462 -407.283)" fill="#fff"/>
              <path id="Path_621" data-name="Path 621" d="M65.733,1104.471l-.048-27.416L8.049,1118.449l.048,27.416Z" transform="translate(-6.437 -370.955)" fill="#fff"/>
            </g>
          </g>
        </g>
      </g>
    </g>
  </g>
</svg>
