<svg id="red-logo" xmlns="http://www.w3.org/2000/svg" xmlns:xlink="http://www.w3.org/1999/xlink" width="296.721" height="95.818" viewBox="0 0 296.721 95.818">
  <defs>
    <clipPath id="clip-path">
      <path id="Path_1251" data-name="Path 1251" d="M0,0H296.721V95.818H0Z" fill="none"/>
    </clipPath>
  </defs>
  <g id="Group_171" data-name="Group 171" transform="translate(0 0)">
    <g id="Mask_Group_1" data-name="Mask Group 1" transform="translate(0 0)" clip-path="url(#clip-path)">
      <text id="RED" transform="translate(0 72.202)" fill="#fff" font-size="84" font-family="Orbitron-Regular, Orbitron"><tspan x="0" y="0">RED</tspan></text>
    </g>
  </g>
  <path id="Path_406" data-name="Path 406" d="M261.362,27.177l-.022-12.441,25.987,18.692.022,12.442Z" transform="translate(-42.632 -2.404)" fill="#fff"/>
  <path id="Path_407" data-name="Path 407" d="M261.165,70.906l.022,12.441,26.156-18.784-.022-12.441Z" transform="translate(-42.604 -8.503)" fill="#fff"/>
  <path id="Path_408" data-name="Path 408" d="M292.42,27.177,292.4,14.736l25.987,18.692.022,12.442Z" transform="translate(-47.699 -2.404)" fill="#fff"/>
  <path id="Path_409" data-name="Path 409" d="M292.222,70.906l.022,12.441L318.4,64.563l-.022-12.441Z" transform="translate(-47.67 -8.503)" fill="#fff"/>
  <path id="Path_410" data-name="Path 410" d="M323.477,27.414l25.987,18.692-.022-12.441L323.456,14.972Z" transform="translate(-52.765 -2.442)" fill="#fff"/>
  <path id="Path_411" data-name="Path 411" d="M323.28,71.143l.022,12.441L349.457,64.8l-.023-12.441Z" transform="translate(-52.736 -8.541)" fill="#fff"/>
</svg>
