<svg xmlns="http://www.w3.org/2000/svg" xmlns:xlink="http://www.w3.org/1999/xlink" width="129.498" height="41.818" viewBox="0 0 129.498 41.818"><defs><clipPath id="a"><rect width="129.498" height="41.818" fill="none"/></clipPath></defs><g transform="translate(0 0)"><g transform="translate(0 0)" clip-path="url(#a)"><text transform="translate(0 31.415)" fill="#fff" font-size="37" font-family="Orbitron-Regular, Orbitron"><tspan x="0" y="0">RED</tspan></text></g></g><path d="M261.35,20.165l-.009-5.43,11.341,8.158.009,5.43Z" transform="translate(-165.89 -9.354)" fill="#fff"/><path d="M261.165,60.32l.01,5.43,11.415-8.2-.009-5.43Z" transform="translate(-165.778 -33.085)" fill="#fff"/><path d="M292.408,20.165l-.009-5.43,11.341,8.158.009,5.43Z" transform="translate(-185.604 -9.354)" fill="#fff"/><path d="M292.222,60.32l.01,5.43,11.415-8.2-.009-5.43Z" transform="translate(-185.493 -33.085)" fill="#fff"/><path d="M323.465,20.4l11.341,8.158-.009-5.43-11.341-8.158Z" transform="translate(-205.318 -9.504)" fill="#fff"/><path d="M323.28,60.557l.009,5.43,11.415-8.2-.01-5.43Z" transform="translate(-205.207 -33.236)" fill="#fff"/></svg>