<?xml version="1.0" encoding="UTF-8"?>
<svg id="red-logo" xmlns="http://www.w3.org/2000/svg" viewBox="0 0 292.02 63.32">
  <defs>
    <style>
      .cls-1 {
        fill: #e81c35;
        stroke-width: 0px;
      }
    </style>
  </defs>
  <path class="cls-1" d="m55.48,1.47c-1.54-.92-3.23-1.39-5.08-1.39H0v60.4h6.8v-22.51h25.37l18.89,22.51h8.99v-.08l-18.97-22.43h9.31c1.85,0,3.54-.46,5.08-1.39,1.54-.92,2.76-2.14,3.65-3.65.9-1.51,1.34-3.19,1.34-5.04V10.16c0-1.85-.45-3.53-1.34-5.04-.9-1.51-2.11-2.73-3.65-3.65Zm-1.81,26.42c0,.9-.32,1.65-.97,2.27-.64.62-1.42.92-2.31.92H10.08c-.9,0-1.67-.31-2.31-.92-.64-.62-.97-1.37-.97-2.27V10.16c0-.89.32-1.67.97-2.31.64-.64,1.41-.97,2.31-.97h40.32c.9,0,1.67.32,2.31.97.64.64.97,1.42.97,2.31v17.72Z"/>
  <polygon class="cls-1" points="69.47 60.48 124.66 60.48 124.66 53.68 76.27 53.68 76.27 33.68 115.16 33.68 115.16 26.8 76.27 26.8 76.27 6.8 124.66 6.8 124.66 0 69.47 0 69.47 60.48"/>
  <path class="cls-1" d="m189.29,1.34C187.75.45,186.06,0,184.21,0h-50.4v60.48h50.4c1.85,0,3.54-.45,5.08-1.34,1.54-.9,2.76-2.11,3.65-3.65.9-1.54,1.34-3.23,1.34-5.08V10.08c0-1.85-.45-3.54-1.34-5.08-.9-1.54-2.11-2.76-3.65-3.65Zm-1.81,49.06c0,.9-.32,1.67-.97,2.31-.64.64-1.41.97-2.31.97h-40.32c-.9,0-1.67-.32-2.31-.97-.64-.64-.97-1.41-.97-2.31V10.08c0-.89.32-1.67.97-2.31.64-.64,1.41-.97,2.31-.97h40.32c.9,0,1.67.32,2.31.97.64.64.97,1.42.97,2.31v40.32Z"/>
  <polygon class="cls-1" points="240.01 31.74 239.99 19.3 214 .61 214.03 13.05 240.01 31.74"/>
  <polygon class="cls-1" points="240.01 31.9 213.86 50.68 213.88 63.12 240.03 44.34 240.01 31.9"/>
  <polygon class="cls-1" points="266.01 31.74 265.98 19.3 240 .61 240.02 13.05 266.01 31.74"/>
  <polygon class="cls-1" points="266 31.9 239.85 50.68 239.87 63.12 266.03 44.34 266 31.9"/>
  <polygon class="cls-1" points="291.99 31.94 291.97 19.5 265.99 .81 266.01 13.25 291.99 31.94"/>
  <polygon class="cls-1" points="291.99 32.1 265.84 50.88 265.86 63.32 292.02 44.54 291.99 32.1"/>
</svg>