<svg id="share-pattern" xmlns="http://www.w3.org/2000/svg" xmlns:xlink="http://www.w3.org/1999/xlink" width="991.25" height="1194.197" viewBox="0 0 991.25 1194.197">
  <defs>
    <clipPath id="clip-path">
      <rect id="Rectangle_110" data-name="Rectangle 110" width="991.25" height="1194.197" fill="none"/>
    </clipPath>
    <clipPath id="clip-path-2">
      <rect id="Rectangle_109" data-name="Rectangle 109" width="991.249" height="1194.199" fill="none"/>
    </clipPath>
    <clipPath id="clip-path-3">
      <rect id="Rectangle_95" data-name="Rectangle 95" width="595.271" height="595.269" fill="none"/>
    </clipPath>
    <clipPath id="clip-path-4">
      <path id="Path_455" data-name="Path 455" d="M530.286,571.915C632.8,700.4,611.743,887.67,483.253,990.184S167.5,1071.64,64.985,943.15-16.471,627.4,112.018,524.882s315.754-81.456,418.268,47.034" transform="translate(0 -459.897)" fill="none"/>
    </clipPath>
    <clipPath id="clip-path-5">
      <rect id="Rectangle_108" data-name="Rectangle 108" width="763.743" height="1194.197" fill="none"/>
    </clipPath>
    <clipPath id="clip-path-6">
      <path id="Path_470" data-name="Path 470" d="M610.586,922.788c-109.919,87.7-141.22,237.409-83.792,359.3h451.1V919.619a297.751,297.751,0,0,0-367.308,3.168" transform="translate(-498.564 -857.803)" fill="none"/>
    </clipPath>
    <clipPath id="clip-path-7">
      <rect id="Rectangle_96" data-name="Rectangle 96" width="451.314" height="451.316" fill="none"/>
    </clipPath>
    <clipPath id="clip-path-9">
      <rect id="Rectangle_98" data-name="Rectangle 98" width="447" height="446.998" fill="none"/>
    </clipPath>
    <clipPath id="clip-path-10">
      <rect id="Rectangle_99" data-name="Rectangle 99" width="378.627" height="378.629" fill="none"/>
    </clipPath>
    <clipPath id="clip-path-11">
      <rect id="Rectangle_100" data-name="Rectangle 100" width="378.63" height="378.629" fill="none"/>
    </clipPath>
    <clipPath id="clip-path-12">
      <rect id="Rectangle_101" data-name="Rectangle 101" width="375.008" height="375.007" fill="none"/>
    </clipPath>
    <clipPath id="clip-path-13">
      <path id="Path_485" data-name="Path 485" d="M521.323,418.516a297.055,297.055,0,0,0,58.147,249.042c98.759,123.784,276.172,147.865,403.917,57.8V418.516Z" transform="translate(-514.485 -418.516)" fill="none"/>
    </clipPath>
    <clipPath id="clip-path-14">
      <rect id="Rectangle_102" data-name="Rectangle 102" width="451.317" height="451.314" fill="none"/>
    </clipPath>
    <clipPath id="clip-path-15">
      <rect id="Rectangle_103" data-name="Rectangle 103" width="451.318" height="451.314" fill="none"/>
    </clipPath>
    <clipPath id="clip-path-16">
      <rect id="Rectangle_104" data-name="Rectangle 104" width="446.996" height="447.001" fill="none"/>
    </clipPath>
    <clipPath id="clip-path-17">
      <rect id="Rectangle_105" data-name="Rectangle 105" width="378.63" height="378.626" fill="none"/>
    </clipPath>
    <clipPath id="clip-path-18">
      <rect id="Rectangle_106" data-name="Rectangle 106" width="378.626" height="378.627" fill="none"/>
    </clipPath>
    <clipPath id="clip-path-19">
      <rect id="Rectangle_107" data-name="Rectangle 107" width="375.004" height="375.008" fill="none"/>
    </clipPath>
  </defs>
  <g id="Group_231" data-name="Group 231" clip-path="url(#clip-path)">
    <g id="Group_230" data-name="Group 230" transform="translate(0 -0.002)">
      <g id="Group_229" data-name="Group 229" clip-path="url(#clip-path-2)">
        <g id="Group_185" data-name="Group 185" transform="translate(0 301.258)" opacity="0.42">
          <g id="Group_184" data-name="Group 184">
            <g id="Group_183" data-name="Group 183" clip-path="url(#clip-path-3)">
              <g id="Group_182" data-name="Group 182" transform="translate(0 -0.002)">
                <g id="Group_181" data-name="Group 181" clip-path="url(#clip-path-4)">
                  <path id="Path_447" data-name="Path 447" d="M546.515,773.369h0a226.523,226.523,0,0,0-203.325-97.378A226.121,226.121,0,0,1,527.988,549.4a226.132,226.132,0,0,1,18.527,223.967" transform="translate(-118.383 -490.772)" fill="#b2e100"/>
                  <path id="Path_448" data-name="Path 448" d="M245.368,744.175v0A226.525,226.525,0,0,0,264.22,968.829,226.123,226.123,0,0,1,61.54,873.45,226.131,226.131,0,0,1,245.368,744.175" transform="translate(-21.228 -557.96)" fill="#72aff8"/>
                  <path id="Path_449" data-name="Path 449" d="M555.785,891.918h0A226.525,226.525,0,0,1,369.89,1019.464a226.123,226.123,0,0,0,202.1,96.6,226.133,226.133,0,0,0-16.205-224.147" transform="translate(-127.595 -608.924)" fill="#ffbe61"/>
                  <path id="Path_450" data-name="Path 450" d="M534.137,840.364c-35.437,74.717-107.3,120.574-184.772,126.723-44.256-63.882-54.224-148.552-18.787-223.269.309-.652.614-1.295.933-1.942a228.294,228.294,0,0,1,203.179,97.3c-.177.4-.367.8-.552,1.188" transform="translate(-106.632 -556.967)" fill="#fff"/>
                  <path id="Path_451" data-name="Path 451" d="M285.348,932.822h0a190.034,190.034,0,0,0,176.917,66.851A189.7,189.7,0,0,1,316.855,1118.7a189.7,189.7,0,0,1-31.506-185.879" transform="translate(-94.406 -623.034)" fill="#b2e100"/>
                  <path id="Path_452" data-name="Path 452" d="M545.557,934.011v0A190.036,190.036,0,0,0,513.73,747.581a189.7,189.7,0,0,1,176.234,65.226,189.7,189.7,0,0,1-144.406,121.2" transform="translate(-177.213 -558.253)" fill="#72aff8"/>
                  <path id="Path_453" data-name="Path 453" d="M269.321,833.045h0A190.036,190.036,0,0,1,415.58,713.137a189.7,189.7,0,0,0-175.837-66.288,189.7,189.7,0,0,0,29.579,186.2" transform="translate(-78.457 -523.584)" fill="#ffbe61"/>
                  <path id="Path_454" data-name="Path 454" d="M292.008,868.992C316.284,804,373.072,760.533,437.386,749.852c41.562,50.231,55.95,120.29,31.675,185.277-.212.567-.421,1.126-.641,1.69a191.519,191.519,0,0,1-176.789-66.8c.119-.343.25-.691.377-1.032" transform="translate(-100.599 -559.918)" fill="#fff"/>
                </g>
              </g>
            </g>
          </g>
        </g>
        <g id="Group_228" data-name="Group 228" transform="translate(227.507 0.002)" opacity="0.42">
          <g id="Group_227" data-name="Group 227">
            <g id="Group_226" data-name="Group 226" clip-path="url(#clip-path-5)">
              <g id="Group_205" data-name="Group 205" transform="translate(99.076 561.901)">
                <g id="Group_204" data-name="Group 204" clip-path="url(#clip-path-6)">
                  <g id="Group_188" data-name="Group 188" transform="translate(-0.985 -39.94)" opacity="0.32">
                    <g id="Group_187" data-name="Group 187">
                      <g id="Group_186" data-name="Group 186" clip-path="url(#clip-path-7)">
                        <path id="Path_456" data-name="Path 456" d="M626.04,1226.329c-112.578-53.394-160.556-187.941-107.162-300.519S706.82,765.254,819.4,818.648s160.556,187.941,107.162,300.519S738.618,1279.723,626.04,1226.329" transform="translate(-497.06 -796.83)" fill="#b2e100"/>
                      </g>
                    </g>
                  </g>
                  <g id="Group_191" data-name="Group 191" transform="translate(202.924 56.771)" opacity="0.32">
                    <g id="Group_190" data-name="Group 190">
                      <g id="Group_189" data-name="Group 189" clip-path="url(#clip-path-7)">
                        <path id="Path_457" data-name="Path 457" d="M937.329,1373.969c-112.578-53.394-160.556-187.941-107.162-300.519s187.941-160.556,300.519-107.162,160.556,187.941,107.162,300.519-187.941,160.556-300.519,107.162" transform="translate(-808.35 -944.47)" fill="#ffbe61"/>
                      </g>
                    </g>
                  </g>
                  <g id="Group_194" data-name="Group 194" transform="translate(20.052 185.297)" opacity="0.32">
                    <g id="Group_193" data-name="Group 193">
                      <g id="Group_192" data-name="Group 192" clip-path="url(#clip-path-9)">
                        <path id="Path_458" data-name="Path 458" d="M656.921,1566.068c-111.5-52.883-159.02-186.143-106.137-297.644s186.143-159.02,297.644-106.137,159.021,186.143,106.137,297.644-186.143,159.02-297.644,106.137" transform="translate(-529.176 -1140.679)" fill="#72aff8"/>
                      </g>
                    </g>
                  </g>
                  <path id="Path_459" data-name="Path 459" d="M1045.084,1171.274h0A226.523,226.523,0,0,0,841.756,1073.9a226.121,226.121,0,0,1,184.8-126.589,226.132,226.132,0,0,1,18.527,223.967" transform="translate(-616.949 -888.678)" fill="#b2e100"/>
                  <path id="Path_460" data-name="Path 460" d="M743.937,1142.08v0a226.525,226.525,0,0,0,18.851,224.652,226.122,226.122,0,0,1-202.68-95.379A226.131,226.131,0,0,1,743.937,1142.08" transform="translate(-519.794 -955.865)" fill="#72aff8"/>
                  <path id="Path_461" data-name="Path 461" d="M1054.354,1289.823h0a226.525,226.525,0,0,1-185.893,127.546,226.124,226.124,0,0,0,202.1,96.6,226.133,226.133,0,0,0-16.205-224.147" transform="translate(-626.161 -1006.83)" fill="#ffbe61"/>
                  <path id="Path_462" data-name="Path 462" d="M1032.706,1238.269c-35.437,74.717-107.3,120.574-184.773,126.723-44.256-63.882-54.224-148.552-18.787-223.269.309-.652.614-1.3.933-1.942a228.294,228.294,0,0,1,203.179,97.3c-.177.4-.367.8-.552,1.188" transform="translate(-605.198 -954.872)" fill="#fff"/>
                  <g id="Group_197" data-name="Group 197" transform="translate(178.625 186.896)" opacity="0.32">
                    <g id="Group_196" data-name="Group 196">
                      <g id="Group_195" data-name="Group 195" clip-path="url(#clip-path-10)">
                        <path id="Path_463" data-name="Path 463" d="M1026.8,1155.136c97.918,36.577,147.646,145.607,111.068,243.526S992.258,1546.308,894.34,1509.731s-147.646-145.607-111.068-243.526,145.607-147.646,243.526-111.069" transform="translate(-771.255 -1143.12)" fill="#b2e100"/>
                      </g>
                    </g>
                  </g>
                  <g id="Group_200" data-name="Group 200" transform="translate(1.268 120.645)" opacity="0.32">
                    <g id="Group_199" data-name="Group 199">
                      <g id="Group_198" data-name="Group 198" clip-path="url(#clip-path-11)">
                        <path id="Path_464" data-name="Path 464" d="M756.043,1054c97.918,36.577,147.646,145.607,111.068,243.526S721.5,1445.17,623.586,1408.593,475.94,1262.986,512.518,1165.067,658.125,1017.421,756.043,1054" transform="translate(-500.5 -1041.981)" fill="#ffbe61"/>
                      </g>
                    </g>
                  </g>
                  <g id="Group_203" data-name="Group 203" transform="translate(148.699 3.596)" opacity="0.32">
                    <g id="Group_202" data-name="Group 202">
                      <g id="Group_201" data-name="Group 201" clip-path="url(#clip-path-12)">
                        <path id="Path_465" data-name="Path 465" d="M978.668,875.2c96.982,36.227,146.233,144.214,110.006,241.2s-144.214,146.233-241.2,110.006S701.245,1082.183,737.472,985.2,881.687,838.968,978.668,875.2" transform="translate(-725.57 -863.293)" fill="#72aff8"/>
                      </g>
                    </g>
                  </g>
                  <path id="Path_466" data-name="Path 466" d="M783.917,1330.727h0a190.034,190.034,0,0,0,176.917,66.851,189.7,189.7,0,0,1-145.413,119.029,189.7,189.7,0,0,1-31.506-185.879" transform="translate(-592.972 -1020.939)" fill="#b2e100"/>
                  <path id="Path_467" data-name="Path 467" d="M1044.125,1331.916v0a190.035,190.035,0,0,0-31.826-186.428,189.7,189.7,0,0,1,176.234,65.226,189.7,189.7,0,0,1-144.406,121.2" transform="translate(-675.778 -956.159)" fill="#72aff8"/>
                  <path id="Path_468" data-name="Path 468" d="M767.889,1230.95h0a190.037,190.037,0,0,1,146.256-119.907,189.7,189.7,0,0,0-175.837-66.288,189.7,189.7,0,0,0,29.579,186.2" transform="translate(-577.023 -921.49)" fill="#ffbe61"/>
                  <path id="Path_469" data-name="Path 469" d="M790.576,1266.9c24.276-64.987,81.064-108.459,145.379-119.14,41.562,50.231,55.95,120.29,31.675,185.277-.212.567-.421,1.126-.641,1.69a191.519,191.519,0,0,1-176.789-66.8c.119-.343.25-.691.377-1.032" transform="translate(-599.165 -957.824)" fill="#fff"/>
                </g>
              </g>
              <g id="Group_225" data-name="Group 225" transform="translate(109.505 274.148)">
                <g id="Group_224" data-name="Group 224" clip-path="url(#clip-path-13)">
                  <g id="Group_208" data-name="Group 208" transform="translate(-0.989 -274.148)" opacity="0.32">
                    <g id="Group_207" data-name="Group 207">
                      <g id="Group_206" data-name="Group 206" clip-path="url(#clip-path-14)">
                        <path id="Path_471" data-name="Path 471" d="M641.955,429.495C529.378,376.1,481.4,241.554,534.794,128.975S722.735-31.58,835.312,21.814,995.868,209.755,942.475,322.333,754.533,482.889,641.955,429.495" transform="translate(-512.976 0.001)" fill="#b2e100"/>
                      </g>
                    </g>
                  </g>
                  <g id="Group_211" data-name="Group 211" transform="translate(202.92 -177.437)" opacity="0.32">
                    <g id="Group_210" data-name="Group 210" transform="translate(0 0)">
                      <g id="Group_209" data-name="Group 209" clip-path="url(#clip-path-15)">
                        <path id="Path_472" data-name="Path 472" d="M953.245,577.135C840.668,523.74,792.689,389.194,846.084,276.615S1034.025,116.06,1146.6,169.454s160.556,187.941,107.162,300.519S1065.824,630.529,953.245,577.135" transform="translate(-824.265 -147.639)" fill="#ffbe61"/>
                      </g>
                    </g>
                  </g>
                  <g id="Group_214" data-name="Group 214" transform="translate(20.049 -48.916)" opacity="0.32">
                    <g id="Group_213" data-name="Group 213">
                      <g id="Group_212" data-name="Group 212" clip-path="url(#clip-path-16)">
                        <path id="Path_473" data-name="Path 473" d="M672.837,769.234C561.336,716.351,513.817,583.092,566.7,471.59S752.843,312.57,864.344,365.454,1023.365,551.6,970.482,663.1,784.338,822.118,672.837,769.234" transform="translate(-545.092 -343.842)" fill="#72aff8"/>
                      </g>
                    </g>
                  </g>
                  <path id="Path_474" data-name="Path 474" d="M1061,374.44h0a226.524,226.524,0,0,0-203.325-97.379,226.12,226.12,0,0,1,184.8-126.588A226.132,226.132,0,0,1,1061,374.44" transform="translate(-632.869 -326.054)" fill="#b2e100"/>
                  <path id="Path_475" data-name="Path 475" d="M759.852,345.246v0A226.525,226.525,0,0,0,778.7,569.9a226.123,226.123,0,0,1-202.68-95.379A226.131,226.131,0,0,1,759.852,345.246" transform="translate(-535.713 -393.241)" fill="#72aff8"/>
                  <path id="Path_476" data-name="Path 476" d="M1070.27,492.989h0A226.525,226.525,0,0,1,884.375,620.534a226.124,226.124,0,0,0,202.1,96.6,226.133,226.133,0,0,0-16.205-224.147" transform="translate(-642.08 -444.206)" fill="#ffbe61"/>
                  <path id="Path_477" data-name="Path 477" d="M1048.621,441.435c-35.437,74.717-107.3,120.575-184.772,126.723-44.256-63.882-54.224-148.552-18.787-223.269.309-.652.614-1.3.933-1.942a228.294,228.294,0,0,1,203.179,97.3c-.177.4-.367.8-.552,1.188" transform="translate(-621.117 -392.248)" fill="#fff"/>
                  <g id="Group_217" data-name="Group 217" transform="translate(178.621 -47.311)" opacity="0.32">
                    <g id="Group_216" data-name="Group 216">
                      <g id="Group_215" data-name="Group 215" clip-path="url(#clip-path-17)">
                        <path id="Path_478" data-name="Path 478" d="M1042.713,358.3c97.918,36.577,147.646,145.608,111.068,243.526S1008.174,749.474,910.256,712.9,762.61,567.29,799.188,469.371,944.795,321.725,1042.713,358.3" transform="translate(-787.17 -346.288)" fill="#b2e100"/>
                      </g>
                    </g>
                  </g>
                  <g id="Group_220" data-name="Group 220" transform="translate(1.265 -113.563)" opacity="0.32">
                    <g id="Group_219" data-name="Group 219">
                      <g id="Group_218" data-name="Group 218" clip-path="url(#clip-path-18)">
                        <path id="Path_479" data-name="Path 479" d="M771.959,257.165C869.877,293.742,919.6,402.772,883.028,500.69S737.42,648.336,639.5,611.759,491.856,466.152,528.434,368.233,674.041,220.587,771.959,257.165" transform="translate(-516.416 -245.149)" fill="#ffbe61"/>
                      </g>
                    </g>
                  </g>
                  <g id="Group_223" data-name="Group 223" transform="translate(148.696 -230.613)" opacity="0.32">
                    <g id="Group_222" data-name="Group 222">
                      <g id="Group_221" data-name="Group 221" clip-path="url(#clip-path-19)">
                        <path id="Path_480" data-name="Path 480" d="M994.583,78.361c96.982,36.227,146.233,144.214,110.006,241.2S960.376,465.79,863.394,429.563s-146.233-144.214-110.007-241.2S897.6,42.134,994.583,78.361" transform="translate(-741.486 -66.46)" fill="#72aff8"/>
                      </g>
                    </g>
                  </g>
                  <path id="Path_481" data-name="Path 481" d="M799.833,533.893h0a190.035,190.035,0,0,0,176.917,66.85A189.7,189.7,0,0,1,831.339,719.772a189.7,189.7,0,0,1-31.506-185.879" transform="translate(-608.892 -458.316)" fill="#b2e100"/>
                  <path id="Path_482" data-name="Path 482" d="M1060.041,535.082v0a190.036,190.036,0,0,0-31.826-186.428,189.7,189.7,0,0,1,176.234,65.226,189.7,189.7,0,0,1-144.406,121.2" transform="translate(-691.698 -393.535)" fill="#72aff8"/>
                  <path id="Path_483" data-name="Path 483" d="M783.805,434.116h0A190.037,190.037,0,0,1,930.064,314.208,189.7,189.7,0,0,0,754.227,247.92a189.7,189.7,0,0,0,29.579,186.2" transform="translate(-592.942 -358.866)" fill="#ffbe61"/>
                  <path id="Path_484" data-name="Path 484" d="M806.492,470.064c24.276-64.987,81.064-108.459,145.378-119.14,41.562,50.231,55.95,120.29,31.675,185.277-.212.567-.421,1.126-.641,1.69a191.519,191.519,0,0,1-176.789-66.8c.119-.343.25-.691.377-1.032" transform="translate(-615.084 -395.2)" fill="#fff"/>
                </g>
              </g>
            </g>
          </g>
        </g>
      </g>
    </g>
  </g>
</svg>
