<svg xmlns="http://www.w3.org/2000/svg" xmlns:xlink="http://www.w3.org/1999/xlink" width="121.914" height="114.404" viewBox="0 0 121.914 114.404"><defs><clipPath id="a"><rect width="121.914" height="114.404" fill="none"/></clipPath></defs><g clip-path="url(#a)"><path d="M54.217,110.1h0a61.75,61.75,0,0,0,61.455.233A61.64,61.64,0,0,1,84.943,163.1a61.643,61.643,0,0,1-30.726-53" transform="translate(-23.98 -48.699)" fill="#bababa"/><path d="M140,61.314h0A61.75,61.75,0,0,0,109.113,8.184,61.64,61.64,0,0,1,170.175,8,61.643,61.643,0,0,1,140,61.314" transform="translate(-48.261 0)" fill="#a5a5a5"/><path d="M30.175,61.314h0A61.749,61.749,0,0,1,61.062,8.184,61.641,61.641,0,0,0,0,8,61.643,61.643,0,0,0,30.175,61.314" transform="translate(0 0)" fill="#c7c7c7"/><path d="M54.326,67.748a60.886,60.886,0,0,1,30.706-52.8,60.889,60.889,0,0,1,30.709,52.8c0,.2,0,.391,0,.587a62.231,62.231,0,0,1-61.409-.23c0-.118,0-.239,0-.357" transform="translate(-24.028 -6.613)" fill="#fff"/><path d="M54.326,67.748a60.886,60.886,0,0,1,30.706-52.8,60.889,60.889,0,0,1,30.709,52.8c0,.2,0,.391,0,.587a62.231,62.231,0,0,1-61.409-.23C54.326,67.987,54.326,67.866,54.326,67.748Z" transform="translate(-24.028 -6.613)" fill="none" stroke="#fff" stroke-linecap="round" stroke-linejoin="round" stroke-width="1.197"/><path d="M90.086,70.361h5.508c.044,2.292,1.762,3.834,5.2,3.834,3.481,0,5.2-1.542,5.2-3.834,0-2.511-2.688-3-5.816-3.569-4.362-.793-9.517-1.718-9.517-8.416,0-5.331,4.053-9.076,10.178-9.076,5.948,0,9.958,3.569,10.178,8.856h-5.331c-.045-2.2-1.675-3.789-4.8-3.789-3.172,0-4.758,1.718-4.758,3.833,0,2.511,2.688,3,5.816,3.569,4.362.793,9.561,1.718,9.561,8.415,0,5.6-4.274,9.077-10.707,9.077-6.388,0-10.575-3.392-10.707-8.9" transform="translate(-39.845 -21.806)" fill="#525252"/></g></svg>