<svg xmlns="http://www.w3.org/2000/svg" xmlns:xlink="http://www.w3.org/1999/xlink" width="104.431" height="114.998" viewBox="0 0 104.431 114.998"><defs><clipPath id="a"><rect width="104.431" height="114.998" fill="#434343"/></clipPath></defs><g clip-path="url(#a)"><path d="M11.03,250.827a.824.824,0,0,1-.158-.041l-3.655-.945c-.842-.287-1.4-.475-1.636-.555a7.529,7.529,0,0,1-1.325-.72,2.607,2.607,0,0,1-1.062-2.007,3.336,3.336,0,0,1,1.235-2.528,4.53,4.53,0,0,1,3.161-1.137,5.456,5.456,0,0,1,1.909.348,6.716,6.716,0,0,1,1.56.794,8.068,8.068,0,0,1,1.281,1.186c.447.5.77.891.961,1.155s.426.617.688,1.032l.084.133h1.009l-.037-4.347-1.36-.427a30.2,30.2,0,0,0-3.017-.737,16.905,16.905,0,0,0-3.244-.371,8.447,8.447,0,0,0-5.253,1.653,5.252,5.252,0,0,0-1.615,2.069A6.225,6.225,0,0,0,0,247.92c0,2.822,1.807,4.879,5.39,6.119l4.5,1.237c.035.005.12.026.256.059q.251.063.471.141c.156.056.369.128.637.218a5.284,5.284,0,0,1,.692.283q.322.162.693.387a3.807,3.807,0,0,1,.634.479,4.077,4.077,0,0,1,.511.589,2.4,2.4,0,0,1,.34.712,3.052,3.052,0,0,1,.121.865,3.987,3.987,0,0,1-.093.837,3.252,3.252,0,0,1-.429.973,3.712,3.712,0,0,1-.863.971,4.607,4.607,0,0,1-1.515.714,8.117,8.117,0,0,1-2.325.3,8.311,8.311,0,0,1-2.841-.482,6.947,6.947,0,0,1-2.249-1.29A11.38,11.38,0,0,1,2.373,259.4a10.41,10.41,0,0,1-1.035-1.648l-.079-.158H.365v4.27l.382.218a17.367,17.367,0,0,0,8.37,1.927A9.26,9.26,0,0,0,15.1,262.12a6.021,6.021,0,0,0,2.4-4.9c0-3.143-2.172-5.291-6.473-6.388" transform="translate(0 -167.812)" fill="#434343"/><path d="M69.087,255.479c3.034-.634,5.081-1.373,6.255-2.259a4.718,4.718,0,0,0,1.807-4,5.514,5.514,0,0,0-2.229-4.745c-1.427-1-3.621-1.513-6.522-1.513H61.273v.821l.246.2a2.207,2.207,0,0,1,.225.426,1.678,1.678,0,0,1,.127.668l.033,17.353a1.363,1.363,0,0,1-.512,1.139l-.118.085v.83h5.618v-.8l-.241-.238a.94.94,0,0,1-.231-.37,1.785,1.785,0,0,1-.126-.7v-5.362a5.41,5.41,0,0,1,2.794-1.529m2.924-9.876a5.585,5.585,0,0,1,1.247,3.621,4.263,4.263,0,0,1-1.087,2.993A8.867,8.867,0,0,1,68.6,254.3a8.6,8.6,0,0,0-2.311,1.136L66.26,244.1H68.5a4.236,4.236,0,0,1,3.514,1.5" transform="translate(-42.549 -168.717)" fill="#434343"/><path d="M122.929,263.108a7.3,7.3,0,0,1-.582-.756l-8.774-19.39h-.808l-7.884,19.356c-.59.938-.911,1.161-1.05,1.21l-.189.068v.885H106.6v-.8l-.249-.249a.706.706,0,0,1-.189-.359.9.9,0,0,1,.086-.53l1.389-3.5h8.749l1.575,3.558a.479.479,0,0,1,.085.273.658.658,0,0,1-.041.265,1.762,1.762,0,0,1-.143.257c-.065.1-.076.105-.074.107a.832.832,0,0,0-.123.1l-.083.083v.8h5.983v-.86l-.247-.119a3.348,3.348,0,0,1-.391-.395m-7.059-5.273h-7.736l3.674-9.14Z" transform="translate(-71.97 -168.717)" fill="#434343"/><path d="M182.609,257.187a5.821,5.821,0,0,1-5.2,3.053,7.256,7.256,0,0,1-2.78-.526,6.1,6.1,0,0,1-2.125-1.426,9.763,9.763,0,0,1-1.516-2.129,9.368,9.368,0,0,1-.918-2.562,18.192,18.192,0,0,1-.344-2.746,10.888,10.888,0,0,1,.194-2.652,11.424,11.424,0,0,1,.712-2.332,5.23,5.23,0,0,1,1.164-1.7,3.221,3.221,0,0,1,1.56-.857,2.9,2.9,0,0,1,3.013.845,8.4,8.4,0,0,1,1.788,4.111l.061.308,5.271-1.581-.147-.3a8.67,8.67,0,0,0-8.39-5.141,9.392,9.392,0,0,0-7.384,3.151,11.616,11.616,0,0,0-2.762,7.991,11.744,11.744,0,0,0,2.762,8.025,9.441,9.441,0,0,0,7.384,3.117,8.78,8.78,0,0,0,3.191-.6,10.052,10.052,0,0,0,2.6-1.437,12.9,12.9,0,0,0,1.9-1.85,13.344,13.344,0,0,0,1.289-1.783,5.677,5.677,0,0,0,.593-1.314l.063-.235-1.365-.607Z" transform="translate(-114.443 -167.736)" fill="#434343"/><path d="M242.534,244.2a3.074,3.074,0,0,1,1.23.258,3.794,3.794,0,0,1,.972.584,4.817,4.817,0,0,1,.688.751,6.861,6.861,0,0,1,.41.6,1.75,1.75,0,0,1,.113.237l.065.195h1.078l-.7-3.858h-13.9v.821l.249.2a1.536,1.536,0,0,1,.243.4,1.516,1.516,0,0,1,.139.658v17.386a1.362,1.362,0,0,1-.513,1.14l-.118.086v.83h13.9l.7-3.858h-1.159v.23c-.027.053-.081.145-.16.276a3.661,3.661,0,0,1-3.24,2.117h-5.026v-9.488h3.2a5.041,5.041,0,0,1,1.178.125,2.219,2.219,0,0,1,.719.273,1.438,1.438,0,0,1,.36.345,1.112,1.112,0,0,1,.18.3v.286h1.136V251.21l-1.081-.063-.08.4a.665.665,0,0,1-.141.219,2.291,2.291,0,0,1-.383.352,1.967,1.967,0,0,1-.71.283,5.02,5.02,0,0,1-1.178.125h-3.2V244.2Z" transform="translate(-161.444 -168.716)" fill="#434343"/><path d="M294.361,250.827a.824.824,0,0,1-.158-.041l-3.655-.945c-.842-.287-1.4-.475-1.636-.555a7.53,7.53,0,0,1-1.325-.72,2.607,2.607,0,0,1-1.062-2.007,3.336,3.336,0,0,1,1.235-2.528,4.53,4.53,0,0,1,3.161-1.137,5.456,5.456,0,0,1,1.909.348,6.722,6.722,0,0,1,1.56.794,8.066,8.066,0,0,1,1.281,1.186c.447.5.77.891.961,1.155s.426.617.688,1.032l.084.133h1.009l-.037-4.347-1.36-.427A30.2,30.2,0,0,0,294,242.03a16.905,16.905,0,0,0-3.244-.371,8.448,8.448,0,0,0-5.253,1.653,5.252,5.252,0,0,0-1.615,2.069,6.226,6.226,0,0,0-.556,2.539c0,2.822,1.807,4.879,5.391,6.119l4.5,1.237c.035.005.12.026.256.059q.251.063.471.141c.156.056.369.128.637.218a5.282,5.282,0,0,1,.692.283q.322.162.693.387a3.808,3.808,0,0,1,.634.479,4.076,4.076,0,0,1,.511.589,2.4,2.4,0,0,1,.34.712,3.052,3.052,0,0,1,.121.865,3.986,3.986,0,0,1-.093.837,3.251,3.251,0,0,1-.429.973,3.712,3.712,0,0,1-.863.971,4.607,4.607,0,0,1-1.515.714,8.117,8.117,0,0,1-2.325.3,8.311,8.311,0,0,1-2.841-.482,6.948,6.948,0,0,1-2.249-1.29A11.381,11.381,0,0,1,285.7,259.4a10.409,10.409,0,0,1-1.035-1.648l-.079-.158H283.7v4.27l.382.218a17.367,17.367,0,0,0,8.37,1.927,9.26,9.26,0,0,0,5.988-1.888,6.021,6.021,0,0,0,2.4-4.9c0-3.143-2.172-5.291-6.473-6.388" transform="translate(-196.75 -167.812)" fill="#434343"/><path d="M227.957,138.519v3.55a1.391,1.391,0,0,1-1.391,1.391H209.578a.02.02,0,0,1-.02-.02V126.105a6.794,6.794,0,0,0-6.536-6.875,6.636,6.636,0,0,0-6.74,6.637V143.44a.02.02,0,0,1-.02.02H179.275a1.391,1.391,0,0,1-1.391-1.391v-3.55a25.036,25.036,0,0,1,50.073,0" transform="translate(-123.526 -78.805)" fill="#434343"/><path d="M227.957,1.37V4.94a25.036,25.036,0,0,1-50.073,0V1.37A1.371,1.371,0,0,1,179.255,0h17.028V17.374a6.781,6.781,0,0,0,6.517,6.855,6.636,6.636,0,0,0,6.759-6.636V0h17.028a1.371,1.371,0,0,1,1.371,1.371" transform="translate(-123.526 0.001)" fill="#434343"/><path d="M48.847,1.377V40.7a23.954,23.954,0,0,1-47.908,0V1.371A1.371,1.371,0,0,1,2.31,0H18.384V52.455a6.624,6.624,0,0,0,6.808,6.635,6.772,6.772,0,0,0,6.473-6.838V0H47.47a1.377,1.377,0,0,1,1.377,1.377" transform="translate(-0.652)" fill="#434343"/><path d="M182.647,343.085a2.666,2.666,0,0,1,1.221-.277,2.755,2.755,0,0,1,1.432.38,2.672,2.672,0,0,1,1.009,1.08,3.378,3.378,0,0,1,.369,1.6,3.444,3.444,0,0,1-.369,1.611,2.758,2.758,0,0,1-1.014,1.107,2.839,2.839,0,0,1-2.658.125,2.367,2.367,0,0,1-.852-.694v.868h-1.236v-8.028h1.236v2.94a2.346,2.346,0,0,1,.863-.711m2.517,1.714a1.75,1.75,0,0,0-.673-.683,1.807,1.807,0,0,0-.9-.233,1.756,1.756,0,0,0-.884.239,1.777,1.777,0,0,0-.673.694,2.166,2.166,0,0,0-.255,1.074,2.2,2.2,0,0,0,.255,1.08,1.764,1.764,0,0,0,1.557.938,1.743,1.743,0,0,0,.9-.244,1.8,1.8,0,0,0,.673-.711,2.226,2.226,0,0,0,.255-1.085,2.134,2.134,0,0,0-.255-1.069" transform="translate(-125.376 -236.696)" fill="#434343"/><path d="M210.172,347.565l-3.667,8.788h-1.28l1.215-2.908-2.354-5.88h1.378l1.682,4.557,1.747-4.557Z" transform="translate(-141.72 -241.355)" fill="#434343"/><path d="M241.074,348.995h2.55v1h-3.786v-7.54h1.237Z" transform="translate(-166.547 -237.805)" fill="#434343"/><path d="M256.4,348.711a2.727,2.727,0,0,1,2.447-1.465,2.612,2.612,0,0,1,1.231.277,2.507,2.507,0,0,1,.841.689v-.868h1.248v5.978h-1.248v-.89a2.456,2.456,0,0,1-.857.7,2.773,2.773,0,0,1-2.647-.114,2.8,2.8,0,0,1-1.015-1.107,3.4,3.4,0,0,1-.374-1.611,3.307,3.307,0,0,1,.374-1.595m4.264.542a1.791,1.791,0,0,0-.667-.694,1.748,1.748,0,0,0-.89-.239,1.779,1.779,0,0,0-.89.233,1.761,1.761,0,0,0-.667.684,2.132,2.132,0,0,0-.255,1.069,2.224,2.224,0,0,0,.255,1.085,1.8,1.8,0,0,0,.673.711,1.724,1.724,0,0,0,.884.244,1.745,1.745,0,0,0,.89-.239,1.779,1.779,0,0,0,.667-.7,2.2,2.2,0,0,0,.255-1.08,2.166,2.166,0,0,0-.255-1.074" transform="translate(-177.789 -241.134)" fill="#434343"/><path d="M283.5,345.2v3.309a.634.634,0,0,0,.157.483.782.782,0,0,0,.537.146h.76v1.031h-.977a1.881,1.881,0,0,1-1.28-.391,1.608,1.608,0,0,1-.445-1.269V345.2h-.705v-1.009h.705V342.7H283.5v1.486h1.454V345.2Z" transform="translate(-195.515 -237.977)" fill="#434343"/><path d="M300.3,343.085a2.667,2.667,0,0,1,1.221-.277,2.755,2.755,0,0,1,1.432.38,2.671,2.671,0,0,1,1.009,1.08,3.378,3.378,0,0,1,.369,1.6,3.444,3.444,0,0,1-.369,1.611,2.758,2.758,0,0,1-1.014,1.107,2.839,2.839,0,0,1-2.658.125,2.367,2.367,0,0,1-.852-.694v.868H298.2v-8.028h1.236v2.94a2.347,2.347,0,0,1,.863-.711m2.517,1.714a1.749,1.749,0,0,0-.673-.683,1.807,1.807,0,0,0-.9-.233,1.756,1.756,0,0,0-.884.239,1.777,1.777,0,0,0-.673.694,2.166,2.166,0,0,0-.255,1.074,2.2,2.2,0,0,0,.255,1.08,1.764,1.764,0,0,0,1.557.938,1.744,1.744,0,0,0,.9-.244,1.8,1.8,0,0,0,.673-.711,2.226,2.226,0,0,0,.255-1.085,2.134,2.134,0,0,0-.255-1.069" transform="translate(-207.078 -236.696)" fill="#434343"/><path d="M323.073,348.705a2.664,2.664,0,0,1,1.036-1.08,3.313,3.313,0,0,1,3.314.136,2.538,2.538,0,0,1,.96,1.47H327.05a1.413,1.413,0,0,0-.521-.694,1.538,1.538,0,0,0-.9-.25,1.5,1.5,0,0,0-1.21.537,2.744,2.744,0,0,0,0,3.011,1.492,1.492,0,0,0,1.21.542,1.373,1.373,0,0,0,1.422-.944h1.334a2.669,2.669,0,0,1-.976,1.448,2.881,2.881,0,0,1-1.779.537,2.963,2.963,0,0,1-1.519-.385,2.7,2.7,0,0,1-1.036-1.085,3.7,3.7,0,0,1,0-3.244" transform="translate(-224.088 -241.134)" fill="#434343"/></g></svg>