<svg xmlns="http://www.w3.org/2000/svg" xmlns:xlink="http://www.w3.org/1999/xlink" width="811.398" height="1079.073" viewBox="0 0 811.398 1079.073">
  <defs>
    <clipPath id="clip-path">
      <rect id="Rectangle_130" data-name="Rectangle 130" width="811.398" height="1079.073" transform="translate(0 -0.002)" fill="none"/>
    </clipPath>
  </defs>
  <g id="ux-pattern" transform="translate(0 0.002)" opacity="0.411" clip-path="url(#clip-path)">
    <path id="Path_773" data-name="Path 773" d="M115.262,66.088v3.929a1.539,1.539,0,0,1-1.54,1.539h-18.8a.022.022,0,0,1-.022-.022V52.349a7.519,7.519,0,0,0-7.233-7.609,7.344,7.344,0,0,0-7.459,7.345V71.534a.022.022,0,0,1-.022.022h-18.8a1.539,1.539,0,0,1-1.54-1.539V66.088a27.709,27.709,0,0,1,55.418,0" fill="#442e2d"/>
    <path id="Path_774" data-name="Path 774" d="M115.262,1.515V5.466a27.709,27.709,0,0,1-55.418,0V1.515A1.517,1.517,0,0,1,61.361,0H80.207V19.227a7.5,7.5,0,0,0,7.212,7.587,7.345,7.345,0,0,0,7.48-7.345V0h18.846a1.517,1.517,0,0,1,1.517,1.517" fill="#442e2d"/>
    <path id="Path_775" data-name="Path 775" d="M53.022,1.522V45.045A26.511,26.511,0,1,1,0,45.045V1.516A1.518,1.518,0,0,1,1.517,0h17.79V58.053a7.333,7.333,0,0,0,7.818,7.331A7.514,7.514,0,0,0,34.006,57.8V0H51.5a1.524,1.524,0,0,1,1.524,1.524" fill="#442e2d"/>
    <path id="Path_776" data-name="Path 776" d="M240.523,66.088v3.929a1.539,1.539,0,0,1-1.54,1.539h-18.8a.022.022,0,0,1-.022-.022V52.349a7.519,7.519,0,0,0-7.233-7.609,7.344,7.344,0,0,0-7.459,7.345V71.534a.022.022,0,0,1-.022.022h-18.8a1.539,1.539,0,0,1-1.54-1.539V66.088a27.709,27.709,0,0,1,55.418,0" fill="#442e2d"/>
    <path id="Path_777" data-name="Path 777" d="M240.523,1.515V5.466a27.709,27.709,0,0,1-55.418,0V1.515A1.517,1.517,0,0,1,186.622,0h18.846V19.227a7.5,7.5,0,0,0,7.212,7.587,7.345,7.345,0,0,0,7.48-7.345V0h18.846a1.517,1.517,0,0,1,1.517,1.517" fill="#442e2d"/>
    <path id="Path_778" data-name="Path 778" d="M178.284,1.522V45.045a26.511,26.511,0,1,1-53.022,0V1.516A1.518,1.518,0,0,1,126.779,0h17.79V58.053a7.333,7.333,0,0,0,7.818,7.331,7.514,7.514,0,0,0,6.881-7.583V0H176.76a1.524,1.524,0,0,1,1.524,1.524" fill="#442e2d"/>
    <path id="Path_779" data-name="Path 779" d="M365.785,66.088v3.929a1.539,1.539,0,0,1-1.54,1.539h-18.8a.022.022,0,0,1-.022-.022V52.349a7.519,7.519,0,0,0-7.233-7.609,7.344,7.344,0,0,0-7.459,7.345V71.534a.022.022,0,0,1-.022.022h-18.8a1.539,1.539,0,0,1-1.54-1.539V66.088a27.709,27.709,0,0,1,55.418,0" fill="#442e2d"/>
    <path id="Path_780" data-name="Path 780" d="M365.785,1.515V5.466a27.709,27.709,0,0,1-55.418,0V1.515A1.517,1.517,0,0,1,311.884,0H330.73V19.227a7.5,7.5,0,0,0,7.212,7.587,7.345,7.345,0,0,0,7.48-7.345V0h18.846a1.517,1.517,0,0,1,1.517,1.517" fill="#442e2d"/>
    <path id="Path_781" data-name="Path 781" d="M303.545,1.522V45.045a26.511,26.511,0,0,1-53.022,0V1.516A1.518,1.518,0,0,1,252.04,0h17.79V58.053a7.333,7.333,0,0,0,7.818,7.331,7.514,7.514,0,0,0,6.881-7.583V0h17.492a1.524,1.524,0,0,1,1.524,1.524" fill="#442e2d"/>
    <path id="Path_782" data-name="Path 782" d="M491.046,66.088v3.929a1.539,1.539,0,0,1-1.54,1.539H470.7a.022.022,0,0,1-.022-.022V52.349a7.519,7.519,0,0,0-7.233-7.609,7.344,7.344,0,0,0-7.459,7.345V71.534a.022.022,0,0,1-.022.022h-18.8a1.539,1.539,0,0,1-1.54-1.539V66.088a27.709,27.709,0,0,1,55.418,0" fill="#442e2d"/>
    <path id="Path_783" data-name="Path 783" d="M491.046,1.515V5.466a27.709,27.709,0,0,1-55.418,0V1.515A1.517,1.517,0,0,1,437.145,0h18.846V19.227a7.5,7.5,0,0,0,7.212,7.587,7.345,7.345,0,0,0,7.48-7.345V0h18.846a1.517,1.517,0,0,1,1.517,1.517" fill="#442e2d"/>
    <path id="Path_784" data-name="Path 784" d="M428.807,1.522V45.045a26.511,26.511,0,0,1-53.022,0V1.516A1.518,1.518,0,0,1,377.3,0h17.79V58.053a7.333,7.333,0,0,0,7.818,7.331,7.514,7.514,0,0,0,6.881-7.583V0h17.492a1.524,1.524,0,0,1,1.524,1.524" fill="#442e2d"/>
    <path id="Path_785" data-name="Path 785" d="M616.308,66.088v3.929a1.539,1.539,0,0,1-1.54,1.539h-18.8a.022.022,0,0,1-.022-.022V52.349a7.519,7.519,0,0,0-7.233-7.609,7.344,7.344,0,0,0-7.459,7.345V71.534a.022.022,0,0,1-.022.022h-18.8a1.539,1.539,0,0,1-1.54-1.539V66.088a27.709,27.709,0,1,1,55.418,0" fill="#442e2d"/>
    <path id="Path_786" data-name="Path 786" d="M616.308,1.515V5.466a27.709,27.709,0,1,1-55.418,0V1.515A1.517,1.517,0,0,1,562.407,0h18.846V19.227a7.5,7.5,0,0,0,7.212,7.587,7.345,7.345,0,0,0,7.48-7.345V0h18.846a1.517,1.517,0,0,1,1.517,1.517" fill="#442e2d"/>
    <path id="Path_787" data-name="Path 787" d="M554.068,1.522V45.045a26.511,26.511,0,1,1-53.022,0V1.516A1.518,1.518,0,0,1,502.563,0h17.79V58.053a7.333,7.333,0,0,0,7.819,7.331,7.513,7.513,0,0,0,6.88-7.583V0h17.492a1.524,1.524,0,0,1,1.524,1.524" fill="#442e2d"/>
    <path id="Path_788" data-name="Path 788" d="M741.57,66.088v3.929a1.54,1.54,0,0,1-1.54,1.539h-18.8a.022.022,0,0,1-.022-.022V52.349a7.519,7.519,0,0,0-7.233-7.609,7.344,7.344,0,0,0-7.459,7.345V71.534a.022.022,0,0,1-.023.022h-18.8a1.54,1.54,0,0,1-1.541-1.539V66.088a27.71,27.71,0,0,1,55.419,0" fill="#442e2d"/>
    <path id="Path_789" data-name="Path 789" d="M741.57,1.515V5.466a27.71,27.71,0,0,1-55.419,0V1.515A1.518,1.518,0,0,1,687.669,0h18.846V19.227a7.5,7.5,0,0,0,7.212,7.587,7.345,7.345,0,0,0,7.48-7.345V0h18.845a1.517,1.517,0,0,1,1.518,1.517" fill="#442e2d"/>
    <path id="Path_790" data-name="Path 790" d="M679.33,1.522V45.045a26.511,26.511,0,0,1-53.022,0V1.516A1.518,1.518,0,0,1,627.825,0h17.79V58.053a7.333,7.333,0,0,0,7.818,7.331,7.514,7.514,0,0,0,6.881-7.583V0h17.492a1.524,1.524,0,0,1,1.524,1.524" fill="#442e2d"/>
    <path id="Path_791" data-name="Path 791" d="M804.592,1.522V45.045a26.511,26.511,0,1,1-53.022,0V1.516A1.518,1.518,0,0,1,753.087,0h17.79V58.053a7.333,7.333,0,0,0,7.818,7.331,7.514,7.514,0,0,0,6.881-7.583V0h17.492a1.524,1.524,0,0,1,1.524,1.524" fill="#442e2d"/>
    <path id="Path_792" data-name="Path 792" d="M115.262,147.646v3.929a1.539,1.539,0,0,1-1.54,1.539h-18.8a.022.022,0,0,1-.022-.022V133.907a7.519,7.519,0,0,0-7.233-7.609,7.344,7.344,0,0,0-7.459,7.345v19.449a.022.022,0,0,1-.022.022h-18.8a1.539,1.539,0,0,1-1.54-1.539v-3.929a27.709,27.709,0,0,1,55.418,0" fill="#442e2d"/>
    <path id="Path_793" data-name="Path 793" d="M115.262,83.073v3.952a27.709,27.709,0,0,1-55.418,0V83.073a1.516,1.516,0,0,1,1.517-1.516H80.207v19.229a7.5,7.5,0,0,0,7.212,7.586,7.345,7.345,0,0,0,7.48-7.345V81.557h18.846a1.516,1.516,0,0,1,1.517,1.516" fill="#442e2d"/>
    <path id="Path_794" data-name="Path 794" d="M53.022,83.08V126.6A26.511,26.511,0,1,1,0,126.6V83.074a1.518,1.518,0,0,1,1.517-1.518h17.79v58.055a7.333,7.333,0,0,0,7.818,7.331,7.514,7.514,0,0,0,6.881-7.583v-57.8H51.5a1.524,1.524,0,0,1,1.524,1.524" fill="#442e2d"/>
    <path id="Path_795" data-name="Path 795" d="M240.523,147.646v3.929a1.539,1.539,0,0,1-1.54,1.539h-18.8a.022.022,0,0,1-.022-.022V133.907a7.519,7.519,0,0,0-7.233-7.609,7.344,7.344,0,0,0-7.459,7.345v19.449a.022.022,0,0,1-.022.022h-18.8a1.539,1.539,0,0,1-1.54-1.539v-3.929a27.709,27.709,0,0,1,55.418,0" fill="#442e2d"/>
    <path id="Path_796" data-name="Path 796" d="M240.523,83.073v3.952a27.709,27.709,0,0,1-55.418,0V83.073a1.516,1.516,0,0,1,1.517-1.516h18.846v19.229a7.5,7.5,0,0,0,7.212,7.586,7.345,7.345,0,0,0,7.48-7.345V81.557h18.846a1.516,1.516,0,0,1,1.517,1.516" fill="#442e2d"/>
    <path id="Path_797" data-name="Path 797" d="M178.284,83.08V126.6a26.511,26.511,0,1,1-53.022,0V83.074a1.518,1.518,0,0,1,1.517-1.518h17.79v58.055a7.333,7.333,0,0,0,7.818,7.331,7.514,7.514,0,0,0,6.881-7.583v-57.8H176.76a1.524,1.524,0,0,1,1.524,1.524" fill="#442e2d"/>
    <path id="Path_798" data-name="Path 798" d="M365.785,147.646v3.929a1.539,1.539,0,0,1-1.54,1.539h-18.8a.022.022,0,0,1-.022-.022V133.907a7.519,7.519,0,0,0-7.233-7.609,7.344,7.344,0,0,0-7.459,7.345v19.449a.022.022,0,0,1-.022.022h-18.8a1.539,1.539,0,0,1-1.54-1.539v-3.929a27.709,27.709,0,1,1,55.418,0" fill="#442e2d"/>
    <path id="Path_799" data-name="Path 799" d="M365.785,83.073v3.952a27.709,27.709,0,0,1-55.418,0V83.073a1.516,1.516,0,0,1,1.517-1.516H330.73v19.229a7.5,7.5,0,0,0,7.212,7.586,7.345,7.345,0,0,0,7.48-7.345V81.557h18.846a1.516,1.516,0,0,1,1.517,1.516" fill="#442e2d"/>
    <path id="Path_800" data-name="Path 800" d="M303.545,83.08V126.6a26.511,26.511,0,0,1-53.022,0V83.074a1.518,1.518,0,0,1,1.517-1.518h17.79v58.055a7.333,7.333,0,0,0,7.818,7.331,7.513,7.513,0,0,0,6.881-7.583v-57.8h17.492a1.524,1.524,0,0,1,1.524,1.524" fill="#442e2d"/>
    <path id="Path_801" data-name="Path 801" d="M491.046,147.646v3.929a1.539,1.539,0,0,1-1.54,1.539H470.7a.022.022,0,0,1-.022-.022V133.907a7.519,7.519,0,0,0-7.233-7.609,7.344,7.344,0,0,0-7.459,7.345v19.449a.022.022,0,0,1-.022.022h-18.8a1.539,1.539,0,0,1-1.54-1.539v-3.929a27.709,27.709,0,0,1,55.418,0" fill="#442e2d"/>
    <path id="Path_802" data-name="Path 802" d="M491.046,83.073v3.952a27.709,27.709,0,0,1-55.418,0V83.073a1.516,1.516,0,0,1,1.517-1.516h18.846v19.229a7.5,7.5,0,0,0,7.212,7.586,7.345,7.345,0,0,0,7.48-7.345V81.557h18.846a1.516,1.516,0,0,1,1.517,1.516" fill="#442e2d"/>
    <path id="Path_803" data-name="Path 803" d="M428.807,83.08V126.6a26.511,26.511,0,0,1-53.022,0V83.074a1.518,1.518,0,0,1,1.517-1.518h17.79v58.055a7.333,7.333,0,0,0,7.818,7.331,7.513,7.513,0,0,0,6.881-7.583v-57.8h17.492a1.524,1.524,0,0,1,1.524,1.524" fill="#442e2d"/>
    <path id="Path_804" data-name="Path 804" d="M616.308,147.646v3.929a1.539,1.539,0,0,1-1.54,1.539h-18.8a.022.022,0,0,1-.022-.022V133.907a7.519,7.519,0,0,0-7.233-7.609,7.344,7.344,0,0,0-7.459,7.345v19.449a.022.022,0,0,1-.022.022h-18.8a1.539,1.539,0,0,1-1.54-1.539v-3.929a27.709,27.709,0,1,1,55.418,0" fill="#442e2d"/>
    <path id="Path_805" data-name="Path 805" d="M616.308,83.073v3.952a27.709,27.709,0,0,1-55.418,0V83.073a1.516,1.516,0,0,1,1.517-1.516h18.846v19.229a7.5,7.5,0,0,0,7.212,7.586,7.345,7.345,0,0,0,7.48-7.345V81.557h18.846a1.516,1.516,0,0,1,1.517,1.516" fill="#442e2d"/>
    <path id="Path_806" data-name="Path 806" d="M554.068,83.08V126.6a26.511,26.511,0,1,1-53.022,0V83.074a1.518,1.518,0,0,1,1.517-1.518h17.79v58.055a7.333,7.333,0,0,0,7.819,7.331,7.513,7.513,0,0,0,6.88-7.583v-57.8h17.492a1.524,1.524,0,0,1,1.524,1.524" fill="#442e2d"/>
    <path id="Path_807" data-name="Path 807" d="M741.57,147.646v3.929a1.54,1.54,0,0,1-1.54,1.539h-18.8a.022.022,0,0,1-.022-.022V133.907a7.519,7.519,0,0,0-7.233-7.609,7.344,7.344,0,0,0-7.459,7.345v19.449a.022.022,0,0,1-.023.022h-18.8a1.54,1.54,0,0,1-1.541-1.539v-3.929a27.71,27.71,0,0,1,55.419,0" fill="#442e2d"/>
    <path id="Path_808" data-name="Path 808" d="M741.57,83.073v3.952a27.71,27.71,0,0,1-55.419,0V83.073a1.517,1.517,0,0,1,1.518-1.516h18.846v19.229a7.5,7.5,0,0,0,7.212,7.586,7.345,7.345,0,0,0,7.48-7.345V81.557h18.845a1.516,1.516,0,0,1,1.518,1.516" fill="#442e2d"/>
    <path id="Path_809" data-name="Path 809" d="M679.33,83.08V126.6a26.511,26.511,0,0,1-53.022,0V83.074a1.518,1.518,0,0,1,1.517-1.518h17.79v58.055a7.333,7.333,0,0,0,7.818,7.331,7.514,7.514,0,0,0,6.881-7.583v-57.8h17.492a1.524,1.524,0,0,1,1.524,1.524" fill="#442e2d"/>
    <path id="Path_810" data-name="Path 810" d="M804.592,83.08V126.6a26.511,26.511,0,1,1-53.022,0V83.074a1.518,1.518,0,0,1,1.517-1.518h17.79v58.055a7.333,7.333,0,0,0,7.818,7.331,7.513,7.513,0,0,0,6.881-7.583v-57.8h17.492a1.524,1.524,0,0,1,1.524,1.524" fill="#442e2d"/>
    <path id="Path_811" data-name="Path 811" d="M115.262,229.2v3.929a1.539,1.539,0,0,1-1.54,1.539h-18.8a.022.022,0,0,1-.022-.022V215.465a7.519,7.519,0,0,0-7.233-7.609,7.344,7.344,0,0,0-7.459,7.345V234.65a.022.022,0,0,1-.022.022h-18.8a1.539,1.539,0,0,1-1.54-1.539V229.2a27.709,27.709,0,0,1,55.418,0" fill="#442e2d"/>
    <path id="Path_812" data-name="Path 812" d="M115.262,164.631v3.951a27.709,27.709,0,0,1-55.418,0v-3.951a1.517,1.517,0,0,1,1.517-1.517H80.207v19.229a7.5,7.5,0,0,0,7.212,7.587,7.345,7.345,0,0,0,7.48-7.345V163.114h18.846a1.517,1.517,0,0,1,1.517,1.517" fill="#442e2d"/>
    <path id="Path_813" data-name="Path 813" d="M53.022,164.638v43.523a26.511,26.511,0,1,1-53.022,0V164.632a1.518,1.518,0,0,1,1.517-1.518h17.79v58.055a7.333,7.333,0,0,0,7.818,7.331,7.514,7.514,0,0,0,6.881-7.583v-57.8H51.5a1.524,1.524,0,0,1,1.524,1.524" fill="#442e2d"/>
    <path id="Path_814" data-name="Path 814" d="M240.523,229.2v3.929a1.539,1.539,0,0,1-1.54,1.539h-18.8a.022.022,0,0,1-.022-.022V215.465a7.519,7.519,0,0,0-7.233-7.609,7.344,7.344,0,0,0-7.459,7.345V234.65a.022.022,0,0,1-.022.022h-18.8a1.539,1.539,0,0,1-1.54-1.539V229.2a27.709,27.709,0,1,1,55.418,0" fill="#442e2d"/>
    <path id="Path_815" data-name="Path 815" d="M240.523,164.631v3.951a27.709,27.709,0,0,1-55.418,0v-3.951a1.517,1.517,0,0,1,1.517-1.517h18.846v19.229a7.5,7.5,0,0,0,7.212,7.587,7.345,7.345,0,0,0,7.48-7.345V163.114h18.846a1.517,1.517,0,0,1,1.517,1.517" fill="#442e2d"/>
    <path id="Path_816" data-name="Path 816" d="M178.284,164.638v43.523a26.511,26.511,0,1,1-53.022,0V164.632a1.518,1.518,0,0,1,1.517-1.518h17.79v58.055a7.333,7.333,0,0,0,7.818,7.331,7.514,7.514,0,0,0,6.881-7.583v-57.8H176.76a1.524,1.524,0,0,1,1.524,1.524" fill="#442e2d"/>
    <path id="Path_817" data-name="Path 817" d="M365.785,229.2v3.929a1.539,1.539,0,0,1-1.54,1.539h-18.8a.022.022,0,0,1-.022-.022V215.465a7.519,7.519,0,0,0-7.233-7.609,7.344,7.344,0,0,0-7.459,7.345V234.65a.022.022,0,0,1-.022.022h-18.8a1.539,1.539,0,0,1-1.54-1.539V229.2a27.709,27.709,0,1,1,55.418,0" fill="#442e2d"/>
    <path id="Path_818" data-name="Path 818" d="M365.785,164.631v3.951a27.709,27.709,0,1,1-55.418,0v-3.951a1.517,1.517,0,0,1,1.517-1.517H330.73v19.229a7.5,7.5,0,0,0,7.212,7.587,7.345,7.345,0,0,0,7.48-7.345V163.114h18.846a1.517,1.517,0,0,1,1.517,1.517" fill="#442e2d"/>
    <path id="Path_819" data-name="Path 819" d="M303.545,164.638v43.523a26.511,26.511,0,0,1-53.022,0V164.632a1.518,1.518,0,0,1,1.517-1.518h17.79v58.055a7.333,7.333,0,0,0,7.818,7.331,7.513,7.513,0,0,0,6.881-7.583v-57.8h17.492a1.524,1.524,0,0,1,1.524,1.524" fill="#442e2d"/>
    <path id="Path_820" data-name="Path 820" d="M491.046,229.2v3.929a1.539,1.539,0,0,1-1.54,1.539H470.7a.022.022,0,0,1-.022-.022V215.465a7.519,7.519,0,0,0-7.233-7.609,7.344,7.344,0,0,0-7.459,7.345V234.65a.022.022,0,0,1-.022.022h-18.8a1.539,1.539,0,0,1-1.54-1.539V229.2a27.709,27.709,0,0,1,55.418,0" fill="#442e2d"/>
    <path id="Path_821" data-name="Path 821" d="M491.046,164.631v3.951a27.709,27.709,0,0,1-55.418,0v-3.951a1.517,1.517,0,0,1,1.517-1.517h18.846v19.229a7.5,7.5,0,0,0,7.212,7.587,7.345,7.345,0,0,0,7.48-7.345V163.114h18.846a1.517,1.517,0,0,1,1.517,1.517" fill="#442e2d"/>
    <path id="Path_822" data-name="Path 822" d="M428.807,164.638v43.523a26.511,26.511,0,0,1-53.022,0V164.632a1.518,1.518,0,0,1,1.517-1.518h17.79v58.055a7.333,7.333,0,0,0,7.818,7.331,7.513,7.513,0,0,0,6.881-7.583v-57.8h17.492a1.524,1.524,0,0,1,1.524,1.524" fill="#442e2d"/>
    <path id="Path_823" data-name="Path 823" d="M616.308,229.2v3.929a1.539,1.539,0,0,1-1.54,1.539h-18.8a.022.022,0,0,1-.022-.022V215.465a7.519,7.519,0,0,0-7.233-7.609,7.344,7.344,0,0,0-7.459,7.345V234.65a.022.022,0,0,1-.022.022h-18.8a1.539,1.539,0,0,1-1.54-1.539V229.2a27.709,27.709,0,1,1,55.418,0" fill="#442e2d"/>
    <path id="Path_824" data-name="Path 824" d="M616.308,164.631v3.951a27.709,27.709,0,1,1-55.418,0v-3.951a1.517,1.517,0,0,1,1.517-1.517h18.846v19.229a7.5,7.5,0,0,0,7.212,7.587,7.345,7.345,0,0,0,7.48-7.345V163.114h18.846a1.517,1.517,0,0,1,1.517,1.517" fill="#442e2d"/>
    <path id="Path_825" data-name="Path 825" d="M554.068,164.638v43.523a26.511,26.511,0,1,1-53.022,0V164.632a1.518,1.518,0,0,1,1.517-1.518h17.79v58.055a7.333,7.333,0,0,0,7.819,7.331,7.513,7.513,0,0,0,6.88-7.583v-57.8h17.492a1.524,1.524,0,0,1,1.524,1.524" fill="#442e2d"/>
    <path id="Path_826" data-name="Path 826" d="M741.57,229.2v3.929a1.54,1.54,0,0,1-1.54,1.539h-18.8a.022.022,0,0,1-.022-.022V215.465a7.519,7.519,0,0,0-7.233-7.609,7.344,7.344,0,0,0-7.459,7.345V234.65a.022.022,0,0,1-.023.022h-18.8a1.54,1.54,0,0,1-1.541-1.539V229.2a27.71,27.71,0,0,1,55.419,0" fill="#442e2d"/>
    <path id="Path_827" data-name="Path 827" d="M741.57,164.631v3.951a27.71,27.71,0,0,1-55.419,0v-3.951a1.518,1.518,0,0,1,1.518-1.517h18.846v19.229a7.5,7.5,0,0,0,7.212,7.587,7.345,7.345,0,0,0,7.48-7.345V163.114h18.845a1.517,1.517,0,0,1,1.518,1.517" fill="#442e2d"/>
    <path id="Path_828" data-name="Path 828" d="M679.33,164.638v43.523a26.511,26.511,0,0,1-53.022,0V164.632a1.518,1.518,0,0,1,1.517-1.518h17.79v58.055a7.333,7.333,0,0,0,7.818,7.331,7.514,7.514,0,0,0,6.881-7.583v-57.8h17.492a1.524,1.524,0,0,1,1.524,1.524" fill="#442e2d"/>
    <path id="Path_829" data-name="Path 829" d="M804.592,164.638v43.523a26.511,26.511,0,1,1-53.022,0V164.632a1.518,1.518,0,0,1,1.517-1.518h17.79v58.055A7.333,7.333,0,0,0,778.7,228.5a7.513,7.513,0,0,0,6.881-7.583v-57.8h17.492a1.524,1.524,0,0,1,1.524,1.524" fill="#442e2d"/>
    <path id="Path_830" data-name="Path 830" d="M115.262,310.762v3.929a1.539,1.539,0,0,1-1.54,1.539h-18.8a.022.022,0,0,1-.022-.022V297.023a7.519,7.519,0,0,0-7.233-7.609,7.344,7.344,0,0,0-7.459,7.345v19.449a.022.022,0,0,1-.022.022h-18.8a1.539,1.539,0,0,1-1.54-1.539v-3.929a27.709,27.709,0,0,1,55.418,0" fill="#442e2d"/>
    <path id="Path_831" data-name="Path 831" d="M115.262,246.189v3.951a27.709,27.709,0,0,1-55.418,0v-3.951a1.517,1.517,0,0,1,1.517-1.517H80.207V263.9a7.505,7.505,0,0,0,7.212,7.587,7.345,7.345,0,0,0,7.48-7.345V244.672h18.846a1.517,1.517,0,0,1,1.517,1.517" fill="#442e2d"/>
    <path id="Path_832" data-name="Path 832" d="M53.022,246.2v43.523a26.511,26.511,0,1,1-53.022,0V246.19a1.518,1.518,0,0,1,1.517-1.518h17.79v58.055a7.333,7.333,0,0,0,7.818,7.331,7.514,7.514,0,0,0,6.881-7.583v-57.8H51.5a1.524,1.524,0,0,1,1.524,1.524" fill="#442e2d"/>
    <path id="Path_833" data-name="Path 833" d="M240.523,310.762v3.929a1.539,1.539,0,0,1-1.54,1.539h-18.8a.022.022,0,0,1-.022-.022V297.023a7.519,7.519,0,0,0-7.233-7.609,7.344,7.344,0,0,0-7.459,7.345v19.449a.022.022,0,0,1-.022.022h-18.8a1.539,1.539,0,0,1-1.54-1.539v-3.929a27.709,27.709,0,0,1,55.418,0" fill="#442e2d"/>
    <path id="Path_834" data-name="Path 834" d="M240.523,246.189v3.951a27.709,27.709,0,0,1-55.418,0v-3.951a1.517,1.517,0,0,1,1.517-1.517h18.846V263.9a7.505,7.505,0,0,0,7.212,7.587,7.345,7.345,0,0,0,7.48-7.345V244.672h18.846a1.517,1.517,0,0,1,1.517,1.517" fill="#442e2d"/>
    <path id="Path_835" data-name="Path 835" d="M178.284,246.2v43.523a26.511,26.511,0,1,1-53.022,0V246.19a1.518,1.518,0,0,1,1.517-1.518h17.79v58.055a7.333,7.333,0,0,0,7.818,7.331,7.514,7.514,0,0,0,6.881-7.583v-57.8H176.76a1.524,1.524,0,0,1,1.524,1.524" fill="#442e2d"/>
    <path id="Path_836" data-name="Path 836" d="M365.785,310.762v3.929a1.539,1.539,0,0,1-1.54,1.539h-18.8a.022.022,0,0,1-.022-.022V297.023a7.519,7.519,0,0,0-7.233-7.609,7.344,7.344,0,0,0-7.459,7.345v19.449a.022.022,0,0,1-.022.022h-18.8a1.539,1.539,0,0,1-1.54-1.539v-3.929a27.709,27.709,0,0,1,55.418,0" fill="#442e2d"/>
    <path id="Path_837" data-name="Path 837" d="M365.785,246.189v3.951a27.709,27.709,0,1,1-55.418,0v-3.951a1.517,1.517,0,0,1,1.517-1.517H330.73V263.9a7.505,7.505,0,0,0,7.212,7.587,7.345,7.345,0,0,0,7.48-7.345V244.672h18.846a1.517,1.517,0,0,1,1.517,1.517" fill="#442e2d"/>
    <path id="Path_838" data-name="Path 838" d="M303.545,246.2v43.523a26.511,26.511,0,1,1-53.022,0V246.19a1.518,1.518,0,0,1,1.517-1.518h17.79v58.055a7.333,7.333,0,0,0,7.818,7.331,7.514,7.514,0,0,0,6.881-7.583v-57.8h17.492a1.524,1.524,0,0,1,1.524,1.524" fill="#442e2d"/>
    <path id="Path_839" data-name="Path 839" d="M491.046,310.762v3.929a1.539,1.539,0,0,1-1.54,1.539H470.7a.022.022,0,0,1-.022-.022V297.023a7.519,7.519,0,0,0-7.233-7.609,7.344,7.344,0,0,0-7.459,7.345v19.449a.022.022,0,0,1-.022.022h-18.8a1.539,1.539,0,0,1-1.54-1.539v-3.929a27.709,27.709,0,0,1,55.418,0" fill="#442e2d"/>
    <path id="Path_840" data-name="Path 840" d="M491.046,246.189v3.951a27.709,27.709,0,0,1-55.418,0v-3.951a1.517,1.517,0,0,1,1.517-1.517h18.846V263.9a7.505,7.505,0,0,0,7.212,7.587,7.345,7.345,0,0,0,7.48-7.345V244.672h18.846a1.517,1.517,0,0,1,1.517,1.517" fill="#442e2d"/>
    <path id="Path_841" data-name="Path 841" d="M428.807,246.2v43.523a26.511,26.511,0,1,1-53.022,0V246.19a1.518,1.518,0,0,1,1.517-1.518h17.79v58.055a7.333,7.333,0,0,0,7.818,7.331,7.514,7.514,0,0,0,6.881-7.583v-57.8h17.492a1.524,1.524,0,0,1,1.524,1.524" fill="#442e2d"/>
    <path id="Path_842" data-name="Path 842" d="M616.308,310.762v3.929a1.539,1.539,0,0,1-1.54,1.539h-18.8a.022.022,0,0,1-.022-.022V297.023a7.519,7.519,0,0,0-7.233-7.609,7.344,7.344,0,0,0-7.459,7.345v19.449a.022.022,0,0,1-.022.022h-18.8a1.539,1.539,0,0,1-1.54-1.539v-3.929a27.709,27.709,0,0,1,55.418,0" fill="#442e2d"/>
    <path id="Path_843" data-name="Path 843" d="M616.308,246.189v3.951a27.709,27.709,0,1,1-55.418,0v-3.951a1.517,1.517,0,0,1,1.517-1.517h18.846V263.9a7.505,7.505,0,0,0,7.212,7.587,7.345,7.345,0,0,0,7.48-7.345V244.672h18.846a1.517,1.517,0,0,1,1.517,1.517" fill="#442e2d"/>
    <path id="Path_844" data-name="Path 844" d="M554.068,246.2v43.523a26.511,26.511,0,1,1-53.022,0V246.19a1.518,1.518,0,0,1,1.517-1.518h17.79v58.055a7.333,7.333,0,0,0,7.819,7.331,7.513,7.513,0,0,0,6.88-7.583v-57.8h17.492a1.524,1.524,0,0,1,1.524,1.524" fill="#442e2d"/>
    <path id="Path_845" data-name="Path 845" d="M741.57,310.762v3.929a1.54,1.54,0,0,1-1.54,1.539h-18.8a.022.022,0,0,1-.022-.022V297.023a7.519,7.519,0,0,0-7.233-7.609,7.344,7.344,0,0,0-7.459,7.345v19.449a.022.022,0,0,1-.023.022h-18.8a1.54,1.54,0,0,1-1.541-1.539v-3.929a27.71,27.71,0,0,1,55.419,0" fill="#442e2d"/>
    <path id="Path_846" data-name="Path 846" d="M741.57,246.189v3.951a27.71,27.71,0,0,1-55.419,0v-3.951a1.518,1.518,0,0,1,1.518-1.517h18.846V263.9a7.505,7.505,0,0,0,7.212,7.587,7.345,7.345,0,0,0,7.48-7.345V244.672h18.845a1.517,1.517,0,0,1,1.518,1.517" fill="#442e2d"/>
    <path id="Path_847" data-name="Path 847" d="M679.33,246.2v43.523a26.511,26.511,0,1,1-53.022,0V246.19a1.518,1.518,0,0,1,1.517-1.518h17.79v58.055a7.333,7.333,0,0,0,7.818,7.331,7.514,7.514,0,0,0,6.881-7.583v-57.8h17.492a1.524,1.524,0,0,1,1.524,1.524" fill="#442e2d"/>
    <path id="Path_848" data-name="Path 848" d="M804.592,246.2v43.523a26.511,26.511,0,1,1-53.022,0V246.19a1.518,1.518,0,0,1,1.517-1.518h17.79v58.055a7.333,7.333,0,0,0,7.818,7.331,7.514,7.514,0,0,0,6.881-7.583v-57.8h17.492a1.524,1.524,0,0,1,1.524,1.524" fill="#442e2d"/>
    <path id="Path_849" data-name="Path 849" d="M115.262,392.32v3.929a1.539,1.539,0,0,1-1.54,1.539h-18.8a.022.022,0,0,1-.022-.022V378.581a7.519,7.519,0,0,0-7.233-7.609,7.344,7.344,0,0,0-7.459,7.345v19.449a.022.022,0,0,1-.022.022h-18.8a1.539,1.539,0,0,1-1.54-1.539V392.32a27.709,27.709,0,1,1,55.418,0" fill="#442e2d"/>
    <path id="Path_850" data-name="Path 850" d="M115.262,327.747V331.7a27.709,27.709,0,1,1-55.418,0v-3.951a1.517,1.517,0,0,1,1.517-1.517H80.207v19.229a7.5,7.5,0,0,0,7.212,7.587A7.345,7.345,0,0,0,94.9,345.7V326.23h18.846a1.517,1.517,0,0,1,1.517,1.517" fill="#442e2d"/>
    <path id="Path_851" data-name="Path 851" d="M53.022,327.754v43.523a26.511,26.511,0,0,1-53.022,0V327.748a1.518,1.518,0,0,1,1.517-1.518h17.79v58.055a7.333,7.333,0,0,0,7.818,7.331,7.514,7.514,0,0,0,6.881-7.583v-57.8H51.5a1.524,1.524,0,0,1,1.524,1.524" fill="#442e2d"/>
    <path id="Path_852" data-name="Path 852" d="M240.523,392.32v3.929a1.539,1.539,0,0,1-1.54,1.539h-18.8a.022.022,0,0,1-.022-.022V378.581a7.519,7.519,0,0,0-7.233-7.609,7.344,7.344,0,0,0-7.459,7.345v19.449a.022.022,0,0,1-.022.022h-18.8a1.539,1.539,0,0,1-1.54-1.539V392.32a27.709,27.709,0,1,1,55.418,0" fill="#442e2d"/>
    <path id="Path_853" data-name="Path 853" d="M240.523,327.747V331.7a27.709,27.709,0,1,1-55.418,0v-3.951a1.517,1.517,0,0,1,1.517-1.517h18.846v19.229a7.5,7.5,0,0,0,7.212,7.587,7.345,7.345,0,0,0,7.48-7.345V326.23h18.846a1.517,1.517,0,0,1,1.517,1.517" fill="#442e2d"/>
    <path id="Path_854" data-name="Path 854" d="M178.284,327.754v43.523a26.511,26.511,0,0,1-53.022,0V327.748a1.518,1.518,0,0,1,1.517-1.518h17.79v58.055a7.333,7.333,0,0,0,7.818,7.331,7.514,7.514,0,0,0,6.881-7.583v-57.8H176.76a1.524,1.524,0,0,1,1.524,1.524" fill="#442e2d"/>
    <path id="Path_855" data-name="Path 855" d="M365.785,392.32v3.929a1.539,1.539,0,0,1-1.54,1.539h-18.8a.022.022,0,0,1-.022-.022V378.581a7.519,7.519,0,0,0-7.233-7.609,7.344,7.344,0,0,0-7.459,7.345v19.449a.022.022,0,0,1-.022.022h-18.8a1.539,1.539,0,0,1-1.54-1.539V392.32a27.709,27.709,0,1,1,55.418,0" fill="#442e2d"/>
    <path id="Path_856" data-name="Path 856" d="M365.785,327.747V331.7a27.709,27.709,0,1,1-55.418,0v-3.951a1.517,1.517,0,0,1,1.517-1.517H330.73v19.229a7.5,7.5,0,0,0,7.212,7.587,7.345,7.345,0,0,0,7.48-7.345V326.23h18.846a1.517,1.517,0,0,1,1.517,1.517" fill="#442e2d"/>
    <path id="Path_857" data-name="Path 857" d="M303.545,327.754v43.523a26.511,26.511,0,0,1-53.022,0V327.748a1.518,1.518,0,0,1,1.517-1.518h17.79v58.055a7.333,7.333,0,0,0,7.818,7.331,7.513,7.513,0,0,0,6.881-7.583v-57.8h17.492a1.524,1.524,0,0,1,1.524,1.524" fill="#442e2d"/>
    <path id="Path_858" data-name="Path 858" d="M491.046,392.32v3.929a1.539,1.539,0,0,1-1.54,1.539H470.7a.022.022,0,0,1-.022-.022V378.581a7.519,7.519,0,0,0-7.233-7.609,7.344,7.344,0,0,0-7.459,7.345v19.449a.022.022,0,0,1-.022.022h-18.8a1.539,1.539,0,0,1-1.54-1.539V392.32a27.709,27.709,0,1,1,55.418,0" fill="#442e2d"/>
    <path id="Path_859" data-name="Path 859" d="M491.046,327.747V331.7a27.709,27.709,0,1,1-55.418,0v-3.951a1.517,1.517,0,0,1,1.517-1.517h18.846v19.229a7.5,7.5,0,0,0,7.212,7.587,7.345,7.345,0,0,0,7.48-7.345V326.23h18.846a1.517,1.517,0,0,1,1.517,1.517" fill="#442e2d"/>
    <path id="Path_860" data-name="Path 860" d="M428.807,327.754v43.523a26.511,26.511,0,0,1-53.022,0V327.748a1.518,1.518,0,0,1,1.517-1.518h17.79v58.055a7.333,7.333,0,0,0,7.818,7.331,7.513,7.513,0,0,0,6.881-7.583v-57.8h17.492a1.524,1.524,0,0,1,1.524,1.524" fill="#442e2d"/>
    <path id="Path_861" data-name="Path 861" d="M616.308,392.32v3.929a1.539,1.539,0,0,1-1.54,1.539h-18.8a.022.022,0,0,1-.022-.022V378.581a7.519,7.519,0,0,0-7.233-7.609,7.344,7.344,0,0,0-7.459,7.345v19.449a.022.022,0,0,1-.022.022h-18.8a1.539,1.539,0,0,1-1.54-1.539V392.32a27.709,27.709,0,1,1,55.418,0" fill="#442e2d"/>
    <path id="Path_862" data-name="Path 862" d="M616.308,327.747V331.7a27.709,27.709,0,1,1-55.418,0v-3.951a1.517,1.517,0,0,1,1.517-1.517h18.846v19.229a7.5,7.5,0,0,0,7.212,7.587,7.345,7.345,0,0,0,7.48-7.345V326.23h18.846a1.517,1.517,0,0,1,1.517,1.517" fill="#442e2d"/>
    <path id="Path_863" data-name="Path 863" d="M554.068,327.754v43.523a26.511,26.511,0,0,1-53.022,0V327.748a1.518,1.518,0,0,1,1.517-1.518h17.79v58.055a7.333,7.333,0,0,0,7.819,7.331,7.513,7.513,0,0,0,6.88-7.583v-57.8h17.492a1.524,1.524,0,0,1,1.524,1.524" fill="#442e2d"/>
    <path id="Path_864" data-name="Path 864" d="M741.57,392.32v3.929a1.54,1.54,0,0,1-1.54,1.539h-18.8a.022.022,0,0,1-.022-.022V378.581a7.519,7.519,0,0,0-7.233-7.609,7.344,7.344,0,0,0-7.459,7.345v19.449a.022.022,0,0,1-.023.022h-18.8a1.54,1.54,0,0,1-1.541-1.539V392.32a27.71,27.71,0,0,1,55.419,0" fill="#442e2d"/>
    <path id="Path_865" data-name="Path 865" d="M741.57,327.747V331.7a27.71,27.71,0,0,1-55.419,0v-3.951a1.518,1.518,0,0,1,1.518-1.517h18.846v19.229a7.5,7.5,0,0,0,7.212,7.587,7.345,7.345,0,0,0,7.48-7.345V326.23h18.845a1.517,1.517,0,0,1,1.518,1.517" fill="#442e2d"/>
    <path id="Path_866" data-name="Path 866" d="M679.33,327.754v43.523a26.511,26.511,0,0,1-53.022,0V327.748a1.518,1.518,0,0,1,1.517-1.518h17.79v58.055a7.333,7.333,0,0,0,7.818,7.331,7.514,7.514,0,0,0,6.881-7.583v-57.8h17.492a1.524,1.524,0,0,1,1.524,1.524" fill="#442e2d"/>
    <path id="Path_867" data-name="Path 867" d="M804.592,327.754v43.523a26.511,26.511,0,0,1-53.022,0V327.748a1.518,1.518,0,0,1,1.517-1.518h17.79v58.055a7.333,7.333,0,0,0,7.818,7.331,7.513,7.513,0,0,0,6.881-7.583v-57.8h17.492a1.524,1.524,0,0,1,1.524,1.524" fill="#442e2d"/>
    <path id="Path_868" data-name="Path 868" d="M115.262,473.878v3.929a1.539,1.539,0,0,1-1.54,1.539h-18.8a.022.022,0,0,1-.022-.022V460.139a7.519,7.519,0,0,0-7.233-7.609,7.344,7.344,0,0,0-7.459,7.345v19.449a.022.022,0,0,1-.022.022h-18.8a1.539,1.539,0,0,1-1.54-1.539v-3.929a27.709,27.709,0,0,1,55.418,0" fill="#442e2d"/>
    <path id="Path_869" data-name="Path 869" d="M115.262,409.3v3.951a27.709,27.709,0,0,1-55.418,0V409.3a1.517,1.517,0,0,1,1.517-1.517H80.207v19.229a7.5,7.5,0,0,0,7.212,7.587,7.345,7.345,0,0,0,7.48-7.345V407.788h18.846a1.517,1.517,0,0,1,1.517,1.517" fill="#442e2d"/>
    <path id="Path_870" data-name="Path 870" d="M53.022,409.312v43.523a26.511,26.511,0,1,1-53.022,0V409.306a1.518,1.518,0,0,1,1.517-1.518h17.79v58.055a7.333,7.333,0,0,0,7.818,7.331,7.514,7.514,0,0,0,6.881-7.583v-57.8H51.5a1.524,1.524,0,0,1,1.524,1.524" fill="#442e2d"/>
    <path id="Path_871" data-name="Path 871" d="M240.523,473.878v3.929a1.539,1.539,0,0,1-1.54,1.539h-18.8a.022.022,0,0,1-.022-.022V460.139a7.519,7.519,0,0,0-7.233-7.609,7.344,7.344,0,0,0-7.459,7.345v19.449a.022.022,0,0,1-.022.022h-18.8a1.539,1.539,0,0,1-1.54-1.539v-3.929a27.709,27.709,0,0,1,55.418,0" fill="#442e2d"/>
    <path id="Path_872" data-name="Path 872" d="M240.523,409.3v3.951a27.709,27.709,0,0,1-55.418,0V409.3a1.517,1.517,0,0,1,1.517-1.517h18.846v19.229a7.5,7.5,0,0,0,7.212,7.587,7.345,7.345,0,0,0,7.48-7.345V407.788h18.846a1.517,1.517,0,0,1,1.517,1.517" fill="#442e2d"/>
    <path id="Path_873" data-name="Path 873" d="M178.284,409.312v43.523a26.511,26.511,0,1,1-53.022,0V409.306a1.518,1.518,0,0,1,1.517-1.518h17.79v58.055a7.333,7.333,0,0,0,7.818,7.331,7.514,7.514,0,0,0,6.881-7.583v-57.8H176.76a1.524,1.524,0,0,1,1.524,1.524" fill="#442e2d"/>
    <path id="Path_874" data-name="Path 874" d="M365.785,473.878v3.929a1.539,1.539,0,0,1-1.54,1.539h-18.8a.022.022,0,0,1-.022-.022V460.139a7.519,7.519,0,0,0-7.233-7.609,7.344,7.344,0,0,0-7.459,7.345v19.449a.022.022,0,0,1-.022.022h-18.8a1.539,1.539,0,0,1-1.54-1.539v-3.929a27.709,27.709,0,0,1,55.418,0" fill="#442e2d"/>
    <path id="Path_875" data-name="Path 875" d="M365.785,409.3v3.951a27.709,27.709,0,0,1-55.418,0V409.3a1.517,1.517,0,0,1,1.517-1.517H330.73v19.229a7.5,7.5,0,0,0,7.212,7.587,7.345,7.345,0,0,0,7.48-7.345V407.788h18.846a1.517,1.517,0,0,1,1.517,1.517" fill="#442e2d"/>
    <path id="Path_876" data-name="Path 876" d="M303.545,409.312v43.523a26.511,26.511,0,1,1-53.022,0V409.306a1.518,1.518,0,0,1,1.517-1.518h17.79v58.055a7.333,7.333,0,0,0,7.818,7.331,7.514,7.514,0,0,0,6.881-7.583v-57.8h17.492a1.524,1.524,0,0,1,1.524,1.524" fill="#442e2d"/>
    <path id="Path_877" data-name="Path 877" d="M491.046,473.878v3.929a1.539,1.539,0,0,1-1.54,1.539H470.7a.022.022,0,0,1-.022-.022V460.139a7.519,7.519,0,0,0-7.233-7.609,7.344,7.344,0,0,0-7.459,7.345v19.449a.022.022,0,0,1-.022.022h-18.8a1.539,1.539,0,0,1-1.54-1.539v-3.929a27.709,27.709,0,0,1,55.418,0" fill="#442e2d"/>
    <path id="Path_878" data-name="Path 878" d="M491.046,409.3v3.951a27.709,27.709,0,0,1-55.418,0V409.3a1.517,1.517,0,0,1,1.517-1.517h18.846v19.229A7.5,7.5,0,0,0,463.2,434.6a7.345,7.345,0,0,0,7.48-7.345V407.788h18.846a1.517,1.517,0,0,1,1.517,1.517" fill="#442e2d"/>
    <path id="Path_879" data-name="Path 879" d="M428.807,409.312v43.523a26.511,26.511,0,1,1-53.022,0V409.306a1.518,1.518,0,0,1,1.517-1.518h17.79v58.055a7.333,7.333,0,0,0,7.818,7.331,7.514,7.514,0,0,0,6.881-7.583v-57.8h17.492a1.524,1.524,0,0,1,1.524,1.524" fill="#442e2d"/>
    <path id="Path_880" data-name="Path 880" d="M616.308,473.878v3.929a1.539,1.539,0,0,1-1.54,1.539h-18.8a.022.022,0,0,1-.022-.022V460.139a7.519,7.519,0,0,0-7.233-7.609,7.344,7.344,0,0,0-7.459,7.345v19.449a.022.022,0,0,1-.022.022h-18.8a1.539,1.539,0,0,1-1.54-1.539v-3.929a27.709,27.709,0,0,1,55.418,0" fill="#442e2d"/>
    <path id="Path_881" data-name="Path 881" d="M616.308,409.3v3.951a27.709,27.709,0,0,1-55.418,0V409.3a1.517,1.517,0,0,1,1.517-1.517h18.846v19.229a7.5,7.5,0,0,0,7.212,7.587,7.345,7.345,0,0,0,7.48-7.345V407.788h18.846a1.517,1.517,0,0,1,1.517,1.517" fill="#442e2d"/>
    <path id="Path_882" data-name="Path 882" d="M554.068,409.312v43.523a26.511,26.511,0,1,1-53.022,0V409.306a1.518,1.518,0,0,1,1.517-1.518h17.79v58.055a7.333,7.333,0,0,0,7.819,7.331,7.513,7.513,0,0,0,6.88-7.583v-57.8h17.492a1.524,1.524,0,0,1,1.524,1.524" fill="#442e2d"/>
    <path id="Path_883" data-name="Path 883" d="M741.57,473.878v3.929a1.54,1.54,0,0,1-1.54,1.539h-18.8a.022.022,0,0,1-.022-.022V460.139a7.519,7.519,0,0,0-7.233-7.609,7.344,7.344,0,0,0-7.459,7.345v19.449a.022.022,0,0,1-.023.022h-18.8a1.54,1.54,0,0,1-1.541-1.539v-3.929a27.71,27.71,0,0,1,55.419,0" fill="#442e2d"/>
    <path id="Path_884" data-name="Path 884" d="M741.57,409.3v3.951a27.71,27.71,0,0,1-55.419,0V409.3a1.518,1.518,0,0,1,1.518-1.517h18.846v19.229a7.5,7.5,0,0,0,7.212,7.587,7.345,7.345,0,0,0,7.48-7.345V407.788h18.845a1.517,1.517,0,0,1,1.518,1.517" fill="#442e2d"/>
    <path id="Path_885" data-name="Path 885" d="M679.33,409.312v43.523a26.511,26.511,0,1,1-53.022,0V409.306a1.518,1.518,0,0,1,1.517-1.518h17.79v58.055a7.333,7.333,0,0,0,7.818,7.331,7.514,7.514,0,0,0,6.881-7.583v-57.8h17.492a1.524,1.524,0,0,1,1.524,1.524" fill="#442e2d"/>
    <path id="Path_886" data-name="Path 886" d="M804.592,409.312v43.523a26.511,26.511,0,1,1-53.022,0V409.306a1.518,1.518,0,0,1,1.517-1.518h17.79v58.055a7.333,7.333,0,0,0,7.818,7.331,7.514,7.514,0,0,0,6.881-7.583v-57.8h17.492a1.524,1.524,0,0,1,1.524,1.524" fill="#442e2d"/>
    <path id="Path_887" data-name="Path 887" d="M115.262,555.436v3.929a1.539,1.539,0,0,1-1.54,1.539h-18.8a.022.022,0,0,1-.022-.022V541.7a7.519,7.519,0,0,0-7.233-7.609,7.344,7.344,0,0,0-7.459,7.345v19.449a.022.022,0,0,1-.022.022h-18.8a1.539,1.539,0,0,1-1.54-1.539v-3.929a27.709,27.709,0,0,1,55.418,0" fill="#442e2d"/>
    <path id="Path_888" data-name="Path 888" d="M115.262,490.863v3.951a27.709,27.709,0,1,1-55.418,0v-3.951a1.517,1.517,0,0,1,1.517-1.517H80.207v19.229a7.5,7.5,0,0,0,7.212,7.587,7.345,7.345,0,0,0,7.48-7.345V489.346h18.846a1.517,1.517,0,0,1,1.517,1.517" fill="#442e2d"/>
    <path id="Path_889" data-name="Path 889" d="M53.022,490.87v43.523a26.511,26.511,0,0,1-53.022,0V490.864a1.518,1.518,0,0,1,1.517-1.518h17.79V547.4a7.333,7.333,0,0,0,7.818,7.331,7.513,7.513,0,0,0,6.881-7.583v-57.8H51.5a1.524,1.524,0,0,1,1.524,1.524" fill="#442e2d"/>
    <path id="Path_890" data-name="Path 890" d="M240.523,555.436v3.929a1.539,1.539,0,0,1-1.54,1.539h-18.8a.022.022,0,0,1-.022-.022V541.7a7.519,7.519,0,0,0-7.233-7.609,7.344,7.344,0,0,0-7.459,7.345v19.449a.022.022,0,0,1-.022.022h-18.8a1.539,1.539,0,0,1-1.54-1.539v-3.929a27.709,27.709,0,0,1,55.418,0" fill="#442e2d"/>
    <path id="Path_891" data-name="Path 891" d="M240.523,490.863v3.951a27.709,27.709,0,1,1-55.418,0v-3.951a1.517,1.517,0,0,1,1.517-1.517h18.846v19.229a7.5,7.5,0,0,0,7.212,7.587,7.345,7.345,0,0,0,7.48-7.345V489.346h18.846a1.517,1.517,0,0,1,1.517,1.517" fill="#442e2d"/>
    <path id="Path_892" data-name="Path 892" d="M178.284,490.87v43.523a26.511,26.511,0,0,1-53.022,0V490.864a1.518,1.518,0,0,1,1.517-1.518h17.79V547.4a7.333,7.333,0,0,0,7.818,7.331,7.513,7.513,0,0,0,6.881-7.583v-57.8H176.76a1.524,1.524,0,0,1,1.524,1.524" fill="#442e2d"/>
    <path id="Path_893" data-name="Path 893" d="M365.785,555.436v3.929a1.539,1.539,0,0,1-1.54,1.539h-18.8a.022.022,0,0,1-.022-.022V541.7a7.519,7.519,0,0,0-7.233-7.609,7.344,7.344,0,0,0-7.459,7.345v19.449a.022.022,0,0,1-.022.022h-18.8a1.539,1.539,0,0,1-1.54-1.539v-3.929a27.709,27.709,0,0,1,55.418,0" fill="#442e2d"/>
    <path id="Path_894" data-name="Path 894" d="M365.785,490.863v3.951a27.709,27.709,0,1,1-55.418,0v-3.951a1.517,1.517,0,0,1,1.517-1.517H330.73v19.229a7.5,7.5,0,0,0,7.212,7.587,7.345,7.345,0,0,0,7.48-7.345V489.346h18.846a1.517,1.517,0,0,1,1.517,1.517" fill="#442e2d"/>
    <path id="Path_895" data-name="Path 895" d="M303.545,490.87v43.523a26.511,26.511,0,0,1-53.022,0V490.864a1.518,1.518,0,0,1,1.517-1.518h17.79V547.4a7.333,7.333,0,0,0,7.818,7.331,7.513,7.513,0,0,0,6.881-7.583v-57.8h17.492a1.524,1.524,0,0,1,1.524,1.524" fill="#442e2d"/>
    <path id="Path_896" data-name="Path 896" d="M491.046,555.436v3.929a1.539,1.539,0,0,1-1.54,1.539H470.7a.022.022,0,0,1-.022-.022V541.7a7.519,7.519,0,0,0-7.233-7.609,7.344,7.344,0,0,0-7.459,7.345v19.449a.022.022,0,0,1-.022.022h-18.8a1.539,1.539,0,0,1-1.54-1.539v-3.929a27.709,27.709,0,0,1,55.418,0" fill="#442e2d"/>
    <path id="Path_897" data-name="Path 897" d="M491.046,490.863v3.951a27.709,27.709,0,1,1-55.418,0v-3.951a1.517,1.517,0,0,1,1.517-1.517h18.846v19.229a7.5,7.5,0,0,0,7.212,7.587,7.345,7.345,0,0,0,7.48-7.345V489.346h18.846a1.517,1.517,0,0,1,1.517,1.517" fill="#442e2d"/>
    <path id="Path_898" data-name="Path 898" d="M428.807,490.87v43.523a26.511,26.511,0,0,1-53.022,0V490.864a1.518,1.518,0,0,1,1.517-1.518h17.79V547.4a7.333,7.333,0,0,0,7.818,7.331,7.513,7.513,0,0,0,6.881-7.583v-57.8h17.492a1.524,1.524,0,0,1,1.524,1.524" fill="#442e2d"/>
    <path id="Path_899" data-name="Path 899" d="M616.308,555.436v3.929a1.539,1.539,0,0,1-1.54,1.539h-18.8a.022.022,0,0,1-.022-.022V541.7a7.519,7.519,0,0,0-7.233-7.609,7.344,7.344,0,0,0-7.459,7.345v19.449a.022.022,0,0,1-.022.022h-18.8a1.539,1.539,0,0,1-1.54-1.539v-3.929a27.709,27.709,0,0,1,55.418,0" fill="#442e2d"/>
    <path id="Path_900" data-name="Path 900" d="M616.308,490.863v3.951a27.709,27.709,0,1,1-55.418,0v-3.951a1.517,1.517,0,0,1,1.517-1.517h18.846v19.229a7.5,7.5,0,0,0,7.212,7.587,7.345,7.345,0,0,0,7.48-7.345V489.346h18.846a1.517,1.517,0,0,1,1.517,1.517" fill="#442e2d"/>
    <path id="Path_901" data-name="Path 901" d="M554.068,490.87v43.523a26.511,26.511,0,0,1-53.022,0V490.864a1.518,1.518,0,0,1,1.517-1.518h17.79V547.4a7.333,7.333,0,0,0,7.819,7.331,7.513,7.513,0,0,0,6.88-7.583v-57.8h17.492a1.524,1.524,0,0,1,1.524,1.524" fill="#442e2d"/>
    <path id="Path_902" data-name="Path 902" d="M741.57,555.436v3.929a1.54,1.54,0,0,1-1.54,1.539h-18.8a.022.022,0,0,1-.022-.022V541.7a7.519,7.519,0,0,0-7.233-7.609,7.344,7.344,0,0,0-7.459,7.345v19.449a.022.022,0,0,1-.023.022h-18.8a1.54,1.54,0,0,1-1.541-1.539v-3.929a27.71,27.71,0,0,1,55.419,0" fill="#442e2d"/>
    <path id="Path_903" data-name="Path 903" d="M741.57,490.863v3.951a27.71,27.71,0,0,1-55.419,0v-3.951a1.518,1.518,0,0,1,1.518-1.517h18.846v19.229a7.5,7.5,0,0,0,7.212,7.587,7.345,7.345,0,0,0,7.48-7.345V489.346h18.845a1.517,1.517,0,0,1,1.518,1.517" fill="#442e2d"/>
    <path id="Path_904" data-name="Path 904" d="M679.33,490.87v43.523a26.511,26.511,0,0,1-53.022,0V490.864a1.518,1.518,0,0,1,1.517-1.518h17.79V547.4a7.333,7.333,0,0,0,7.818,7.331,7.514,7.514,0,0,0,6.881-7.583v-57.8h17.492a1.524,1.524,0,0,1,1.524,1.524" fill="#442e2d"/>
    <path id="Path_905" data-name="Path 905" d="M804.592,490.87v43.523a26.511,26.511,0,0,1-53.022,0V490.864a1.518,1.518,0,0,1,1.517-1.518h17.79V547.4a7.333,7.333,0,0,0,7.818,7.331,7.513,7.513,0,0,0,6.881-7.583v-57.8h17.492a1.524,1.524,0,0,1,1.524,1.524" fill="#442e2d"/>
    <path id="Path_906" data-name="Path 906" d="M115.262,636.994v3.929a1.539,1.539,0,0,1-1.54,1.539h-18.8a.022.022,0,0,1-.022-.022V623.255a7.519,7.519,0,0,0-7.233-7.609,7.344,7.344,0,0,0-7.459,7.345V642.44a.022.022,0,0,1-.022.022h-18.8a1.539,1.539,0,0,1-1.54-1.539v-3.929a27.709,27.709,0,1,1,55.418,0" fill="#442e2d"/>
    <path id="Path_907" data-name="Path 907" d="M115.262,572.421v3.951a27.709,27.709,0,0,1-55.418,0v-3.951a1.517,1.517,0,0,1,1.517-1.517H80.207v19.229a7.5,7.5,0,0,0,7.212,7.587,7.345,7.345,0,0,0,7.48-7.345V570.9h18.846a1.517,1.517,0,0,1,1.517,1.517" fill="#442e2d"/>
    <path id="Path_908" data-name="Path 908" d="M53.022,572.428v43.523a26.511,26.511,0,0,1-53.022,0V572.422A1.518,1.518,0,0,1,1.517,570.9h17.79v58.055a7.333,7.333,0,0,0,7.818,7.331,7.513,7.513,0,0,0,6.881-7.583V570.9H51.5a1.524,1.524,0,0,1,1.524,1.524" fill="#442e2d"/>
    <path id="Path_909" data-name="Path 909" d="M240.523,636.994v3.929a1.539,1.539,0,0,1-1.54,1.539h-18.8a.022.022,0,0,1-.022-.022V623.255a7.519,7.519,0,0,0-7.233-7.609,7.344,7.344,0,0,0-7.459,7.345V642.44a.022.022,0,0,1-.022.022h-18.8a1.539,1.539,0,0,1-1.54-1.539v-3.929a27.709,27.709,0,1,1,55.418,0" fill="#442e2d"/>
    <path id="Path_910" data-name="Path 910" d="M240.523,572.421v3.951a27.709,27.709,0,0,1-55.418,0v-3.951a1.517,1.517,0,0,1,1.517-1.517h18.846v19.229a7.5,7.5,0,0,0,7.212,7.587,7.345,7.345,0,0,0,7.48-7.345V570.9h18.846a1.517,1.517,0,0,1,1.517,1.517" fill="#442e2d"/>
    <path id="Path_911" data-name="Path 911" d="M178.284,572.428v43.523a26.511,26.511,0,0,1-53.022,0V572.422a1.518,1.518,0,0,1,1.517-1.518h17.79v58.055a7.333,7.333,0,0,0,7.818,7.331,7.513,7.513,0,0,0,6.881-7.583V570.9H176.76a1.524,1.524,0,0,1,1.524,1.524" fill="#442e2d"/>
    <path id="Path_912" data-name="Path 912" d="M365.785,636.994v3.929a1.539,1.539,0,0,1-1.54,1.539h-18.8a.022.022,0,0,1-.022-.022V623.255a7.519,7.519,0,0,0-7.233-7.609,7.344,7.344,0,0,0-7.459,7.345V642.44a.022.022,0,0,1-.022.022h-18.8a1.539,1.539,0,0,1-1.54-1.539v-3.929a27.709,27.709,0,1,1,55.418,0" fill="#442e2d"/>
    <path id="Path_913" data-name="Path 913" d="M365.785,572.421v3.951a27.709,27.709,0,0,1-55.418,0v-3.951a1.517,1.517,0,0,1,1.517-1.517H330.73v19.229a7.5,7.5,0,0,0,7.212,7.587,7.345,7.345,0,0,0,7.48-7.345V570.9h18.846a1.517,1.517,0,0,1,1.517,1.517" fill="#442e2d"/>
    <path id="Path_914" data-name="Path 914" d="M303.545,572.428v43.523a26.511,26.511,0,0,1-53.022,0V572.422a1.518,1.518,0,0,1,1.517-1.518h17.79v58.055a7.333,7.333,0,0,0,7.818,7.331,7.513,7.513,0,0,0,6.881-7.583V570.9h17.492a1.524,1.524,0,0,1,1.524,1.524" fill="#442e2d"/>
    <path id="Path_915" data-name="Path 915" d="M491.046,636.994v3.929a1.539,1.539,0,0,1-1.54,1.539H470.7a.022.022,0,0,1-.022-.022V623.255a7.519,7.519,0,0,0-7.233-7.609,7.344,7.344,0,0,0-7.459,7.345V642.44a.022.022,0,0,1-.022.022h-18.8a1.539,1.539,0,0,1-1.54-1.539v-3.929a27.709,27.709,0,1,1,55.418,0" fill="#442e2d"/>
    <path id="Path_916" data-name="Path 916" d="M491.046,572.421v3.951a27.709,27.709,0,0,1-55.418,0v-3.951a1.517,1.517,0,0,1,1.517-1.517h18.846v19.229a7.5,7.5,0,0,0,7.212,7.587,7.345,7.345,0,0,0,7.48-7.345V570.9h18.846a1.517,1.517,0,0,1,1.517,1.517" fill="#442e2d"/>
    <path id="Path_917" data-name="Path 917" d="M428.807,572.428v43.523a26.511,26.511,0,0,1-53.022,0V572.422A1.518,1.518,0,0,1,377.3,570.9h17.79v58.055a7.333,7.333,0,0,0,7.818,7.331,7.513,7.513,0,0,0,6.881-7.583V570.9h17.492a1.524,1.524,0,0,1,1.524,1.524" fill="#442e2d"/>
    <path id="Path_918" data-name="Path 918" d="M616.308,636.994v3.929a1.539,1.539,0,0,1-1.54,1.539h-18.8a.022.022,0,0,1-.022-.022V623.255a7.519,7.519,0,0,0-7.233-7.609,7.344,7.344,0,0,0-7.459,7.345V642.44a.022.022,0,0,1-.022.022h-18.8a1.539,1.539,0,0,1-1.54-1.539v-3.929a27.709,27.709,0,1,1,55.418,0" fill="#442e2d"/>
    <path id="Path_919" data-name="Path 919" d="M616.308,572.421v3.951a27.709,27.709,0,0,1-55.418,0v-3.951a1.517,1.517,0,0,1,1.517-1.517h18.846v19.229a7.5,7.5,0,0,0,7.212,7.587,7.345,7.345,0,0,0,7.48-7.345V570.9h18.846a1.517,1.517,0,0,1,1.517,1.517" fill="#442e2d"/>
    <path id="Path_920" data-name="Path 920" d="M554.068,572.428v43.523a26.511,26.511,0,0,1-53.022,0V572.422a1.518,1.518,0,0,1,1.517-1.518h17.79v58.055a7.333,7.333,0,0,0,7.819,7.331,7.513,7.513,0,0,0,6.88-7.583V570.9h17.492a1.524,1.524,0,0,1,1.524,1.524" fill="#442e2d"/>
    <path id="Path_921" data-name="Path 921" d="M741.57,636.994v3.929a1.54,1.54,0,0,1-1.54,1.539h-18.8a.022.022,0,0,1-.022-.022V623.255a7.519,7.519,0,0,0-7.233-7.609,7.344,7.344,0,0,0-7.459,7.345V642.44a.022.022,0,0,1-.023.022h-18.8a1.54,1.54,0,0,1-1.541-1.539v-3.929a27.71,27.71,0,0,1,55.419,0" fill="#442e2d"/>
    <path id="Path_922" data-name="Path 922" d="M741.57,572.421v3.951a27.71,27.71,0,0,1-55.419,0v-3.951a1.518,1.518,0,0,1,1.518-1.517h18.846v19.229a7.5,7.5,0,0,0,7.212,7.587,7.345,7.345,0,0,0,7.48-7.345V570.9h18.845a1.517,1.517,0,0,1,1.518,1.517" fill="#442e2d"/>
    <path id="Path_923" data-name="Path 923" d="M679.33,572.428v43.523a26.511,26.511,0,0,1-53.022,0V572.422a1.518,1.518,0,0,1,1.517-1.518h17.79v58.055a7.333,7.333,0,0,0,7.818,7.331,7.514,7.514,0,0,0,6.881-7.583V570.9h17.492a1.524,1.524,0,0,1,1.524,1.524" fill="#442e2d"/>
    <path id="Path_924" data-name="Path 924" d="M804.592,572.428v43.523a26.511,26.511,0,0,1-53.022,0V572.422a1.518,1.518,0,0,1,1.517-1.518h17.79v58.055a7.333,7.333,0,0,0,7.818,7.331,7.513,7.513,0,0,0,6.881-7.583V570.9h17.492a1.524,1.524,0,0,1,1.524,1.524" fill="#442e2d"/>
    <path id="Path_925" data-name="Path 925" d="M115.262,718.552v3.929a1.539,1.539,0,0,1-1.54,1.539h-18.8A.022.022,0,0,1,94.9,724V704.813a7.519,7.519,0,0,0-7.233-7.609,7.344,7.344,0,0,0-7.459,7.345V724a.022.022,0,0,1-.022.022h-18.8a1.539,1.539,0,0,1-1.54-1.539v-3.929a27.709,27.709,0,0,1,55.418,0" fill="#442e2d"/>
    <path id="Path_926" data-name="Path 926" d="M115.262,653.979v3.951a27.709,27.709,0,0,1-55.418,0v-3.951a1.517,1.517,0,0,1,1.517-1.517H80.207v19.229a7.505,7.505,0,0,0,7.212,7.587,7.345,7.345,0,0,0,7.48-7.345V652.462h18.846a1.517,1.517,0,0,1,1.517,1.517" fill="#442e2d"/>
    <path id="Path_927" data-name="Path 927" d="M53.022,653.986v43.523a26.511,26.511,0,1,1-53.022,0V653.98a1.518,1.518,0,0,1,1.517-1.518h17.79v58.055a7.333,7.333,0,0,0,7.818,7.331,7.514,7.514,0,0,0,6.881-7.583v-57.8H51.5a1.524,1.524,0,0,1,1.524,1.524" fill="#442e2d"/>
    <path id="Path_928" data-name="Path 928" d="M240.523,718.552v3.929a1.539,1.539,0,0,1-1.54,1.539h-18.8a.022.022,0,0,1-.022-.022V704.813a7.519,7.519,0,0,0-7.233-7.609,7.344,7.344,0,0,0-7.459,7.345V724a.022.022,0,0,1-.022.022h-18.8a1.539,1.539,0,0,1-1.54-1.539v-3.929a27.709,27.709,0,0,1,55.418,0" fill="#442e2d"/>
    <path id="Path_929" data-name="Path 929" d="M240.523,653.979v3.951a27.709,27.709,0,0,1-55.418,0v-3.951a1.517,1.517,0,0,1,1.517-1.517h18.846v19.229a7.505,7.505,0,0,0,7.212,7.587,7.345,7.345,0,0,0,7.48-7.345V652.462h18.846a1.517,1.517,0,0,1,1.517,1.517" fill="#442e2d"/>
    <path id="Path_930" data-name="Path 930" d="M178.284,653.986v43.523a26.511,26.511,0,1,1-53.022,0V653.98a1.518,1.518,0,0,1,1.517-1.518h17.79v58.055a7.333,7.333,0,0,0,7.818,7.331,7.514,7.514,0,0,0,6.881-7.583v-57.8H176.76a1.524,1.524,0,0,1,1.524,1.524" fill="#442e2d"/>
    <path id="Path_931" data-name="Path 931" d="M365.785,718.552v3.929a1.539,1.539,0,0,1-1.54,1.539h-18.8a.022.022,0,0,1-.022-.022V704.813a7.519,7.519,0,0,0-7.233-7.609,7.344,7.344,0,0,0-7.459,7.345V724a.022.022,0,0,1-.022.022h-18.8a1.539,1.539,0,0,1-1.54-1.539v-3.929a27.709,27.709,0,0,1,55.418,0" fill="#442e2d"/>
    <path id="Path_932" data-name="Path 932" d="M365.785,653.979v3.951a27.709,27.709,0,0,1-55.418,0v-3.951a1.517,1.517,0,0,1,1.517-1.517H330.73v19.229a7.505,7.505,0,0,0,7.212,7.587,7.345,7.345,0,0,0,7.48-7.345V652.462h18.846a1.517,1.517,0,0,1,1.517,1.517" fill="#442e2d"/>
    <path id="Path_933" data-name="Path 933" d="M303.545,653.986v43.523a26.511,26.511,0,1,1-53.022,0V653.98a1.518,1.518,0,0,1,1.517-1.518h17.79v58.055a7.333,7.333,0,0,0,7.818,7.331,7.514,7.514,0,0,0,6.881-7.583v-57.8h17.492a1.524,1.524,0,0,1,1.524,1.524" fill="#442e2d"/>
    <path id="Path_934" data-name="Path 934" d="M491.046,718.552v3.929a1.539,1.539,0,0,1-1.54,1.539H470.7a.022.022,0,0,1-.022-.022V704.813a7.519,7.519,0,0,0-7.233-7.609,7.344,7.344,0,0,0-7.459,7.345V724a.022.022,0,0,1-.022.022h-18.8a1.539,1.539,0,0,1-1.54-1.539v-3.929a27.709,27.709,0,0,1,55.418,0" fill="#442e2d"/>
    <path id="Path_935" data-name="Path 935" d="M491.046,653.979v3.951a27.709,27.709,0,0,1-55.418,0v-3.951a1.517,1.517,0,0,1,1.517-1.517h18.846v19.229a7.505,7.505,0,0,0,7.212,7.587,7.345,7.345,0,0,0,7.48-7.345V652.462h18.846a1.517,1.517,0,0,1,1.517,1.517" fill="#442e2d"/>
    <path id="Path_936" data-name="Path 936" d="M428.807,653.986v43.523a26.511,26.511,0,1,1-53.022,0V653.98a1.518,1.518,0,0,1,1.517-1.518h17.79v58.055a7.333,7.333,0,0,0,7.818,7.331,7.514,7.514,0,0,0,6.881-7.583v-57.8h17.492a1.524,1.524,0,0,1,1.524,1.524" fill="#442e2d"/>
    <path id="Path_937" data-name="Path 937" d="M616.308,718.552v3.929a1.539,1.539,0,0,1-1.54,1.539h-18.8a.022.022,0,0,1-.022-.022V704.813a7.519,7.519,0,0,0-7.233-7.609,7.344,7.344,0,0,0-7.459,7.345V724a.022.022,0,0,1-.022.022h-18.8a1.539,1.539,0,0,1-1.54-1.539v-3.929a27.709,27.709,0,0,1,55.418,0" fill="#442e2d"/>
    <path id="Path_938" data-name="Path 938" d="M616.308,653.979v3.951a27.709,27.709,0,0,1-55.418,0v-3.951a1.517,1.517,0,0,1,1.517-1.517h18.846v19.229a7.505,7.505,0,0,0,7.212,7.587,7.345,7.345,0,0,0,7.48-7.345V652.462h18.846a1.517,1.517,0,0,1,1.517,1.517" fill="#442e2d"/>
    <path id="Path_939" data-name="Path 939" d="M554.068,653.986v43.523a26.511,26.511,0,1,1-53.022,0V653.98a1.518,1.518,0,0,1,1.517-1.518h17.79v58.055a7.333,7.333,0,0,0,7.819,7.331,7.513,7.513,0,0,0,6.88-7.583v-57.8h17.492a1.524,1.524,0,0,1,1.524,1.524" fill="#442e2d"/>
    <path id="Path_940" data-name="Path 940" d="M741.57,718.552v3.929a1.54,1.54,0,0,1-1.54,1.539h-18.8a.022.022,0,0,1-.022-.022V704.813a7.519,7.519,0,0,0-7.233-7.609,7.344,7.344,0,0,0-7.459,7.345V724a.022.022,0,0,1-.023.022h-18.8a1.54,1.54,0,0,1-1.541-1.539v-3.929a27.71,27.71,0,0,1,55.419,0" fill="#442e2d"/>
    <path id="Path_941" data-name="Path 941" d="M741.57,653.979v3.951a27.71,27.71,0,0,1-55.419,0v-3.951a1.518,1.518,0,0,1,1.518-1.517h18.846v19.229a7.505,7.505,0,0,0,7.212,7.587,7.345,7.345,0,0,0,7.48-7.345V652.462h18.845a1.517,1.517,0,0,1,1.518,1.517" fill="#442e2d"/>
    <path id="Path_942" data-name="Path 942" d="M679.33,653.986v43.523a26.511,26.511,0,1,1-53.022,0V653.98a1.518,1.518,0,0,1,1.517-1.518h17.79v58.055a7.333,7.333,0,0,0,7.818,7.331,7.514,7.514,0,0,0,6.881-7.583v-57.8h17.492a1.524,1.524,0,0,1,1.524,1.524" fill="#442e2d"/>
    <path id="Path_943" data-name="Path 943" d="M804.592,653.986v43.523a26.511,26.511,0,1,1-53.022,0V653.98a1.518,1.518,0,0,1,1.517-1.518h17.79v58.055a7.333,7.333,0,0,0,7.818,7.331,7.514,7.514,0,0,0,6.881-7.583v-57.8h17.492a1.524,1.524,0,0,1,1.524,1.524" fill="#442e2d"/>
    <path id="Path_944" data-name="Path 944" d="M115.262,800.11v3.929a1.539,1.539,0,0,1-1.54,1.539h-18.8a.022.022,0,0,1-.022-.022V786.371a7.519,7.519,0,0,0-7.233-7.609,7.344,7.344,0,0,0-7.459,7.345v19.449a.022.022,0,0,1-.022.022h-18.8a1.539,1.539,0,0,1-1.54-1.539V800.11a27.709,27.709,0,0,1,55.418,0" fill="#442e2d"/>
    <path id="Path_945" data-name="Path 945" d="M115.262,735.537v3.951a27.709,27.709,0,1,1-55.418,0v-3.951a1.517,1.517,0,0,1,1.517-1.517H80.207v19.229a7.505,7.505,0,0,0,7.212,7.587,7.345,7.345,0,0,0,7.48-7.345V734.02h18.846a1.517,1.517,0,0,1,1.517,1.517" fill="#442e2d"/>
    <path id="Path_946" data-name="Path 946" d="M53.022,735.544v43.523a26.511,26.511,0,0,1-53.022,0V735.538a1.518,1.518,0,0,1,1.517-1.518h17.79v58.055a7.333,7.333,0,0,0,7.818,7.331,7.514,7.514,0,0,0,6.881-7.583v-57.8H51.5a1.524,1.524,0,0,1,1.524,1.524" fill="#442e2d"/>
    <path id="Path_947" data-name="Path 947" d="M240.523,800.11v3.929a1.539,1.539,0,0,1-1.54,1.539h-18.8a.022.022,0,0,1-.022-.022V786.371a7.519,7.519,0,0,0-7.233-7.609,7.344,7.344,0,0,0-7.459,7.345v19.449a.022.022,0,0,1-.022.022h-18.8a1.539,1.539,0,0,1-1.54-1.539V800.11a27.709,27.709,0,0,1,55.418,0" fill="#442e2d"/>
    <path id="Path_948" data-name="Path 948" d="M240.523,735.537v3.951a27.709,27.709,0,1,1-55.418,0v-3.951a1.517,1.517,0,0,1,1.517-1.517h18.846v19.229a7.505,7.505,0,0,0,7.212,7.587,7.345,7.345,0,0,0,7.48-7.345V734.02h18.846a1.517,1.517,0,0,1,1.517,1.517" fill="#442e2d"/>
    <path id="Path_949" data-name="Path 949" d="M178.284,735.544v43.523a26.511,26.511,0,0,1-53.022,0V735.538a1.518,1.518,0,0,1,1.517-1.518h17.79v58.055a7.333,7.333,0,0,0,7.818,7.331,7.514,7.514,0,0,0,6.881-7.583v-57.8H176.76a1.524,1.524,0,0,1,1.524,1.524" fill="#442e2d"/>
    <path id="Path_950" data-name="Path 950" d="M365.785,800.11v3.929a1.539,1.539,0,0,1-1.54,1.539h-18.8a.022.022,0,0,1-.022-.022V786.371a7.519,7.519,0,0,0-7.233-7.609,7.344,7.344,0,0,0-7.459,7.345v19.449a.022.022,0,0,1-.022.022h-18.8a1.539,1.539,0,0,1-1.54-1.539V800.11a27.709,27.709,0,0,1,55.418,0" fill="#442e2d"/>
    <path id="Path_951" data-name="Path 951" d="M365.785,735.537v3.951a27.709,27.709,0,1,1-55.418,0v-3.951a1.517,1.517,0,0,1,1.517-1.517H330.73v19.229a7.505,7.505,0,0,0,7.212,7.587,7.345,7.345,0,0,0,7.48-7.345V734.02h18.846a1.517,1.517,0,0,1,1.517,1.517" fill="#442e2d"/>
    <path id="Path_952" data-name="Path 952" d="M303.545,735.544v43.523a26.511,26.511,0,0,1-53.022,0V735.538a1.518,1.518,0,0,1,1.517-1.518h17.79v58.055a7.333,7.333,0,0,0,7.818,7.331,7.514,7.514,0,0,0,6.881-7.583v-57.8h17.492a1.524,1.524,0,0,1,1.524,1.524" fill="#442e2d"/>
    <path id="Path_953" data-name="Path 953" d="M491.046,800.11v3.929a1.539,1.539,0,0,1-1.54,1.539H470.7a.022.022,0,0,1-.022-.022V786.371a7.519,7.519,0,0,0-7.233-7.609,7.344,7.344,0,0,0-7.459,7.345v19.449a.022.022,0,0,1-.022.022h-18.8a1.539,1.539,0,0,1-1.54-1.539V800.11a27.709,27.709,0,0,1,55.418,0" fill="#442e2d"/>
    <path id="Path_954" data-name="Path 954" d="M491.046,735.537v3.951a27.709,27.709,0,1,1-55.418,0v-3.951a1.517,1.517,0,0,1,1.517-1.517h18.846v19.229a7.505,7.505,0,0,0,7.212,7.587,7.345,7.345,0,0,0,7.48-7.345V734.02h18.846a1.517,1.517,0,0,1,1.517,1.517" fill="#442e2d"/>
    <path id="Path_955" data-name="Path 955" d="M428.807,735.544v43.523a26.511,26.511,0,0,1-53.022,0V735.538a1.518,1.518,0,0,1,1.517-1.518h17.79v58.055a7.333,7.333,0,0,0,7.818,7.331,7.514,7.514,0,0,0,6.881-7.583v-57.8h17.492a1.524,1.524,0,0,1,1.524,1.524" fill="#442e2d"/>
    <path id="Path_956" data-name="Path 956" d="M616.308,800.11v3.929a1.539,1.539,0,0,1-1.54,1.539h-18.8a.022.022,0,0,1-.022-.022V786.371a7.519,7.519,0,0,0-7.233-7.609,7.344,7.344,0,0,0-7.459,7.345v19.449a.022.022,0,0,1-.022.022h-18.8a1.539,1.539,0,0,1-1.54-1.539V800.11a27.709,27.709,0,0,1,55.418,0" fill="#442e2d"/>
    <path id="Path_957" data-name="Path 957" d="M616.308,735.537v3.951a27.709,27.709,0,1,1-55.418,0v-3.951a1.517,1.517,0,0,1,1.517-1.517h18.846v19.229a7.505,7.505,0,0,0,7.212,7.587,7.345,7.345,0,0,0,7.48-7.345V734.02h18.846a1.517,1.517,0,0,1,1.517,1.517" fill="#442e2d"/>
    <path id="Path_958" data-name="Path 958" d="M554.068,735.544v43.523a26.511,26.511,0,0,1-53.022,0V735.538a1.518,1.518,0,0,1,1.517-1.518h17.79v58.055a7.333,7.333,0,0,0,7.819,7.331,7.513,7.513,0,0,0,6.88-7.583v-57.8h17.492a1.524,1.524,0,0,1,1.524,1.524" fill="#442e2d"/>
    <path id="Path_959" data-name="Path 959" d="M741.57,800.11v3.929a1.54,1.54,0,0,1-1.54,1.539h-18.8a.022.022,0,0,1-.022-.022V786.371a7.519,7.519,0,0,0-7.233-7.609,7.344,7.344,0,0,0-7.459,7.345v19.449a.022.022,0,0,1-.023.022h-18.8a1.54,1.54,0,0,1-1.541-1.539V800.11a27.71,27.71,0,0,1,55.419,0" fill="#442e2d"/>
    <path id="Path_960" data-name="Path 960" d="M741.57,735.537v3.951a27.71,27.71,0,0,1-55.419,0v-3.951a1.518,1.518,0,0,1,1.518-1.517h18.846v19.229a7.505,7.505,0,0,0,7.212,7.587,7.345,7.345,0,0,0,7.48-7.345V734.02h18.845a1.517,1.517,0,0,1,1.518,1.517" fill="#442e2d"/>
    <path id="Path_961" data-name="Path 961" d="M679.33,735.544v43.523a26.511,26.511,0,0,1-53.022,0V735.538a1.518,1.518,0,0,1,1.517-1.518h17.79v58.055a7.333,7.333,0,0,0,7.818,7.331,7.514,7.514,0,0,0,6.881-7.583v-57.8h17.492a1.524,1.524,0,0,1,1.524,1.524" fill="#442e2d"/>
    <path id="Path_962" data-name="Path 962" d="M804.592,735.544v43.523a26.511,26.511,0,0,1-53.022,0V735.538a1.518,1.518,0,0,1,1.517-1.518h17.79v58.055a7.333,7.333,0,0,0,7.818,7.331,7.514,7.514,0,0,0,6.881-7.583v-57.8h17.492a1.524,1.524,0,0,1,1.524,1.524" fill="#442e2d"/>
    <path id="Path_963" data-name="Path 963" d="M115.262,881.668V885.6a1.539,1.539,0,0,1-1.54,1.539h-18.8a.022.022,0,0,1-.022-.022V867.929a7.519,7.519,0,0,0-7.233-7.609,7.344,7.344,0,0,0-7.459,7.345v19.449a.022.022,0,0,1-.022.022h-18.8a1.539,1.539,0,0,1-1.54-1.539v-3.929a27.709,27.709,0,1,1,55.418,0" fill="#442e2d"/>
    <path id="Path_964" data-name="Path 964" d="M115.262,817.095v3.951a27.709,27.709,0,0,1-55.418,0v-3.951a1.517,1.517,0,0,1,1.517-1.517H80.207v19.229a7.5,7.5,0,0,0,7.212,7.587,7.345,7.345,0,0,0,7.48-7.345V815.578h18.846a1.517,1.517,0,0,1,1.517,1.517" fill="#442e2d"/>
    <path id="Path_965" data-name="Path 965" d="M53.022,817.1v43.523a26.511,26.511,0,0,1-53.022,0V817.1a1.518,1.518,0,0,1,1.517-1.518h17.79v58.055a7.333,7.333,0,0,0,7.818,7.331,7.513,7.513,0,0,0,6.881-7.583v-57.8H51.5a1.524,1.524,0,0,1,1.524,1.524" fill="#442e2d"/>
    <path id="Path_966" data-name="Path 966" d="M240.523,881.668V885.6a1.539,1.539,0,0,1-1.54,1.539h-18.8a.022.022,0,0,1-.022-.022V867.929a7.519,7.519,0,0,0-7.233-7.609,7.344,7.344,0,0,0-7.459,7.345v19.449a.022.022,0,0,1-.022.022h-18.8a1.539,1.539,0,0,1-1.54-1.539v-3.929a27.709,27.709,0,1,1,55.418,0" fill="#442e2d"/>
    <path id="Path_967" data-name="Path 967" d="M240.523,817.095v3.951a27.709,27.709,0,0,1-55.418,0v-3.951a1.517,1.517,0,0,1,1.517-1.517h18.846v19.229a7.5,7.5,0,0,0,7.212,7.587,7.345,7.345,0,0,0,7.48-7.345V815.578h18.846a1.517,1.517,0,0,1,1.517,1.517" fill="#442e2d"/>
    <path id="Path_968" data-name="Path 968" d="M178.284,817.1v43.523a26.511,26.511,0,0,1-53.022,0V817.1a1.518,1.518,0,0,1,1.517-1.518h17.79v58.055a7.333,7.333,0,0,0,7.818,7.331,7.513,7.513,0,0,0,6.881-7.583v-57.8H176.76a1.524,1.524,0,0,1,1.524,1.524" fill="#442e2d"/>
    <path id="Path_969" data-name="Path 969" d="M365.785,881.668V885.6a1.539,1.539,0,0,1-1.54,1.539h-18.8a.022.022,0,0,1-.022-.022V867.929a7.519,7.519,0,0,0-7.233-7.609,7.344,7.344,0,0,0-7.459,7.345v19.449a.022.022,0,0,1-.022.022h-18.8a1.539,1.539,0,0,1-1.54-1.539v-3.929a27.709,27.709,0,1,1,55.418,0" fill="#442e2d"/>
    <path id="Path_970" data-name="Path 970" d="M365.785,817.095v3.951a27.709,27.709,0,0,1-55.418,0v-3.951a1.517,1.517,0,0,1,1.517-1.517H330.73v19.229a7.5,7.5,0,0,0,7.212,7.587,7.345,7.345,0,0,0,7.48-7.345V815.578h18.846a1.517,1.517,0,0,1,1.517,1.517" fill="#442e2d"/>
    <path id="Path_971" data-name="Path 971" d="M303.545,817.1v43.523a26.511,26.511,0,0,1-53.022,0V817.1a1.518,1.518,0,0,1,1.517-1.518h17.79v58.055a7.333,7.333,0,0,0,7.818,7.331,7.513,7.513,0,0,0,6.881-7.583v-57.8h17.492a1.524,1.524,0,0,1,1.524,1.524" fill="#442e2d"/>
    <path id="Path_972" data-name="Path 972" d="M491.046,881.668V885.6a1.539,1.539,0,0,1-1.54,1.539H470.7a.022.022,0,0,1-.022-.022V867.929a7.519,7.519,0,0,0-7.233-7.609,7.344,7.344,0,0,0-7.459,7.345v19.449a.022.022,0,0,1-.022.022h-18.8a1.539,1.539,0,0,1-1.54-1.539v-3.929a27.709,27.709,0,1,1,55.418,0" fill="#442e2d"/>
    <path id="Path_973" data-name="Path 973" d="M491.046,817.095v3.951a27.709,27.709,0,0,1-55.418,0v-3.951a1.517,1.517,0,0,1,1.517-1.517h18.846v19.229a7.5,7.5,0,0,0,7.212,7.587,7.345,7.345,0,0,0,7.48-7.345V815.578h18.846a1.517,1.517,0,0,1,1.517,1.517" fill="#442e2d"/>
    <path id="Path_974" data-name="Path 974" d="M428.807,817.1v43.523a26.511,26.511,0,0,1-53.022,0V817.1a1.518,1.518,0,0,1,1.517-1.518h17.79v58.055a7.333,7.333,0,0,0,7.818,7.331,7.513,7.513,0,0,0,6.881-7.583v-57.8h17.492a1.524,1.524,0,0,1,1.524,1.524" fill="#442e2d"/>
    <path id="Path_975" data-name="Path 975" d="M616.308,881.668V885.6a1.539,1.539,0,0,1-1.54,1.539h-18.8a.022.022,0,0,1-.022-.022V867.929a7.519,7.519,0,0,0-7.233-7.609,7.344,7.344,0,0,0-7.459,7.345v19.449a.022.022,0,0,1-.022.022h-18.8a1.539,1.539,0,0,1-1.54-1.539v-3.929a27.709,27.709,0,1,1,55.418,0" fill="#442e2d"/>
    <path id="Path_976" data-name="Path 976" d="M616.308,817.095v3.951a27.709,27.709,0,0,1-55.418,0v-3.951a1.517,1.517,0,0,1,1.517-1.517h18.846v19.229a7.5,7.5,0,0,0,7.212,7.587,7.345,7.345,0,0,0,7.48-7.345V815.578h18.846a1.517,1.517,0,0,1,1.517,1.517" fill="#442e2d"/>
    <path id="Path_977" data-name="Path 977" d="M554.068,817.1v43.523a26.511,26.511,0,0,1-53.022,0V817.1a1.518,1.518,0,0,1,1.517-1.518h17.79v58.055a7.333,7.333,0,0,0,7.819,7.331,7.513,7.513,0,0,0,6.88-7.583v-57.8h17.492a1.524,1.524,0,0,1,1.524,1.524" fill="#442e2d"/>
    <path id="Path_978" data-name="Path 978" d="M741.57,881.668V885.6a1.54,1.54,0,0,1-1.54,1.539h-18.8a.022.022,0,0,1-.022-.022V867.929a7.519,7.519,0,0,0-7.233-7.609,7.344,7.344,0,0,0-7.459,7.345v19.449a.022.022,0,0,1-.023.022h-18.8a1.54,1.54,0,0,1-1.541-1.539v-3.929a27.71,27.71,0,0,1,55.419,0" fill="#442e2d"/>
    <path id="Path_979" data-name="Path 979" d="M741.57,817.095v3.951a27.71,27.71,0,0,1-55.419,0v-3.951a1.518,1.518,0,0,1,1.518-1.517h18.846v19.229a7.5,7.5,0,0,0,7.212,7.587,7.345,7.345,0,0,0,7.48-7.345V815.578h18.845a1.517,1.517,0,0,1,1.518,1.517" fill="#442e2d"/>
    <path id="Path_980" data-name="Path 980" d="M679.33,817.1v43.523a26.511,26.511,0,0,1-53.022,0V817.1a1.518,1.518,0,0,1,1.517-1.518h17.79v58.055a7.333,7.333,0,0,0,7.818,7.331,7.514,7.514,0,0,0,6.881-7.583v-57.8h17.492a1.524,1.524,0,0,1,1.524,1.524" fill="#442e2d"/>
    <path id="Path_981" data-name="Path 981" d="M804.592,817.1v43.523a26.511,26.511,0,0,1-53.022,0V817.1a1.518,1.518,0,0,1,1.517-1.518h17.79v58.055a7.333,7.333,0,0,0,7.818,7.331,7.513,7.513,0,0,0,6.881-7.583v-57.8h17.492a1.524,1.524,0,0,1,1.524,1.524" fill="#442e2d"/>
    <path id="Path_982" data-name="Path 982" d="M115.262,963.226v3.929a1.539,1.539,0,0,1-1.54,1.539h-18.8a.022.022,0,0,1-.022-.022V949.487a7.519,7.519,0,0,0-7.233-7.609,7.344,7.344,0,0,0-7.459,7.345v19.449a.022.022,0,0,1-.022.022h-18.8a1.539,1.539,0,0,1-1.54-1.539v-3.929a27.709,27.709,0,0,1,55.418,0" fill="#442e2d"/>
    <path id="Path_983" data-name="Path 983" d="M115.262,898.653V902.6a27.709,27.709,0,0,1-55.418,0v-3.951a1.517,1.517,0,0,1,1.517-1.517H80.207v19.229a7.505,7.505,0,0,0,7.212,7.587,7.345,7.345,0,0,0,7.48-7.345V897.136h18.846a1.517,1.517,0,0,1,1.517,1.517" fill="#442e2d"/>
    <path id="Path_984" data-name="Path 984" d="M53.022,898.66v43.523a26.511,26.511,0,0,1-53.022,0V898.654a1.518,1.518,0,0,1,1.517-1.518h17.79v58.055a7.333,7.333,0,0,0,7.818,7.331,7.513,7.513,0,0,0,6.881-7.583v-57.8H51.5a1.524,1.524,0,0,1,1.524,1.524" fill="#442e2d"/>
    <path id="Path_985" data-name="Path 985" d="M240.523,963.226v3.929a1.539,1.539,0,0,1-1.54,1.539h-18.8a.022.022,0,0,1-.022-.022V949.487a7.519,7.519,0,0,0-7.233-7.609,7.344,7.344,0,0,0-7.459,7.345v19.449a.022.022,0,0,1-.022.022h-18.8a1.539,1.539,0,0,1-1.54-1.539v-3.929a27.709,27.709,0,0,1,55.418,0" fill="#442e2d"/>
    <path id="Path_986" data-name="Path 986" d="M240.523,898.653V902.6a27.709,27.709,0,0,1-55.418,0v-3.951a1.517,1.517,0,0,1,1.517-1.517h18.846v19.229a7.505,7.505,0,0,0,7.212,7.587,7.345,7.345,0,0,0,7.48-7.345V897.136h18.846a1.517,1.517,0,0,1,1.517,1.517" fill="#442e2d"/>
    <path id="Path_987" data-name="Path 987" d="M178.284,898.66v43.523a26.511,26.511,0,0,1-53.022,0V898.654a1.518,1.518,0,0,1,1.517-1.518h17.79v58.055a7.333,7.333,0,0,0,7.818,7.331,7.513,7.513,0,0,0,6.881-7.583v-57.8H176.76a1.524,1.524,0,0,1,1.524,1.524" fill="#442e2d"/>
    <path id="Path_988" data-name="Path 988" d="M365.785,963.226v3.929a1.539,1.539,0,0,1-1.54,1.539h-18.8a.022.022,0,0,1-.022-.022V949.487a7.519,7.519,0,0,0-7.233-7.609,7.344,7.344,0,0,0-7.459,7.345v19.449a.022.022,0,0,1-.022.022h-18.8a1.539,1.539,0,0,1-1.54-1.539v-3.929a27.709,27.709,0,0,1,55.418,0" fill="#442e2d"/>
    <path id="Path_989" data-name="Path 989" d="M365.785,898.653V902.6a27.709,27.709,0,0,1-55.418,0v-3.951a1.517,1.517,0,0,1,1.517-1.517H330.73v19.229a7.505,7.505,0,0,0,7.212,7.587,7.345,7.345,0,0,0,7.48-7.345V897.136h18.846a1.517,1.517,0,0,1,1.517,1.517" fill="#442e2d"/>
    <path id="Path_990" data-name="Path 990" d="M303.545,898.66v43.523a26.511,26.511,0,0,1-53.022,0V898.654a1.518,1.518,0,0,1,1.517-1.518h17.79v58.055a7.333,7.333,0,0,0,7.818,7.331,7.513,7.513,0,0,0,6.881-7.583v-57.8h17.492a1.524,1.524,0,0,1,1.524,1.524" fill="#442e2d"/>
    <path id="Path_991" data-name="Path 991" d="M491.046,963.226v3.929a1.539,1.539,0,0,1-1.54,1.539H470.7a.022.022,0,0,1-.022-.022V949.487a7.519,7.519,0,0,0-7.233-7.609,7.344,7.344,0,0,0-7.459,7.345v19.449a.022.022,0,0,1-.022.022h-18.8a1.539,1.539,0,0,1-1.54-1.539v-3.929a27.709,27.709,0,0,1,55.418,0" fill="#442e2d"/>
    <path id="Path_992" data-name="Path 992" d="M491.046,898.653V902.6a27.709,27.709,0,0,1-55.418,0v-3.951a1.517,1.517,0,0,1,1.517-1.517h18.846v19.229a7.505,7.505,0,0,0,7.212,7.587,7.345,7.345,0,0,0,7.48-7.345V897.136h18.846a1.517,1.517,0,0,1,1.517,1.517" fill="#442e2d"/>
    <path id="Path_993" data-name="Path 993" d="M428.807,898.66v43.523a26.511,26.511,0,0,1-53.022,0V898.654a1.518,1.518,0,0,1,1.517-1.518h17.79v58.055a7.333,7.333,0,0,0,7.818,7.331,7.513,7.513,0,0,0,6.881-7.583v-57.8h17.492a1.524,1.524,0,0,1,1.524,1.524" fill="#442e2d"/>
    <path id="Path_994" data-name="Path 994" d="M616.308,963.226v3.929a1.539,1.539,0,0,1-1.54,1.539h-18.8a.022.022,0,0,1-.022-.022V949.487a7.519,7.519,0,0,0-7.233-7.609,7.344,7.344,0,0,0-7.459,7.345v19.449a.022.022,0,0,1-.022.022h-18.8a1.539,1.539,0,0,1-1.54-1.539v-3.929a27.709,27.709,0,0,1,55.418,0" fill="#442e2d"/>
    <path id="Path_995" data-name="Path 995" d="M616.308,898.653V902.6a27.709,27.709,0,0,1-55.418,0v-3.951a1.517,1.517,0,0,1,1.517-1.517h18.846v19.229a7.505,7.505,0,0,0,7.212,7.587,7.345,7.345,0,0,0,7.48-7.345V897.136h18.846a1.517,1.517,0,0,1,1.517,1.517" fill="#442e2d"/>
    <path id="Path_996" data-name="Path 996" d="M554.068,898.66v43.523a26.511,26.511,0,0,1-53.022,0V898.654a1.518,1.518,0,0,1,1.517-1.518h17.79v58.055a7.333,7.333,0,0,0,7.819,7.331,7.513,7.513,0,0,0,6.88-7.583v-57.8h17.492a1.524,1.524,0,0,1,1.524,1.524" fill="#442e2d"/>
    <path id="Path_997" data-name="Path 997" d="M741.57,963.226v3.929a1.54,1.54,0,0,1-1.54,1.539h-18.8a.022.022,0,0,1-.022-.022V949.487a7.519,7.519,0,0,0-7.233-7.609,7.344,7.344,0,0,0-7.459,7.345v19.449a.022.022,0,0,1-.023.022h-18.8a1.54,1.54,0,0,1-1.541-1.539v-3.929a27.71,27.71,0,0,1,55.419,0" fill="#442e2d"/>
    <path id="Path_998" data-name="Path 998" d="M741.57,898.653V902.6a27.71,27.71,0,0,1-55.419,0v-3.951a1.518,1.518,0,0,1,1.518-1.517h18.846v19.229a7.505,7.505,0,0,0,7.212,7.587,7.345,7.345,0,0,0,7.48-7.345V897.136h18.845a1.517,1.517,0,0,1,1.518,1.517" fill="#442e2d"/>
    <path id="Path_999" data-name="Path 999" d="M679.33,898.66v43.523a26.511,26.511,0,0,1-53.022,0V898.654a1.518,1.518,0,0,1,1.517-1.518h17.79v58.055a7.333,7.333,0,0,0,7.818,7.331,7.514,7.514,0,0,0,6.881-7.583v-57.8h17.492a1.524,1.524,0,0,1,1.524,1.524" fill="#442e2d"/>
    <path id="Path_1000" data-name="Path 1000" d="M804.592,898.66v43.523a26.511,26.511,0,0,1-53.022,0V898.654a1.518,1.518,0,0,1,1.517-1.518h17.79v58.055a7.333,7.333,0,0,0,7.818,7.331,7.513,7.513,0,0,0,6.881-7.583v-57.8h17.492a1.524,1.524,0,0,1,1.524,1.524" fill="#442e2d"/>
    <path id="Path_1001" data-name="Path 1001" d="M115.262,1044.784v3.929a1.539,1.539,0,0,1-1.54,1.539h-18.8a.022.022,0,0,1-.022-.022v-19.185a7.519,7.519,0,0,0-7.233-7.609,7.344,7.344,0,0,0-7.459,7.345v19.449a.022.022,0,0,1-.022.022h-18.8a1.539,1.539,0,0,1-1.54-1.539v-3.929a27.709,27.709,0,1,1,55.418,0" fill="#442e2d"/>
    <path id="Path_1002" data-name="Path 1002" d="M115.262,980.211v3.951a27.709,27.709,0,0,1-55.418,0v-3.951a1.517,1.517,0,0,1,1.517-1.517H80.207v19.229a7.505,7.505,0,0,0,7.212,7.587,7.345,7.345,0,0,0,7.48-7.345V978.694h18.846a1.517,1.517,0,0,1,1.517,1.517" fill="#442e2d"/>
    <path id="Path_1003" data-name="Path 1003" d="M53.022,980.218v43.523a26.511,26.511,0,0,1-53.022,0V980.212a1.518,1.518,0,0,1,1.517-1.518h17.79v58.055a7.333,7.333,0,0,0,7.818,7.331,7.513,7.513,0,0,0,6.881-7.583v-57.8H51.5a1.524,1.524,0,0,1,1.524,1.524" fill="#442e2d"/>
    <path id="Path_1004" data-name="Path 1004" d="M240.523,1044.784v3.929a1.539,1.539,0,0,1-1.54,1.539h-18.8a.022.022,0,0,1-.022-.022v-19.185a7.519,7.519,0,0,0-7.233-7.609,7.344,7.344,0,0,0-7.459,7.345v19.449a.022.022,0,0,1-.022.022h-18.8a1.539,1.539,0,0,1-1.54-1.539v-3.929a27.709,27.709,0,1,1,55.418,0" fill="#442e2d"/>
    <path id="Path_1005" data-name="Path 1005" d="M240.523,980.211v3.951a27.709,27.709,0,0,1-55.418,0v-3.951a1.517,1.517,0,0,1,1.517-1.517h18.846v19.229a7.505,7.505,0,0,0,7.212,7.587,7.345,7.345,0,0,0,7.48-7.345V978.694h18.846a1.517,1.517,0,0,1,1.517,1.517" fill="#442e2d"/>
    <path id="Path_1006" data-name="Path 1006" d="M178.284,980.218v43.523a26.511,26.511,0,0,1-53.022,0V980.212a1.518,1.518,0,0,1,1.517-1.518h17.79v58.055a7.333,7.333,0,0,0,7.818,7.331,7.513,7.513,0,0,0,6.881-7.583v-57.8H176.76a1.524,1.524,0,0,1,1.524,1.524" fill="#442e2d"/>
    <path id="Path_1007" data-name="Path 1007" d="M365.785,1044.784v3.929a1.539,1.539,0,0,1-1.54,1.539h-18.8a.022.022,0,0,1-.022-.022v-19.185a7.519,7.519,0,0,0-7.233-7.609,7.344,7.344,0,0,0-7.459,7.345v19.449a.022.022,0,0,1-.022.022h-18.8a1.539,1.539,0,0,1-1.54-1.539v-3.929a27.709,27.709,0,1,1,55.418,0" fill="#442e2d"/>
    <path id="Path_1008" data-name="Path 1008" d="M365.785,980.211v3.951a27.709,27.709,0,0,1-55.418,0v-3.951a1.517,1.517,0,0,1,1.517-1.517H330.73v19.229a7.505,7.505,0,0,0,7.212,7.587,7.345,7.345,0,0,0,7.48-7.345V978.694h18.846a1.517,1.517,0,0,1,1.517,1.517" fill="#442e2d"/>
    <path id="Path_1009" data-name="Path 1009" d="M303.545,980.218v43.523a26.511,26.511,0,0,1-53.022,0V980.212a1.518,1.518,0,0,1,1.517-1.518h17.79v58.055a7.333,7.333,0,0,0,7.818,7.331,7.513,7.513,0,0,0,6.881-7.583v-57.8h17.492a1.524,1.524,0,0,1,1.524,1.524" fill="#442e2d"/>
    <path id="Path_1010" data-name="Path 1010" d="M491.046,1044.784v3.929a1.539,1.539,0,0,1-1.54,1.539H470.7a.022.022,0,0,1-.022-.022v-19.185a7.519,7.519,0,0,0-7.233-7.609,7.344,7.344,0,0,0-7.459,7.345v19.449a.022.022,0,0,1-.022.022h-18.8a1.539,1.539,0,0,1-1.54-1.539v-3.929a27.709,27.709,0,1,1,55.418,0" fill="#442e2d"/>
    <path id="Path_1011" data-name="Path 1011" d="M491.046,980.211v3.951a27.709,27.709,0,0,1-55.418,0v-3.951a1.517,1.517,0,0,1,1.517-1.517h18.846v19.229a7.505,7.505,0,0,0,7.212,7.587,7.345,7.345,0,0,0,7.48-7.345V978.694h18.846a1.517,1.517,0,0,1,1.517,1.517" fill="#442e2d"/>
    <path id="Path_1012" data-name="Path 1012" d="M428.807,980.218v43.523a26.511,26.511,0,0,1-53.022,0V980.212a1.518,1.518,0,0,1,1.517-1.518h17.79v58.055a7.333,7.333,0,0,0,7.818,7.331,7.513,7.513,0,0,0,6.881-7.583v-57.8h17.492a1.524,1.524,0,0,1,1.524,1.524" fill="#442e2d"/>
    <path id="Path_1013" data-name="Path 1013" d="M616.308,1044.784v3.929a1.539,1.539,0,0,1-1.54,1.539h-18.8a.022.022,0,0,1-.022-.022v-19.185a7.519,7.519,0,0,0-7.233-7.609,7.344,7.344,0,0,0-7.459,7.345v19.449a.022.022,0,0,1-.022.022h-18.8a1.539,1.539,0,0,1-1.54-1.539v-3.929a27.709,27.709,0,1,1,55.418,0" fill="#442e2d"/>
    <path id="Path_1014" data-name="Path 1014" d="M616.308,980.211v3.951a27.709,27.709,0,1,1-55.418,0v-3.951a1.517,1.517,0,0,1,1.517-1.517h18.846v19.229a7.505,7.505,0,0,0,7.212,7.587,7.345,7.345,0,0,0,7.48-7.345V978.694h18.846a1.517,1.517,0,0,1,1.517,1.517" fill="#442e2d"/>
    <path id="Path_1015" data-name="Path 1015" d="M554.068,980.218v43.523a26.511,26.511,0,0,1-53.022,0V980.212a1.518,1.518,0,0,1,1.517-1.518h17.79v58.055a7.333,7.333,0,0,0,7.819,7.331,7.513,7.513,0,0,0,6.88-7.583v-57.8h17.492a1.524,1.524,0,0,1,1.524,1.524" fill="#442e2d"/>
    <path id="Path_1016" data-name="Path 1016" d="M741.57,1044.784v3.929a1.54,1.54,0,0,1-1.54,1.539h-18.8a.022.022,0,0,1-.022-.022v-19.185a7.519,7.519,0,0,0-7.233-7.609,7.344,7.344,0,0,0-7.459,7.345v19.449a.022.022,0,0,1-.023.022h-18.8a1.54,1.54,0,0,1-1.541-1.539v-3.929a27.71,27.71,0,0,1,55.419,0" fill="#442e2d"/>
    <path id="Path_1017" data-name="Path 1017" d="M741.57,980.211v3.951a27.71,27.71,0,0,1-55.419,0v-3.951a1.518,1.518,0,0,1,1.518-1.517h18.846v19.229a7.505,7.505,0,0,0,7.212,7.587,7.345,7.345,0,0,0,7.48-7.345V978.694h18.845a1.517,1.517,0,0,1,1.518,1.517" fill="#442e2d"/>
    <path id="Path_1018" data-name="Path 1018" d="M679.33,980.218v43.523a26.511,26.511,0,0,1-53.022,0V980.212a1.518,1.518,0,0,1,1.517-1.518h17.79v58.055a7.333,7.333,0,0,0,7.818,7.331,7.514,7.514,0,0,0,6.881-7.583v-57.8h17.492a1.524,1.524,0,0,1,1.524,1.524" fill="#442e2d"/>
    <path id="Path_1019" data-name="Path 1019" d="M804.592,980.218v43.523a26.511,26.511,0,0,1-53.022,0V980.212a1.518,1.518,0,0,1,1.517-1.518h17.79v58.055a7.333,7.333,0,0,0,7.818,7.331,7.513,7.513,0,0,0,6.881-7.583v-57.8h17.492a1.524,1.524,0,0,1,1.524,1.524" fill="#442e2d"/>
    <path id="Path_1020" data-name="Path 1020" d="M115.262,1061.769v3.951a27.709,27.709,0,0,1-55.418,0v-3.951a1.517,1.517,0,0,1,1.517-1.517H80.207v19.229a7.505,7.505,0,0,0,7.212,7.587,7.345,7.345,0,0,0,7.48-7.345v-19.471h18.846a1.517,1.517,0,0,1,1.517,1.517" fill="#442e2d"/>
    <path id="Path_1021" data-name="Path 1021" d="M53.022,1061.776V1105.3A26.511,26.511,0,1,1,0,1105.3V1061.77a1.518,1.518,0,0,1,1.517-1.518h17.79v58.055a7.333,7.333,0,0,0,7.818,7.331,7.513,7.513,0,0,0,6.881-7.583v-57.8H51.5a1.524,1.524,0,0,1,1.524,1.524" fill="#442e2d"/>
    <path id="Path_1022" data-name="Path 1022" d="M240.523,1061.769v3.951a27.709,27.709,0,0,1-55.418,0v-3.951a1.517,1.517,0,0,1,1.517-1.517h18.846v19.229a7.505,7.505,0,0,0,7.212,7.587,7.345,7.345,0,0,0,7.48-7.345v-19.471h18.846a1.517,1.517,0,0,1,1.517,1.517" fill="#442e2d"/>
    <path id="Path_1023" data-name="Path 1023" d="M178.284,1061.776V1105.3a26.511,26.511,0,1,1-53.022,0V1061.77a1.518,1.518,0,0,1,1.517-1.518h17.79v58.055a7.333,7.333,0,0,0,7.818,7.331,7.513,7.513,0,0,0,6.881-7.583v-57.8H176.76a1.524,1.524,0,0,1,1.524,1.524" fill="#442e2d"/>
    <path id="Path_1024" data-name="Path 1024" d="M365.785,1061.769v3.951a27.709,27.709,0,0,1-55.418,0v-3.951a1.517,1.517,0,0,1,1.517-1.517H330.73v19.229a7.505,7.505,0,0,0,7.212,7.587,7.345,7.345,0,0,0,7.48-7.345v-19.471h18.846a1.517,1.517,0,0,1,1.517,1.517" fill="#442e2d"/>
    <path id="Path_1025" data-name="Path 1025" d="M303.545,1061.776V1105.3a26.511,26.511,0,1,1-53.022,0V1061.77a1.518,1.518,0,0,1,1.517-1.518h17.79v58.055a7.333,7.333,0,0,0,7.818,7.331,7.513,7.513,0,0,0,6.881-7.583v-57.8h17.492a1.524,1.524,0,0,1,1.524,1.524" fill="#442e2d"/>
    <path id="Path_1026" data-name="Path 1026" d="M491.046,1061.769v3.951a27.709,27.709,0,0,1-55.418,0v-3.951a1.517,1.517,0,0,1,1.517-1.517h18.846v19.229a7.505,7.505,0,0,0,7.212,7.587,7.345,7.345,0,0,0,7.48-7.345v-19.471h18.846a1.517,1.517,0,0,1,1.517,1.517" fill="#442e2d"/>
    <path id="Path_1027" data-name="Path 1027" d="M428.807,1061.776V1105.3a26.511,26.511,0,1,1-53.022,0V1061.77a1.518,1.518,0,0,1,1.517-1.518h17.79v58.055a7.333,7.333,0,0,0,7.818,7.331,7.513,7.513,0,0,0,6.881-7.583v-57.8h17.492a1.524,1.524,0,0,1,1.524,1.524" fill="#442e2d"/>
    <path id="Path_1028" data-name="Path 1028" d="M616.308,1061.769v3.951a27.709,27.709,0,0,1-55.418,0v-3.951a1.517,1.517,0,0,1,1.517-1.517h18.846v19.229a7.505,7.505,0,0,0,7.212,7.587,7.345,7.345,0,0,0,7.48-7.345v-19.471h18.846a1.517,1.517,0,0,1,1.517,1.517" fill="#442e2d"/>
    <path id="Path_1029" data-name="Path 1029" d="M554.068,1061.776V1105.3a26.511,26.511,0,1,1-53.022,0V1061.77a1.518,1.518,0,0,1,1.517-1.518h17.79v58.055a7.333,7.333,0,0,0,7.819,7.331,7.513,7.513,0,0,0,6.88-7.583v-57.8h17.492a1.524,1.524,0,0,1,1.524,1.524" fill="#442e2d"/>
    <path id="Path_1030" data-name="Path 1030" d="M741.57,1061.769v3.951a27.71,27.71,0,0,1-55.419,0v-3.951a1.518,1.518,0,0,1,1.518-1.517h18.846v19.229a7.505,7.505,0,0,0,7.212,7.587,7.345,7.345,0,0,0,7.48-7.345v-19.471h18.845a1.517,1.517,0,0,1,1.518,1.517" fill="#442e2d"/>
    <path id="Path_1031" data-name="Path 1031" d="M679.33,1061.776V1105.3a26.511,26.511,0,1,1-53.022,0V1061.77a1.518,1.518,0,0,1,1.517-1.518h17.79v58.055a7.333,7.333,0,0,0,7.818,7.331,7.513,7.513,0,0,0,6.881-7.583v-57.8h17.492a1.524,1.524,0,0,1,1.524,1.524" fill="#442e2d"/>
    <path id="Path_1032" data-name="Path 1032" d="M804.592,1061.776V1105.3a26.511,26.511,0,1,1-53.022,0V1061.77a1.518,1.518,0,0,1,1.517-1.518h17.79v58.055a7.333,7.333,0,0,0,7.818,7.331,7.513,7.513,0,0,0,6.881-7.583v-57.8h17.492a1.524,1.524,0,0,1,1.524,1.524" fill="#442e2d"/>
  </g>
</svg>
